<svg width="343" height="206" viewBox="0 0 343 206" fill="none" xmlns="http://www.w3.org/2000/svg">
<path d="M84.6785 96.5895L84.2056 96.0983L85.5334 94.8433L85.9973 95.3435L84.6785 96.5895Z" fill="#263238"/>
<path d="M131.947 176.317C130.871 176.466 129.782 176.528 128.754 176.557L128.735 175.958C129.778 175.918 130.84 175.836 131.927 175.709L131.947 176.317ZM135.894 175.703L135.811 175.104C136.831 174.898 137.879 174.663 138.937 174.385L139.091 174.974C138.032 175.243 136.979 175.503 135.941 175.696L135.894 175.703ZM124.714 176.5C123.622 176.424 122.539 176.29 121.501 176.133L121.604 175.541C122.62 175.709 123.678 175.839 124.754 175.917L124.714 176.5ZM142.947 173.82L142.762 173.244C143.749 172.911 144.763 172.551 145.757 172.16L145.981 172.723C144.963 173.117 143.941 173.486 142.945 173.861L142.947 173.82ZM149.683 171.159L149.437 170.608C150.401 170.173 151.368 169.705 152.317 169.223L152.586 169.763C151.616 170.215 150.646 170.716 149.675 171.16L149.683 171.159ZM117.561 175.176C116.531 174.849 115.521 174.459 114.536 174.01L114.783 173.463C115.744 173.902 116.732 174.281 117.739 174.598L117.561 175.176ZM156.138 167.871L155.846 167.342C156.758 166.824 157.69 166.272 158.605 165.722L158.911 166.24C157.989 166.8 157.05 167.353 156.13 167.872L156.138 167.871ZM110.999 172.004C110.106 171.386 109.256 170.705 108.458 169.966L108.863 169.519C109.641 170.242 110.469 170.907 111.342 171.509L110.999 172.004ZM162.318 164.059L161.99 163.559C162.861 162.974 163.744 162.364 164.625 161.737L164.968 162.234C164.065 162.872 163.174 163.484 162.295 164.07L162.318 164.059ZM168.184 159.843L167.819 159.365C168.668 158.705 169.504 158.046 170.327 157.389L170.707 157.857C169.881 158.533 169.038 159.196 168.185 159.851L168.184 159.843ZM105.748 166.893C105.108 166.011 104.534 165.082 104.031 164.114L104.565 163.836C105.057 164.776 105.614 165.68 106.232 166.541L105.748 166.893ZM173.781 155.258L173.387 154.8C174.198 154.097 174.994 153.384 175.776 152.663L176.177 153.111C175.392 153.847 174.596 154.559 173.782 155.266L173.781 155.258ZM179.09 150.339L178.675 149.909C179.441 149.151 180.191 148.396 180.931 147.626L181.36 148.047C180.614 148.826 179.849 149.591 179.091 150.347L179.09 150.339ZM102.474 160.336C102.148 159.305 101.889 158.254 101.698 157.19L102.284 157.108C102.476 158.156 102.733 159.191 103.053 160.206L102.474 160.336ZM184.115 145.118L183.671 144.708C184.368 143.919 185.111 143.116 185.814 142.311L186.265 142.712C185.556 143.535 184.845 144.333 184.116 145.126L184.115 145.118ZM101.838 153.087L101.236 153.113C101.194 152.053 101.196 150.963 101.26 149.856L101.853 149.887C101.811 150.983 101.792 152.06 101.839 153.095L101.838 153.087ZM188.879 139.648L188.423 139.264C189.114 138.436 189.805 137.608 190.448 136.778L190.913 137.161C190.239 138.003 189.565 138.837 188.88 139.656L188.879 139.648ZM193.402 134.008L192.931 133.635L194.883 131.085L195.361 131.45L193.402 134.008ZM102.306 145.895L101.712 145.799C101.882 144.758 102.088 143.689 102.342 142.612L102.918 142.752C102.647 143.822 102.44 144.884 102.275 145.908L102.306 145.895ZM197.799 128.215L197.314 127.86C197.953 126.998 198.582 126.13 199.211 125.261L199.696 125.617L197.799 128.215ZM103.985 138.886L103.419 138.696C103.739 137.692 104.095 136.658 104.485 135.635L105.047 135.85C104.627 136.885 104.276 137.902 103.955 138.898L103.985 138.886ZM202.049 122.353L201.564 121.998L203.435 119.379L203.919 119.734L202.049 122.353ZM106.629 132.141L106.086 131.891C106.517 130.928 106.994 129.95 107.487 128.971L108.018 129.255C107.461 130.235 106.991 131.204 106.559 132.158L106.629 132.141ZM206.293 116.443L205.801 116.097L207.67 113.47L208.155 113.826L206.293 116.443ZM109.93 125.719L109.412 125.417C109.934 124.531 110.487 123.575 111.067 122.641L111.571 122.961C110.952 123.901 110.372 124.836 109.86 125.737L109.93 125.719ZM210.499 110.555L210.014 110.199C210.636 109.332 211.265 108.464 211.902 107.594L212.387 107.95C211.693 108.833 211.04 109.707 210.429 110.573L210.499 110.555ZM113.765 119.597L113.275 119.259C113.868 118.363 114.49 117.503 115.133 116.617L115.61 116.974C114.904 117.869 114.269 118.754 113.695 119.615L113.765 119.597ZM214.765 104.748L214.288 104.391C214.926 103.529 215.565 102.668 216.219 101.804L216.69 102.178L214.765 104.748ZM219.134 98.9831L218.662 98.6093C219.311 97.7626 219.975 96.9138 220.641 96.0729L221.112 96.4467C220.364 97.2746 219.706 98.1144 219.058 98.961L219.134 98.9831ZM223.621 93.3159L223.164 92.9319C223.855 92.1037 224.547 91.2755 225.237 90.4393L225.703 90.8301L223.621 93.3159ZM228.272 87.7886L227.813 87.3886C228.508 86.5844 229.203 85.7801 229.898 84.9758L230.348 85.3768C229.595 86.1649 228.89 86.9543 228.195 87.7586L228.272 87.7886ZM233.079 82.3942L232.643 81.983C233.341 81.2026 234.095 80.4146 234.841 79.6356L235.27 80.0479L233.079 82.3942ZM238.063 77.1704L237.633 76.7421C238.383 75.9871 239.14 75.223 239.913 74.4647L240.329 74.9032C239.487 75.6304 238.729 76.3865 237.987 77.1404L238.063 77.1704ZM243.217 72.1184L242.808 71.6709C243.578 70.9456 244.363 70.2101 245.157 69.4815L245.557 69.9222C244.687 70.6287 243.909 71.3551 243.139 72.0804L243.217 72.1184ZM248.539 67.2381L248.146 66.7884C248.935 66.0849 249.748 65.378 250.569 64.6701L250.955 65.1289C250.058 65.8068 249.251 66.5046 248.462 67.2081L248.539 67.2381ZM254.024 62.5466L253.637 62.0799C254.454 61.4049 255.288 60.7278 256.129 60.0496L256.502 60.5266C255.591 61.1657 254.757 61.8428 253.948 62.5166L254.024 62.5466ZM259.648 58.0393L259.283 57.5613C260.128 56.907 260.974 56.2607 261.839 55.5792L262.196 56.0583C261.301 56.7032 260.409 57.3641 259.572 58.0093L259.648 58.0393ZM265.427 53.7139L265.068 53.2188C265.932 52.5942 266.797 51.9697 267.687 51.3498L268.03 51.8471C267.072 52.4359 266.199 53.0615 265.35 53.6839L265.427 53.7139ZM271.302 49.5621L270.966 49.0637C271.842 48.462 272.728 47.8672 273.629 47.2701L273.964 47.7686C273.042 48.3279 272.118 48.9362 271.241 49.5299L271.302 49.5621ZM277.313 45.5785L276.992 45.0699L279.705 43.3507L280.026 43.8593L277.313 45.5785ZM283.436 41.7584L283.122 41.2407C284.038 40.6905 284.958 40.1722 285.886 39.5958L286.184 40.1157L283.436 41.7584Z" fill="#005795"/>
<path d="M290.314 38.4909L290.06 37.8542L291.751 37.1903L292.006 37.8178L290.314 38.4909Z" fill="#263238"/>
<path d="M288.148 27.1229L282.137 43.6301L294.76 33.7804L342.999 16.2819L288.148 27.1229Z" fill="#FFC727"/>
<path opacity="0.1" d="M288.148 27.1229L282.137 43.6301L294.76 33.7804L342.999 16.2819L288.148 27.1229Z" fill="white"/>
<path d="M296.37 37.6268L282.137 43.6294L294.76 33.7797L296.37 37.6268Z" fill="#C08000"/>
<path d="M294.761 33.7804L343 16.2819L303.428 54.8986L294.761 33.7804Z" fill="#FCAF17"/>
<path d="M288.149 27.1226L268.104 14.1807L343 16.2816L288.149 27.1226Z" fill="#FCAF17"/>
<path d="M24.0971 158.95C24.0971 158.064 24.0463 157.187 24.0371 156.32L24.1663 156.449C22.0716 156.472 19.9724 156.523 17.8777 156.528L11.5891 156.555L11.8244 156.32V161.635L11.6122 161.423C12.6457 161.423 13.6792 161.423 14.7219 161.451L17.8223 161.483L24.1663 161.617L24.0971 158.95ZM17.9331 161.764L14.768 161.82C13.7115 161.82 12.6503 161.82 11.5891 161.847H11.363V161.635V156.32V156.08H11.603L17.8916 156.112C19.9862 156.112 22.0855 156.163 24.1801 156.191H24.2817V156.32C24.2817 157.22 24.2401 158.119 24.2217 159.005L24.1525 161.635L17.9331 161.764Z" fill="#EBEBEB"/>
<path d="M17.0851 165.635C17.062 164.749 17.0297 163.877 17.0205 163.005L17.1497 163.134C15.055 163.162 12.9604 163.213 10.8611 163.213L4.57251 163.245L4.81243 163.005L4.78475 168.32L4.57251 168.108C5.61061 168.108 6.6441 168.108 7.68221 168.136L10.8057 168.191L17.1497 168.32L17.0851 165.635ZM10.9026 168.468L7.73757 168.519C6.68101 168.542 5.61984 168.519 4.55867 168.546H4.34644V168.329V163.014V162.779H4.58635L10.8749 162.807C12.9742 162.807 15.0689 162.862 17.1635 162.885H17.2973V163.01C17.2973 163.933 17.2558 164.809 17.2374 165.695L17.1682 168.325L10.9026 168.468Z" fill="#EBEBEB"/>
<path d="M31.1151 165.635C31.1151 164.749 31.0597 163.877 31.0505 163.005L31.1843 163.134C29.085 163.162 26.9904 163.213 24.8957 163.213L18.6071 163.245L18.8424 163.005L18.8147 168.32L18.6071 168.108C19.6406 168.108 20.6741 168.108 21.7122 168.135L24.8403 168.191L31.1843 168.32L31.1151 165.635ZM24.9465 168.454L21.786 168.505C20.7294 168.528 19.6637 168.505 18.6071 168.532H18.3949V168.315L18.3672 163V162.765H18.6071L24.8957 162.793C26.9904 162.793 29.085 162.848 31.1843 162.871H31.3135V162.996C31.3135 163.918 31.272 164.795 31.2489 165.681L31.1843 168.311L24.9465 168.454Z" fill="#EBEBEB"/>
<path d="M190.753 165.635C190.73 164.749 190.698 163.877 190.688 163.005L190.818 163.134C188.723 163.162 186.624 163.213 184.529 163.213L178.24 163.245L178.476 163.005L178.453 168.32L178.24 168.108C179.279 168.108 180.312 168.108 181.35 168.135L184.474 168.191L190.818 168.32L190.753 165.635ZM184.584 168.454L181.419 168.505C180.363 168.528 179.302 168.505 178.24 168.532H178.028V168.315L178.005 163V162.765H178.245L184.534 162.793C186.628 162.793 188.728 162.848 190.822 162.871H190.956V162.996C190.956 163.918 190.915 164.795 190.896 165.681L190.827 168.311L184.584 168.454Z" fill="#EBEBEB"/>
<path d="M183.735 25.3755C183.712 24.4896 183.68 23.6176 183.67 22.7456L183.8 22.8748C181.705 22.8979 179.61 22.9486 177.511 22.9533L171.222 22.9809L171.462 22.7456L171.435 28.0607L171.222 27.8485C172.261 27.8485 173.294 27.8485 174.332 27.8762L177.46 27.9269L183.8 28.0607L183.735 25.3755ZM177.566 28.1945L174.406 28.2453C173.345 28.2683 172.284 28.2453 171.222 28.273H171.001V28.0607V22.7641V22.5242H171.236L177.525 22.5519C179.624 22.5519 181.719 22.6072 183.813 22.6303H183.92V22.7595C183.92 23.6592 183.878 24.5589 183.855 25.4447L183.786 28.0746L177.566 28.1945Z" fill="#D5E1EA"/>
<path d="M190.753 32.0937C190.73 31.2124 190.698 30.3358 190.688 29.4684L190.818 29.5976C188.723 29.5976 186.624 29.6714 184.529 29.6714L178.24 29.7037L178.476 29.4684L178.453 34.7789L178.24 34.5713C179.279 34.5713 180.312 34.5713 181.35 34.5713L184.474 34.6266L190.818 34.7558L190.753 32.0937ZM184.584 34.9127L181.419 34.968C180.363 34.968 179.302 34.968 178.24 34.968H178.028V34.7512L178.005 29.4407V29.2008H178.245L184.534 29.2331C186.628 29.2331 188.728 29.2839 190.822 29.3069H190.956V29.4361C190.956 30.3358 190.915 31.2309 190.896 32.1213L190.841 34.7789L184.584 34.9127Z" fill="#D5E1EA"/>
<path d="M17.0851 25.3991C17.062 24.5133 17.0297 23.6412 17.0205 22.7692L17.1497 22.8984C15.055 22.9261 12.9604 22.9769 10.8611 22.9769L4.57251 23.0092L4.81243 22.7692L4.78475 28.0843L4.57251 27.8721C5.61061 27.8721 6.6441 27.8721 7.68221 27.8998L10.8057 27.9505L17.1497 28.0843L17.0851 25.3991ZM10.9026 28.2181L7.73757 28.2689C6.68101 28.2689 5.61984 28.2689 4.55867 28.2966H4.34644V28.0843V22.7692V22.5339H4.58635L10.8749 22.5616C12.9742 22.5616 15.0689 22.617 17.1635 22.6401H17.2973V22.7692C17.2973 23.692 17.2558 24.5686 17.2374 25.4545L17.1682 28.0843L10.9026 28.2181Z" fill="#D5E1EA"/>
<path d="M36.8965 55.9836C36.8965 56.8695 36.9518 57.7415 36.9611 58.6135L36.8319 58.4843C38.9265 58.4613 41.0212 58.4105 43.1205 58.4059L49.4091 58.3782L49.1692 58.6135L49.1968 53.2984L49.4091 53.5107C48.371 53.5107 47.3375 53.5107 46.2994 53.483L43.1758 53.4322L36.8319 53.2984L36.8965 55.9836ZM43.0651 53.1646L46.2302 53.1139C47.2867 53.0908 48.3479 53.1139 49.4091 53.0862H49.6167V53.2984L49.6582 58.595V58.835H49.4229L43.1343 58.8073C41.035 58.8073 38.9404 58.7519 36.8457 58.7288H36.7119V58.595C36.7119 57.6723 36.7488 56.7957 36.7719 55.9098L36.8411 53.28L43.0651 53.1646Z" fill="#D5E1EA"/>
<path d="M43.9141 49.2845C43.9141 50.1658 43.9695 51.0424 43.9787 51.9098L43.8449 51.7806C45.9442 51.7806 48.0389 51.7068 50.1335 51.7068L56.4221 51.6745L56.1868 51.9098L56.2145 46.5993L56.4221 46.8069C55.3886 46.8069 54.3551 46.8069 53.317 46.8069L50.1889 46.7516L43.8449 46.5993L43.9141 49.2845ZM50.0828 46.4655L53.2432 46.4102C54.2998 46.4102 55.3656 46.4102 56.4221 46.4102H56.6344V46.5993L56.662 51.9098V52.1359H56.4221H50.1197C48.025 52.1359 45.9304 52.0851 43.8311 52.0621H43.7019V51.9329C43.7019 51.0101 43.7434 50.1381 43.7665 49.2476L43.8311 46.6224L50.0828 46.4655Z" fill="#D5E1EA"/>
<path d="M19.3501 98.3755C19.3501 99.2613 19.4055 100.133 19.4147 101.005L19.2855 100.876C21.3802 100.848 23.4748 100.798 25.5741 100.798L31.8627 100.765L31.6228 101.005L31.6643 95.6903L31.8765 95.9025C30.8384 95.9025 29.805 95.9025 28.7668 95.8748L25.6433 95.8241L19.2993 95.6903L19.3501 98.3755ZM25.5187 95.5565L28.6838 95.5057C29.7404 95.4826 30.8015 95.5057 31.8627 95.478H32.0749V95.6903V101.005V101.241H31.835L25.5464 101.213C23.4471 101.213 21.3525 101.158 19.2578 101.135H19.124V101.005C19.124 100.083 19.1655 99.206 19.184 98.3201L19.2532 95.6903L25.5187 95.5565Z" fill="#EBEBEB"/>
<path d="M5.45809 112.627C5.50884 112.798 5.52518 112.977 5.50618 113.154C5.48717 113.331 5.4332 113.503 5.34737 113.659C5.26154 113.816 5.14558 113.953 5.00619 114.064C4.8668 114.175 4.70675 114.258 4.53533 114.306L5.02901 115.949C5.37163 115.846 5.74129 115.882 6.05668 116.052C6.37206 116.221 6.60733 116.508 6.71073 116.851C6.81413 117.194 6.77719 117.563 6.60803 117.879C6.43887 118.194 6.15136 118.429 5.80874 118.533L6.30241 120.18C6.64503 120.076 7.0147 120.113 7.33008 120.282C7.64547 120.452 7.88074 120.739 7.98414 121.082C8.08754 121.424 8.05059 121.794 7.88144 122.109C7.71228 122.425 7.42477 122.66 7.08214 122.763L7.57582 124.411C7.91844 124.308 8.28786 124.345 8.60282 124.515C8.91777 124.685 9.15245 124.972 9.25524 125.315C9.35802 125.658 9.3205 126.027 9.15091 126.342C8.98132 126.657 8.69356 126.892 8.35093 126.994L8.84461 128.637C9.18562 128.541 9.55069 128.583 9.86126 128.753C10.1718 128.923 10.4031 129.209 10.5053 129.548C10.6075 129.887 10.5724 130.253 10.4077 130.567C10.2429 130.88 9.96163 131.117 9.62434 131.225L10.1365 132.877C10.4791 132.774 10.8485 132.812 11.1635 132.981C11.4784 133.151 11.7131 133.439 11.8159 133.781C11.9187 134.124 11.8811 134.493 11.7116 134.808C11.542 135.123 11.2542 135.358 10.9116 135.461L11.3453 136.896L12.8632 136.434C12.8123 136.264 12.7953 136.086 12.8132 135.91C12.8311 135.734 12.8836 135.563 12.9676 135.407C13.1371 135.092 13.4249 134.858 13.7675 134.755C14.1101 134.652 14.4796 134.689 14.7945 134.859C15.1095 135.029 15.3442 135.316 15.4469 135.659L17.0895 135.161C17.0386 134.991 17.0216 134.813 17.0395 134.637C17.0574 134.461 17.1098 134.29 17.1938 134.134C17.2778 133.978 17.3916 133.84 17.5289 133.728C17.6661 133.616 17.8241 133.532 17.9938 133.481C18.1634 133.43 18.3414 133.413 18.5176 133.431C18.6938 133.449 18.8648 133.502 19.0208 133.586C19.1767 133.67 19.3146 133.783 19.4265 133.921C19.5385 134.058 19.6223 134.216 19.6732 134.386L21.3157 133.892C21.2197 133.551 21.2614 133.186 21.4318 132.875C21.6023 132.565 21.8878 132.333 22.227 132.231C22.5662 132.129 22.932 132.164 23.2456 132.329C23.5593 132.494 23.7957 132.775 23.904 133.112L25.5465 132.619C25.4956 132.449 25.4787 132.271 25.4966 132.095C25.5145 131.918 25.5669 131.747 25.6509 131.592C25.7348 131.436 25.8487 131.298 25.986 131.186C26.1232 131.074 26.2812 130.99 26.4508 130.939C26.6205 130.888 26.7985 130.871 26.9747 130.889C27.1509 130.907 27.3219 130.959 27.4778 131.043C27.6338 131.127 27.7717 131.241 27.8836 131.379C27.9956 131.516 28.0794 131.674 28.1303 131.843L29.7774 131.345C29.7265 131.175 29.7095 130.997 29.7274 130.821C29.7453 130.645 29.7977 130.474 29.8817 130.318C30.0513 130.003 30.3391 129.768 30.6817 129.666C31.0243 129.563 31.3937 129.6 31.7087 129.77C32.0236 129.94 32.2583 130.227 32.3611 130.57L33.879 130.109L33.4453 128.674C33.2757 128.725 33.0977 128.742 32.9215 128.724C32.7453 128.706 32.5743 128.653 32.4183 128.569C32.2624 128.485 32.1245 128.372 32.0126 128.234C31.9006 128.097 31.8168 127.939 31.7659 127.769C31.715 127.6 31.698 127.422 31.716 127.246C31.7339 127.069 31.7863 126.898 31.8703 126.742C31.9542 126.586 32.0681 126.449 32.2054 126.337C32.3426 126.225 32.5006 126.141 32.6702 126.09L32.1766 124.448C31.8355 124.544 31.4705 124.502 31.1599 124.331C30.8493 124.161 30.6181 123.875 30.5159 123.536C30.4137 123.197 30.4488 122.831 30.6135 122.518C30.7783 122.204 31.0595 121.968 31.3968 121.859L30.9031 120.217C30.7335 120.268 30.5555 120.285 30.3793 120.267C30.2031 120.249 30.0321 120.196 29.8761 120.112C29.7202 120.028 29.5823 119.914 29.4704 119.777C29.3584 119.64 29.2746 119.482 29.2237 119.312C29.1728 119.143 29.1558 118.965 29.1738 118.788C29.1917 118.612 29.2441 118.441 29.3281 118.285C29.412 118.129 29.5259 117.992 29.6632 117.88C29.8004 117.768 29.9584 117.684 30.128 117.633L29.6344 115.99C29.4647 116.042 29.2866 116.059 29.1103 116.041C28.934 116.024 28.7628 115.971 28.6067 115.888C28.4505 115.804 28.3124 115.69 28.2002 115.553C28.0879 115.416 28.0038 115.258 27.9526 115.088C27.9014 114.919 27.8841 114.741 27.9018 114.564C27.9194 114.388 27.9716 114.217 28.0553 114.061C28.1391 113.905 28.2528 113.766 28.3899 113.654C28.5271 113.542 28.685 113.458 28.8546 113.407L28.3609 111.76C28.0183 111.863 27.6487 111.826 27.3333 111.657C27.0179 111.488 26.7826 111.2 26.6792 110.858C26.5758 110.515 26.6128 110.145 26.7819 109.83C26.9511 109.515 27.2386 109.279 27.5812 109.176L27.0875 107.533C26.7449 107.636 26.3755 107.599 26.0605 107.429C25.7456 107.259 25.5109 106.972 25.4081 106.629C25.3053 106.286 25.3429 105.917 25.5125 105.602C25.682 105.287 25.9698 105.052 26.3124 104.95L25.851 103.464L24.3331 103.925C24.423 104.263 24.3779 104.623 24.2072 104.929C24.0366 105.234 23.7539 105.461 23.4189 105.562C23.0839 105.662 22.7228 105.629 22.4121 105.468C22.1014 105.307 21.8654 105.032 21.754 104.7L20.1299 105.194C20.2198 105.532 20.1747 105.892 20.0041 106.197C19.8334 106.503 19.5507 106.73 19.2157 106.831C18.8807 106.931 18.5196 106.898 18.2089 106.737C17.8982 106.576 17.6622 106.301 17.5508 105.969L15.8991 106.468C15.95 106.637 15.9671 106.814 15.9494 106.99C15.9318 107.165 15.8797 107.336 15.7961 107.491C15.7126 107.647 15.5992 107.784 15.4625 107.896C15.3258 108.008 15.1685 108.091 14.9994 108.142C14.8304 108.193 14.653 108.21 14.4773 108.193C14.3016 108.175 14.1312 108.123 13.9757 108.039C13.8202 107.956 13.6826 107.842 13.5709 107.706C13.4592 107.569 13.3755 107.412 13.3246 107.243L11.6729 107.741C11.7627 108.079 11.7176 108.439 11.547 108.744C11.3764 109.05 11.0936 109.277 10.7586 109.377C10.4236 109.478 10.0626 109.444 9.75185 109.284C9.44114 109.123 9.20514 108.848 9.09376 108.516L7.44202 109.01C7.5448 109.351 7.50776 109.719 7.33904 110.034C7.17031 110.348 6.88373 110.582 6.54233 110.685C6.20093 110.787 5.83268 110.75 5.51859 110.582C5.20451 110.413 4.97031 110.126 4.86752 109.785L3.34497 110.246L3.80635 111.732C4.14399 111.638 4.50495 111.679 4.81311 111.846C5.12126 112.013 5.35251 112.293 5.45809 112.627Z" fill="#D5E1EA"/>
<path d="M14.0883 131.083L28.3726 126.786L23.1061 109.277L8.82185 113.573L14.0883 131.083Z" fill="#EAF1F6"/>
<path d="M150.77 54.622L144.517 81.0348L186.167 90.896L192.421 64.4832L150.77 54.622Z" fill="#EAF1F6"/>
<path d="M192.408 64.473C190.346 65.6818 188.256 66.8168 186.198 68.0025C184.141 69.1882 182.046 70.3094 179.96 71.4167C177.786 72.5886 175.611 73.7482 173.437 74.8955L173.238 75.0109L167.457 78.0375L167.171 78.1759L166.986 77.9268C165.713 76.1581 164.444 74.3895 163.18 72.6209C163.134 72.5655 163.092 72.5009 163.046 72.4364C161.61 70.434 160.184 68.4177 158.769 66.3877C157.417 64.4591 156.07 62.5075 154.732 60.5512C153.394 58.595 152.061 56.6203 150.76 54.6133C152.222 56.4173 153.639 58.2812 155.074 60.1129C156.509 61.9446 157.92 63.804 159.323 65.7048C160.892 67.781 162.453 69.8819 164.006 72.0073L167.494 76.7641C169.243 75.8413 170.996 74.9601 172.74 74.0789C175.107 72.8977 177.46 71.6982 179.767 70.5355C181.861 69.4974 183.961 68.4639 186.064 67.4535C188.168 66.443 190.295 65.428 192.408 64.473Z" fill="white"/>
<path d="M163.928 72.6256C163.905 72.6256 163.891 72.6487 163.868 72.6579L163.079 73.0547C161.824 73.6914 160.555 74.282 159.273 74.8448C157.709 75.5415 156.122 76.1921 154.53 76.8334C152.938 77.4747 151.337 78.0653 149.718 78.6328C148.098 79.2003 146.488 79.7447 144.809 80.2061C146.336 79.3987 147.891 78.6743 149.455 77.9822C151.019 77.2902 152.615 76.635 154.202 75.9937C155.789 75.3524 157.4 74.7433 159.005 74.1897C160.297 73.7283 161.603 73.2992 162.922 72.9117L163.845 72.6441L163.928 72.6256Z" fill="white"/>
<path d="M186.258 90.0152C184.98 88.8617 183.762 87.6437 182.567 86.4118C181.372 85.1799 180.219 83.9111 179.07 82.6423C177.921 81.3735 176.805 80.0678 175.72 78.739C174.83 77.664 173.958 76.5706 173.132 75.4448C172.947 75.2049 172.777 74.9834 172.601 74.725C172.601 74.725 172.578 74.6835 172.56 74.6697L172.615 74.7158L173.321 75.371C174.327 76.2937 175.291 77.2811 176.246 78.2684C177.441 79.5003 178.595 80.7645 179.739 82.0425C180.883 83.3205 182.004 84.617 183.088 85.9458C184.173 87.2746 185.257 88.6126 186.258 90.0152Z" fill="white"/>
<path d="M163.928 22.7693H126.694V46.3827H163.928V22.7693Z" fill="#EAF1F6"/>
<path d="M163.928 22.7689C162.424 24.2084 160.892 25.5834 159.374 26.9998C157.856 28.4162 156.319 29.7681 154.76 31.1522C153.154 32.5871 151.53 33.9989 149.934 35.4061L149.791 35.5445L145.5 39.2679L145.288 39.4432L145.08 39.2679L140.817 35.5261L140.665 35.3923C139.05 34.0081 137.435 32.5732 135.834 31.1337C134.302 29.7496 132.771 28.3655 131.244 26.9813C129.716 25.5972 128.198 24.19 126.694 22.7505C128.291 23.9824 129.864 25.2788 131.447 26.543C133.029 27.8072 134.598 29.1314 136.166 30.4509C137.91 31.8935 139.653 33.3591 141.394 34.8478C142.7 35.9505 144.001 37.0625 145.302 38.1698C146.603 37.0625 147.904 35.9413 149.205 34.8478C150.943 33.3714 152.685 31.9058 154.432 30.4509C155.995 29.1498 157.567 27.8595 159.148 26.5799C160.758 25.2973 162.327 23.9916 163.928 22.7689Z" fill="white"/>
<path d="M141.473 35.3788C141.473 35.3788 141.445 35.4065 141.427 35.4157C141.233 35.5864 141.035 35.7525 140.841 35.914C139.918 36.7029 138.949 37.4596 137.98 38.1886C136.795 39.1113 135.581 39.9603 134.359 40.8231C133.136 41.6858 131.904 42.5071 130.668 43.3099C129.431 44.1127 128.139 44.9063 126.824 45.6168C127.955 44.6294 129.131 43.7067 130.312 42.807C131.493 41.9073 132.716 41.0307 133.929 40.1725C135.143 39.3143 136.393 38.4839 137.648 37.6765C138.649 37.0351 139.669 36.403 140.707 35.8079C140.947 35.6695 141.192 35.5357 141.436 35.4019L141.473 35.3788Z" fill="white"/>
<path d="M163.84 45.6258C162.525 44.9061 161.247 44.1171 159.997 43.3189C158.747 42.5207 157.51 41.6764 156.278 40.8321C155.046 39.9878 153.847 39.1065 152.661 38.1976C151.692 37.4686 150.737 36.7166 149.81 35.9276C149.607 35.7615 149.413 35.5954 149.215 35.4247L149.173 35.3878C149.19 35.3998 149.209 35.4091 149.228 35.4155L149.953 35.8261C150.996 36.4213 152.006 37.0534 153.012 37.6947C154.271 38.5021 155.503 39.3418 156.726 40.1908C157.949 41.0397 159.157 41.9163 160.343 42.8253C161.529 43.7342 162.696 44.6385 163.84 45.6258Z" fill="white"/>
<path d="M20.495 0H20.1074V36.6058H20.495V0Z" fill="#D5E1EA"/>
<path d="M36.338 52.067L35.0461 54.9045H5.54555L4.2583 52.067L16.8217 43.3746H23.7793L36.338 52.067Z" fill="#EAF1F6"/>
<path d="M24.6513 35.0004L23.7793 43.3744H16.8217L15.9497 35.0004H24.6513Z" fill="#D5E1EA"/>
<path d="M36.338 52.0713L35.0461 54.9042H5.54555L4.2583 52.0713H36.338Z" fill="#D5E1EA"/>
<path d="M54.9317 0H54.5442V27.4567H54.9317V0Z" fill="#D5E1EA"/>
<path d="M70.7758 42.9176L69.4839 45.7551H39.9833L38.7007 42.9176L51.2594 34.2252H58.217L70.7758 42.9176Z" fill="#EAF1F6"/>
<path d="M59.0893 25.8511L58.2173 34.2251H51.2597L50.3877 25.8511H59.0893Z" fill="#D5E1EA"/>
<path d="M70.7748 42.922L69.4829 45.7549H39.9823L38.6951 42.922H70.7748Z" fill="#D5E1EA"/>
<path d="M19.2895 144.199C19.6105 146.432 19.4945 148.706 18.9481 150.894C18.6921 151.907 18.3494 152.897 17.9238 153.851C17.3932 155.074 16.8349 156.269 16.9687 157.612C17.0979 157.695 16.655 157.681 16.6412 157.552C13.0609 155.512 8.47014 155.139 5.7157 151.808C4.47169 150.185 3.68614 148.259 3.44111 146.229C3.03138 143.998 3.07532 141.707 3.57029 139.493C4.03167 137.675 5.10669 135.927 6.79995 135.036C8.49321 134.146 10.9016 134.197 12.7471 134.769C16.7334 136.015 18.7451 140.328 19.2895 144.199Z" fill="#FCAF17"/>
<path d="M21.1265 170.71C20.6375 169.08 20.1453 167.453 19.6501 165.829C18.6674 162.646 17.6431 159.476 16.5174 156.343C15.8407 154.47 15.1255 152.612 14.372 150.77C14.4555 149.61 14.5987 148.455 14.801 147.309C15.1009 145.925 15.5346 144.583 15.9406 143.221C15.9406 143.138 15.8299 143.097 15.793 143.175C14.9902 145.044 13.9475 147.438 13.9152 149.658C13.0416 147.572 12.1035 145.519 11.1008 143.498C10.9871 141.787 11.0397 140.069 11.2576 138.368C11.2592 138.36 11.2591 138.352 11.2575 138.344C11.2559 138.336 11.2527 138.329 11.2482 138.322C11.2437 138.315 11.238 138.31 11.2313 138.305C11.2246 138.301 11.2171 138.298 11.2092 138.296C11.2013 138.295 11.1932 138.295 11.1854 138.296C11.1775 138.298 11.17 138.301 11.1634 138.306C11.1568 138.31 11.1511 138.316 11.1467 138.323C11.1423 138.329 11.1392 138.337 11.1377 138.345C10.8336 139.833 10.7158 141.353 10.787 142.871C10.0165 141.353 9.20912 139.853 8.34634 138.377C8.26791 138.243 8.08336 138.377 8.15256 138.511C9.49671 141.101 10.7517 143.738 11.9174 146.423C10.2682 145 8.36245 143.903 6.30243 143.194C6.21477 143.162 6.14556 143.291 6.23784 143.328C8.48625 144.292 10.5429 145.654 12.3096 147.346C13.1493 149.309 13.9506 151.286 14.7134 153.28C12.4757 151.083 9.40751 149.639 6.44546 148.864C6.34396 148.864 6.31627 148.993 6.41316 149.021C9.84582 150.055 12.5126 152.002 15.1194 154.336C15.4239 155.144 15.7192 155.951 16.0145 156.763C17.1156 159.839 18.1676 162.924 19.1703 166.018C19.6563 167.51 20.13 169 20.5913 170.489C21.0942 172.095 21.4864 173.788 22.137 175.338C22.1969 175.486 22.4645 175.453 22.4322 175.278C22.0759 173.734 21.6401 172.21 21.1265 170.71Z" fill="#051944"/>
<path d="M15.1879 141.066C14.5489 142.047 14.1113 143.145 13.9006 144.296C13.9006 144.324 13.9375 144.342 13.9514 144.296C14.3463 143.218 14.8085 142.165 15.3355 141.145C15.4001 141.039 15.2479 140.974 15.1879 141.066Z" fill="#051944"/>
<path d="M8.80292 148.527C7.80183 147.971 6.70712 147.604 5.57327 147.443C5.54097 147.443 5.52251 147.485 5.57327 147.494C6.09001 147.711 6.62982 147.858 7.1558 148.061C7.68177 148.264 8.18929 148.523 8.71987 148.693C8.7419 148.704 8.7674 148.706 8.79076 148.698C8.81412 148.691 8.83343 148.674 8.84444 148.652C8.85546 148.63 8.85727 148.604 8.84948 148.581C8.84169 148.558 8.82495 148.538 8.80292 148.527Z" fill="#051944"/>
<path d="M7.00388 139.553C6.68115 139.308 6.33498 139.094 5.97039 138.917C5.95902 138.913 5.94676 138.913 5.93545 138.917C5.92413 138.921 5.91437 138.928 5.90762 138.938C5.90087 138.948 5.8975 138.96 5.898 138.972C5.8985 138.983 5.90286 138.995 5.91041 139.004C6.22783 139.258 6.56933 139.481 6.93006 139.669C6.99465 139.705 7.06847 139.595 7.00388 139.553Z" fill="#051944"/>
<path d="M31.3591 156.361C28.78 157.122 26.187 157.833 23.6079 158.59C23.3865 158.654 19.0264 150.285 20.6043 146.003C21.3551 144.054 22.5317 142.296 24.0483 140.86C25.5649 139.423 27.3832 138.343 29.3705 137.698C31.2161 137.076 33.4722 136.55 35.4192 136.979C37.1494 137.362 38.372 138.773 38.9303 140.402C39.6962 142.612 39.4424 145.247 39.0272 147.507C38.6959 149.626 37.8217 151.622 36.4896 153.302C35.1147 154.917 33.3661 155.761 31.3591 156.361Z" fill="#FCAF17"/>
<path opacity="0.1" d="M31.3591 156.361C28.78 157.122 26.187 157.833 23.6079 158.59C23.3865 158.654 19.0264 150.285 20.6043 146.003C21.3551 144.054 22.5317 142.296 24.0483 140.86C25.5649 139.423 27.3832 138.343 29.3705 137.698C31.2161 137.076 33.4722 136.55 35.4192 136.979C37.1494 137.362 38.372 138.773 38.9303 140.402C39.6962 142.612 39.4424 145.247 39.0272 147.507C38.6959 149.626 37.8217 151.622 36.4896 153.302C35.1147 154.917 33.3661 155.761 31.3591 156.361Z" fill="#051944"/>
<path d="M35.0963 148.421C33.461 149.22 31.7637 149.885 30.0211 150.41C28.8651 150.724 27.737 151.133 26.6485 151.633C27.7373 149.206 28.9554 146.83 30.1965 144.477C31.9268 144.044 33.534 143.218 34.8933 142.064C34.9036 142.05 34.909 142.034 34.9087 142.017C34.9084 142 34.9023 141.984 34.8916 141.971C34.8808 141.958 34.866 141.949 34.8495 141.946C34.8331 141.943 34.816 141.945 34.801 141.953C33.4135 142.844 31.9349 143.585 30.3902 144.163C30.7378 143.529 31.0854 142.897 31.433 142.267C31.5345 142.091 31.2899 141.916 31.1746 142.087C29.8102 144.053 28.5771 146.108 27.4836 148.237C27.2089 146.372 27.1208 144.485 27.2206 142.603C27.2206 142.594 27.2167 142.584 27.2098 142.577C27.2028 142.57 27.1934 142.566 27.1837 142.566C27.1739 142.566 27.1645 142.57 27.1576 142.577C27.1506 142.584 27.1467 142.594 27.1467 142.603C26.8244 144.658 26.8462 146.752 27.2113 148.8C26.2886 150.604 25.4812 152.454 24.743 154.336C24.4477 153.21 24.0647 152.103 23.8202 150.968C23.4282 149.344 23.3035 147.668 23.4511 146.004C23.4511 145.958 23.3819 145.953 23.3727 146.004C22.9187 149.084 23.2929 152.229 24.4569 155.116C24.0232 156.242 23.6126 157.372 23.2389 158.507C21.2938 164.287 20.1421 170.305 19.8154 176.395C19.8206 176.42 19.8342 176.442 19.854 176.458C19.8737 176.474 19.8984 176.483 19.9239 176.483C19.9493 176.483 19.974 176.474 19.9938 176.458C20.0135 176.442 20.0271 176.42 20.0323 176.395C20.7103 170.385 22.0012 164.461 23.8848 158.715C24.6322 156.468 25.495 154.285 26.4362 152.145C27.9588 151.683 29.4767 151.083 30.9716 150.562C32.4688 150.116 33.8814 149.423 35.1517 148.514C35.2024 148.472 35.1471 148.394 35.0963 148.421Z" fill="#051944"/>
<path d="M37.5003 145.994C35.9224 146.557 34.4275 147.342 32.8542 147.909C32.7804 147.937 32.8219 148.052 32.8957 148.038C34.5613 147.692 36.2177 147.18 37.5603 146.087C37.611 146.045 37.5557 145.976 37.5003 145.994Z" fill="#051944"/>
<path d="M24.6231 142.594C24.6231 142.511 24.5216 142.46 24.4939 142.548C24.0648 144.001 23.7649 145.542 24.1848 147.028C24.1848 147.042 24.1906 147.056 24.201 147.067C24.2114 147.077 24.2254 147.083 24.2401 147.083C24.2548 147.083 24.2689 147.077 24.2793 147.067C24.2897 147.056 24.2955 147.042 24.2955 147.028C24.3739 145.524 24.2817 144.07 24.6231 142.594Z" fill="#051944"/>
<path d="M31.1383 139.235C30.6366 139.958 30.3957 140.83 30.4555 141.708C30.4555 141.763 30.5478 141.796 30.5616 141.731C30.7554 140.896 31.0737 140.139 31.3321 139.332C31.3385 139.307 31.3363 139.281 31.3258 139.258C31.3153 139.235 31.2972 139.216 31.2745 139.205C31.2518 139.194 31.2259 139.19 31.2011 139.196C31.1763 139.201 31.1541 139.215 31.1383 139.235Z" fill="#051944"/>
<path d="M0.687016 160.043C1.44368 162.443 3.24306 165.76 6.08515 165.783C7.93067 165.783 9.77619 165.584 11.6217 165.557C13.601 165.529 15.5849 165.534 17.5597 165.649C17.7211 165.649 17.3197 159.72 12.5629 156.832C11.2341 156.02 9.60086 155.766 8.09215 155.448C6.36113 155.035 4.58361 154.851 2.80475 154.899C1.71128 154.94 0.802361 155.171 0.414803 156.283C0.0272441 157.395 0.327141 158.904 0.687016 160.043Z" fill="#FCAF17"/>
<path d="M2.73549 157.04C3.89355 157.339 5.04238 157.681 6.2189 158.05C5.91711 157.724 5.59668 157.416 5.25923 157.127C4.75114 156.731 4.22293 156.361 3.6767 156.02C3.63518 155.988 3.6767 155.905 3.71822 155.928C4.84393 156.392 5.81607 157.165 6.52341 158.156C7.96752 158.617 9.40242 159.139 10.7819 159.706C11.7332 160.096 12.6447 160.577 13.5041 161.141C13.2301 160.54 12.9011 159.965 12.5213 159.425C11.8892 158.608 11.0357 158.151 10.2144 157.579C10.1973 157.569 10.185 157.552 10.1803 157.533C10.1755 157.513 10.1787 157.493 10.1891 157.476C10.1995 157.458 10.2162 157.446 10.2357 157.441C10.2552 157.437 10.2757 157.44 10.2929 157.45C11.1531 157.829 11.9254 158.382 12.5608 159.074C13.1962 159.767 13.6808 160.584 13.9839 161.473C14.9738 162.185 15.8794 163.007 16.683 163.923C19.8296 167.499 22.3072 172.256 22.3164 177.109C22.3164 177.225 22.1319 177.257 22.1088 177.137C21.3019 172.38 19.2302 167.927 16.1109 164.246C15.8848 163.983 15.6495 163.734 15.4188 163.49C14.5562 163.372 13.6872 163.307 12.8166 163.296C11.8062 163.296 10.8004 163.448 9.78997 163.526C8.13362 163.665 6.29733 163.683 4.79785 162.848C4.73326 162.811 4.77478 162.696 4.8486 162.724C8.18899 163.937 11.6909 162.396 15.0405 163.12C13.6113 161.756 11.9361 160.676 10.1037 159.937L9.79459 159.812C7.65379 160.071 5.38842 160.629 3.30298 159.932C3.29155 159.928 3.28228 159.919 3.27692 159.908C3.27156 159.896 3.27049 159.884 3.27389 159.872C3.2773 159.86 3.28496 159.849 3.29542 159.843C3.30588 159.836 3.31842 159.834 3.33066 159.835C5.34689 160.338 7.28007 159.706 9.26861 159.605C7.10475 158.76 4.89474 158.087 2.72164 157.252C2.54171 157.159 2.53709 156.989 2.73549 157.04Z" fill="#051944"/>
<path d="M1.78984 159.176C2.82458 159.309 3.86568 159.388 4.90876 159.411C4.93183 159.411 4.94105 159.448 4.90876 159.453C3.85811 159.648 2.77536 159.58 1.75754 159.254C1.71601 159.217 1.73908 159.144 1.78984 159.176Z" fill="#051944"/>
<path d="M8.83476 157.095C9.41213 157.352 9.93633 157.715 10.3804 158.165C10.4357 158.216 10.3804 158.313 10.3019 158.267C10.039 158.078 9.77136 157.898 9.49914 157.722C9.23949 157.584 8.98836 157.43 8.7471 157.261C8.72507 157.249 8.70856 157.23 8.70121 157.206C8.69385 157.182 8.69625 157.156 8.70788 157.134C8.7195 157.112 8.7394 157.096 8.7632 157.088C8.78699 157.081 8.81273 157.083 8.83476 157.095Z" fill="#051944"/>
<path d="M25.6341 164.819C25.5972 164.897 25.7126 164.971 25.7541 164.888C25.7619 164.901 25.7727 164.912 25.7855 164.92C25.7983 164.928 25.8129 164.933 25.8279 164.934C27.7431 165.391 29.6845 165.73 31.6413 165.949C33.2146 166.087 35.0278 166.175 36.4027 165.262C38.2482 164.025 39.4986 160.722 38.4882 158.618C37.2932 156.122 33.699 157.478 31.895 158.364C29.12 159.721 26.9056 162.003 25.6341 164.819Z" fill="#FCAF17"/>
<path opacity="0.1" d="M25.6341 164.819C25.5972 164.897 25.7126 164.971 25.7541 164.888C25.7619 164.901 25.7727 164.912 25.7855 164.92C25.7983 164.928 25.8129 164.933 25.8279 164.934C27.7431 165.391 29.6845 165.73 31.6413 165.949C33.2146 166.087 35.0278 166.175 36.4027 165.262C38.2482 164.025 39.4986 160.722 38.4882 158.618C37.2932 156.122 33.699 157.478 31.895 158.364C29.12 159.721 26.9056 162.003 25.6341 164.819Z" fill="#051944"/>
<path d="M24.2352 165.972C25.2863 164.958 26.4523 164.071 27.7094 163.328C28.6116 161.896 29.8105 160.673 31.2251 159.743C31.2943 159.697 31.3543 159.803 31.2897 159.854C30.1656 160.756 29.1678 161.805 28.323 162.973C29.7247 162.208 31.1804 161.546 32.6785 160.993C33.2117 160 34.0251 159.185 35.0177 158.65C35.0177 158.65 35.0592 158.65 35.0177 158.682C34.1995 159.303 33.4861 160.05 32.9045 160.897C33.7904 160.564 34.6855 160.26 35.5759 159.974C35.659 159.946 35.6867 160.066 35.6128 160.098C34.0211 160.717 32.3832 161.372 30.8237 162.128C32.7447 162.435 34.7022 162.435 36.6233 162.128C36.674 162.128 36.6971 162.198 36.6233 162.212C34.6187 162.805 32.4899 162.837 30.4685 162.304C29.4639 162.792 28.4887 163.339 27.5479 163.942C28.3404 163.874 29.1386 163.938 29.9102 164.131C31.2712 164.448 32.6651 164.603 34.0626 164.592C34.118 164.592 34.1318 164.675 34.0626 164.685C31.6588 165.1 29.3842 164.006 26.9989 164.292C24.3555 166.075 22.2457 168.542 20.8948 171.43C19.8937 173.469 19.3492 175.633 18.5372 177.746C18.5288 177.762 18.5153 177.775 18.4988 177.782C18.4823 177.789 18.4639 177.79 18.4466 177.785C18.4293 177.78 18.4142 177.77 18.4039 177.755C18.3935 177.74 18.3884 177.723 18.3896 177.705C19.137 173.525 21.204 168.938 24.2352 165.972Z" fill="#051944"/>
<path d="M31.4939 160.264C31.6523 159.981 31.8601 159.728 32.1075 159.517C32.3095 159.298 32.5504 159.118 32.818 158.986C32.818 158.986 32.855 159.009 32.818 159.028C32.6197 159.249 32.3567 159.415 32.1352 159.628C31.9137 159.84 31.743 160.089 31.5262 160.31C31.5208 160.31 31.5157 160.308 31.511 160.306C31.5064 160.303 31.5024 160.299 31.4993 160.295C31.4963 160.291 31.4942 160.286 31.4933 160.28C31.4923 160.275 31.4925 160.27 31.4939 160.264Z" fill="#051944"/>
<path d="M35.457 161.556C35.8169 161.469 36.1953 161.473 36.5551 161.399C36.9158 161.312 37.2715 161.206 37.6209 161.081C37.6313 161.077 37.643 161.077 37.6534 161.081C37.6638 161.085 37.672 161.094 37.6763 161.104C37.6806 161.114 37.6805 161.126 37.6762 161.136C37.6719 161.147 37.6636 161.155 37.6532 161.159C36.9959 161.563 36.2248 161.741 35.457 161.667C35.4017 161.658 35.4063 161.57 35.457 161.556Z" fill="#051944"/>
<path d="M14.3252 172.56L14.6435 176.145L15.7139 188.247H25.1953L26.5333 176.145L26.9301 172.56H14.3252Z" fill="#005795"/>
<path d="M14.3252 172.56L14.6435 176.145H26.5333L26.9301 172.56H14.3252Z" fill="#051944"/>
<path d="M13.3891 174.489H27.8672V171.582H13.3891V174.489Z" fill="#005795"/>
<path d="M98.1292 205.93C123.728 205.93 144.479 204.271 144.479 202.225C144.479 200.179 123.728 198.52 98.1292 198.52C72.5307 198.52 51.7791 200.179 51.7791 202.225C51.7791 204.271 72.5307 205.93 98.1292 205.93Z" fill="#D5E1EA"/>
<path d="M189.457 99.5424H55.494C53.861 99.5424 52.5371 100.866 52.5371 102.499V185.29C52.5371 186.923 53.8609 188.247 55.494 188.247H189.457C191.09 188.247 192.413 186.923 192.413 185.29V102.499C192.413 100.866 191.09 99.5424 189.457 99.5424Z" fill="#3D769E"/>
<path d="M52.5371 102.499C52.5371 100.866 53.861 99.5424 55.494 99.5424H189.452C191.085 99.5424 192.409 100.866 192.409 102.499V117.002C192.409 118.003 191.903 118.936 191.064 119.481L135.35 155.72C131.521 158.211 127.05 159.537 122.482 159.537C117.914 159.537 113.444 158.211 109.614 155.72L53.8821 119.481C53.0432 118.936 52.5371 118.003 52.5371 117.002V102.499Z" fill="#005795"/>
<g opacity="0.1">
<path d="M175.311 176.569C181.004 180.477 186.762 184.279 192.409 188.247C186.411 184.846 180.501 181.275 174.554 177.787C168.607 174.299 162.697 170.71 156.828 167.074C150.725 163.355 144.624 159.587 138.525 155.77L137.745 156.282C136.276 157.3 134.734 158.208 133.131 159C128.109 161.371 122.437 161.993 117.02 160.767C115.236 160.347 113.498 159.754 111.829 158.995C110.227 158.205 108.684 157.296 107.216 156.278L106.45 155.775C100.35 159.58 94.2402 163.354 88.1192 167.097C82.2382 170.687 76.3387 174.25 70.4207 177.787C64.4551 181.275 58.554 184.846 52.5469 188.247C58.1942 184.279 63.9522 180.477 69.6456 176.569C75.379 172.749 81.1339 168.94 86.9104 165.141C92.5731 161.45 98.2434 157.776 103.921 154.119L102.953 153.468L94.4632 147.793L90.2231 144.951L86.0015 142.077C74.7346 134.427 63.5415 126.671 52.5469 118.606C64.3766 125.384 76.008 132.448 87.5702 139.664L91.9071 142.353L96.2256 145.08L104.858 150.538C105.633 151.023 106.399 151.516 107.165 152.01L109.153 153.293C109.361 153.431 109.569 153.565 109.772 153.689C110.912 154.45 112.106 155.129 113.343 155.72C114.778 156.357 116.272 156.853 117.804 157.201C119.343 157.513 120.908 157.677 122.478 157.69C125.632 157.705 128.752 157.036 131.623 155.729C132.86 155.134 134.055 154.455 135.198 153.694C135.401 153.57 135.604 153.436 135.812 153.302L137.777 152.033C138.553 151.535 139.328 151.037 140.112 150.547C145.87 146.921 151.596 143.239 157.395 139.673C168.957 132.475 180.589 125.37 192.414 118.606C181.419 126.666 170.226 134.427 158.959 142.077C153.349 145.929 147.66 149.675 142.013 153.468C141.69 153.685 141.367 153.902 141.039 154.114C146.736 157.768 152.414 161.459 158.074 165.187C163.822 168.924 169.576 172.749 175.311 176.569Z" fill="black"/>
</g>
<path d="M167.578 185.29C167.578 186.923 166.254 188.247 164.621 188.247H30.6634C29.0304 188.247 27.7065 186.923 27.7065 185.29V71.5513C27.7065 70.5393 28.224 69.5977 29.0783 69.0552L96.0482 26.5251C97.0156 25.9108 98.2508 25.9107 99.2182 26.5249L166.206 69.0552C167.061 69.5977 167.578 70.5394 167.578 71.5515V185.29Z" fill="#FCAF17"/>
<path opacity="0.2" d="M160.316 188.03H34.969V73.7649L97.6335 33.9709L160.316 73.7649V188.03Z" fill="#051944"/>
<path d="M162.919 73.0731H32.3713V187.961H162.919V73.0731Z" fill="#EAF1F6"/>
<path d="M52.3209 103.921L118.612 103.921V100.202L52.3209 100.202V103.921Z" fill="#D5E1EA"/>
<path d="M123.848 91.3992H144.232V87.6804H123.848V91.3992Z" fill="#D5E1EA"/>
<path d="M52.3256 113.309L115.055 113.309V109.591L52.3256 109.591V113.309Z" fill="#D5E1EA"/>
<path d="M52.3204 132.088H144.232V128.369H52.3204V132.088Z" fill="#D5E1EA"/>
<path d="M52.3204 141.473H144.232V137.754H52.3204V141.473Z" fill="#DBDBDB"/>
<path d="M52.3204 150.862H144.232V147.143H52.3204V150.862Z" fill="#DBDBDB"/>
<path d="M52.3204 160.246H144.232V156.528H52.3204V160.246Z" fill="#DBDBDB"/>
<path d="M167.578 99.5424V188.242H27.7065V99.5424C33.7045 102.947 39.6147 106.518 45.5619 110.006C51.5091 113.494 57.4055 117.102 63.2881 120.715C69.8397 124.714 76.3867 128.761 82.929 132.859C82.9936 132.817 83.0766 132.775 83.1366 132.734C83.0766 132.775 83.0351 132.835 82.9705 132.877C87.8673 135.928 92.761 138.989 97.6516 142.058C102.528 138.99 107.419 135.904 112.314 132.877C112.25 132.835 112.208 132.775 112.148 132.734C112.212 132.777 112.282 132.811 112.356 132.835C118.889 128.76 125.436 124.714 131.997 120.697C137.881 117.101 143.783 113.538 149.704 110.006C155.67 106.518 161.571 102.947 167.578 99.5424Z" fill="#FCAF17"/>
<g opacity="0.1">
<path d="M167.579 99.5424C161.931 103.515 156.173 107.317 150.48 111.224C144.745 115.045 138.991 118.87 133.215 122.648C127.183 126.598 121.141 130.512 115.087 134.39C114.898 134.52 114.732 134.644 114.543 134.769C109.185 138.192 103.814 141.616 98.4316 145.039L97.6427 145.523L96.8629 145.039C91.4894 141.616 86.1267 138.186 80.7747 134.75C80.5855 134.644 80.3963 134.52 80.2072 134.39C74.1354 130.506 68.0852 126.585 62.0565 122.63C56.3031 118.87 50.5497 115.045 44.8148 111.224C39.1214 107.317 33.3633 103.515 27.7161 99.5424C33.714 102.947 39.6243 106.518 45.5714 110.006C51.5186 113.494 57.415 117.102 63.2976 120.715C69.8492 124.714 76.3962 128.761 82.9385 132.859C82.9385 132.859 82.9385 132.859 82.98 132.859C87.8768 135.91 92.7705 138.97 97.6611 142.04C102.538 138.972 107.429 135.885 112.324 132.859C112.347 132.817 112.347 132.817 112.365 132.817C118.898 128.741 125.445 124.695 132.006 120.678C137.89 117.082 143.793 113.519 149.714 109.988C155.67 106.518 161.571 102.947 167.579 99.5424Z" fill="black"/>
<path d="M83.1374 132.734C83.0775 132.776 83.0359 132.836 82.9714 132.877C82.2378 133.509 81.4995 134.141 80.766 134.75C77.2595 137.712 73.6653 140.545 70.0112 143.3C65.5589 146.718 61.0005 149.948 56.419 153.178C51.8375 156.407 47.1914 159.499 42.4715 162.525C37.7516 165.552 32.9763 168.523 28.0442 171.222C32.2842 167.504 36.695 164.039 41.1473 160.657C45.5996 157.275 50.1811 154.008 54.7349 150.774C59.2888 147.54 63.9625 144.43 68.7055 141.408C72.4657 138.99 76.286 136.619 80.1938 134.39C81.1166 133.864 81.9978 133.361 82.9252 132.859C82.9944 132.817 83.0775 132.776 83.1374 132.734Z" fill="black"/>
<path d="M167.241 171.236C162.309 168.523 157.52 165.561 152.814 162.539C148.108 159.517 143.467 156.361 138.844 153.178C134.221 149.994 129.708 146.718 125.256 143.3C121.62 140.531 118.026 137.731 114.543 134.769C113.786 134.141 113.048 133.509 112.314 132.877C112.25 132.836 112.208 132.776 112.148 132.734C112.212 132.777 112.282 132.811 112.356 132.836C113.279 133.361 114.202 133.864 115.087 134.39C118.995 136.619 122.797 139.004 126.575 141.408C131.323 144.412 135.937 147.581 140.523 150.774C145.109 153.967 149.663 157.266 154.115 160.671C158.567 164.076 163.001 167.517 167.241 171.236Z" fill="black"/>
</g>
<path d="M167.578 188.242H27.7065V169.188L84.7653 132.074C88.5952 129.584 93.0651 128.259 97.6332 128.259C102.201 128.259 106.671 129.584 110.501 132.074L167.578 169.188V188.242Z" fill="#FCAF17"/>
<path d="M0 188.275L24.4116 188.164L48.8185 188.122L97.6417 188.044L146.465 188.122L170.876 188.164L195.283 188.275L170.876 188.39L146.465 188.427L97.6417 188.505L48.8185 188.427L24.4116 188.385L0 188.275Z" fill="#005795"/>
</svg>
