<svg width="20" height="20" viewBox="0 0 20 20" fill="none" xmlns="http://www.w3.org/2000/svg">
<g clip-path="url(#clip0_126_2432)">
<path d="M10 20L3.86473 12.8936C3.77948 12.7869 3.69511 12.6795 3.61164 12.5714C2.56416 11.2153 1.99805 9.55935 2.00001 7.85714C2.00001 5.7733 2.84286 3.7748 4.34315 2.3013C5.84344 0.827804 7.87827 0 10 0C12.1217 0 14.1566 0.827804 15.6569 2.3013C17.1571 3.7748 18 5.7733 18 7.85714C18.0017 9.55854 17.4359 11.2136 16.3891 12.5693L16.3884 12.5714C16.3884 12.5714 16.1702 12.8529 16.1375 12.8907L10 20ZM4.77309 11.7107C4.77309 11.7107 4.94255 11.9307 4.98109 11.9779L10 17.7914L15.0255 11.97C15.0575 11.9307 15.2284 11.7086 15.2284 11.7086C16.0845 10.6008 16.5472 9.24789 16.5455 7.85714C16.5455 6.15218 15.8558 4.51705 14.6283 3.31146C13.4008 2.10587 11.736 1.42857 10 1.42857C8.26404 1.42857 6.59918 2.10587 5.37167 3.31146C4.14416 4.51705 3.45455 6.15218 3.45455 7.85714C3.45276 9.24879 3.91596 10.6026 4.77309 11.7107Z" fill="#FCAF17"/>
<path d="M10 11.4286C9.28079 11.4286 8.57774 11.2191 7.97974 10.8267C7.38174 10.4342 6.91566 9.87646 6.64043 9.22387C6.36521 8.57128 6.2932 7.85318 6.43351 7.16039C6.57381 6.4676 6.92015 5.83123 7.4287 5.33176C7.93725 4.83229 8.58519 4.49214 9.29058 4.35434C9.99596 4.21653 10.7271 4.28726 11.3916 4.55757C12.056 4.82789 12.624 5.28564 13.0235 5.87296C13.4231 6.46028 13.6364 7.15078 13.6364 7.85714C13.6352 8.804 13.2517 9.71175 12.57 10.3813C11.8883 11.0508 10.9641 11.4274 10 11.4286ZM10 5.71429C9.56847 5.71429 9.14664 5.83996 8.78784 6.07542C8.42904 6.31088 8.1494 6.64555 7.98426 7.03711C7.81912 7.42866 7.77592 7.85952 7.8601 8.27519C7.94429 8.69087 8.15208 9.07269 8.45722 9.37237C8.76235 9.67206 9.15111 9.87614 9.57434 9.95883C9.99758 10.0415 10.4363 9.99907 10.8349 9.83689C11.2336 9.6747 11.5744 9.40004 11.8141 9.04765C12.0539 8.69526 12.1818 8.28096 12.1818 7.85714C12.1812 7.289 11.9512 6.74428 11.5421 6.34254C11.1331 5.9408 10.5785 5.71485 10 5.71429Z" fill="#FCAF17"/>
</g>
<defs>
<clipPath id="clip0_126_2432">
<rect width="20" height="20" fill="white"/>
</clipPath>
</defs>
</svg>
