<svg width="20" height="20" viewBox="0 0 20 20" fill="none" xmlns="http://www.w3.org/2000/svg">
<path fill-rule="evenodd" clip-rule="evenodd" d="M1.04167 17.9167C1.04167 17.5715 1.32149 17.2917 1.66667 17.2917H18.3333C18.6785 17.2917 18.9583 17.5715 18.9583 17.9167C18.9583 18.2618 18.6785 18.5417 18.3333 18.5417H1.66667C1.32149 18.5417 1.04167 18.2618 1.04167 17.9167Z" fill="#005795"/>
<path fill-rule="evenodd" clip-rule="evenodd" d="M4.16667 11.875C4.05161 11.875 3.95834 11.9683 3.95834 12.0833V17.0833C3.95834 17.1984 4.05161 17.2917 4.16667 17.2917H5.83334C5.9484 17.2917 6.04167 17.1984 6.04167 17.0833V12.0833C6.04167 11.9683 5.9484 11.875 5.83334 11.875H4.16667ZM2.70834 12.0833C2.70834 11.2779 3.36126 10.625 4.16667 10.625H5.83334C6.63875 10.625 7.29167 11.2779 7.29167 12.0833V17.0833C7.29167 17.8888 6.63875 18.5417 5.83334 18.5417H4.16667C3.36126 18.5417 2.70834 17.8888 2.70834 17.0833V12.0833Z" fill="#005795"/>
<path fill-rule="evenodd" clip-rule="evenodd" d="M4.37501 14.5833C4.37501 14.2382 4.65483 13.9583 5.00001 13.9583H5.41667C5.76185 13.9583 6.04167 14.2382 6.04167 14.5833C6.04167 14.9285 5.76185 15.2083 5.41667 15.2083H5.00001C4.65483 15.2083 4.37501 14.9285 4.37501 14.5833Z" fill="#005795"/>
<path fill-rule="evenodd" clip-rule="evenodd" d="M7.5 2.70834C7.38495 2.70834 7.29167 2.80161 7.29167 2.91667V17.0833C7.29167 17.1984 7.38495 17.2917 7.5 17.2917H15.8333C15.9484 17.2917 16.0417 17.1984 16.0417 17.0833V2.91667C16.0417 2.80161 15.9484 2.70834 15.8333 2.70834H7.5ZM6.04167 2.91667C6.04167 2.11125 6.69459 1.45834 7.5 1.45834H15.8333C16.6388 1.45834 17.2917 2.11125 17.2917 2.91667V17.0833C17.2917 17.8888 16.6388 18.5417 15.8333 18.5417H7.5C6.69459 18.5417 6.04167 17.8888 6.04167 17.0833V2.91667Z" fill="#005795"/>
<path d="M10.8333 4.58334H9.16667V6.25H10.8333V4.58334Z" fill="#005795"/>
<path d="M14.1667 4.58334H12.5V6.25H14.1667V4.58334Z" fill="#005795"/>
<path d="M10.8333 7.5H9.16667V9.16667H10.8333V7.5Z" fill="#005795"/>
<path d="M14.1667 7.5H12.5V9.16667H14.1667V7.5Z" fill="#005795"/>
<path d="M14.1667 10.4167H12.5V12.0833H14.1667V10.4167Z" fill="#005795"/>
<path d="M14.1667 13.3333H12.5V15H14.1667V13.3333Z" fill="#005795"/>
</svg>
