<svg width="21" height="20" viewBox="0 0 21 20" fill="none" xmlns="http://www.w3.org/2000/svg">
<path fill-rule="evenodd" clip-rule="evenodd" d="M1.54199 17.9166C1.54199 17.5714 1.82181 17.2916 2.16699 17.2916H18.8337C19.1788 17.2916 19.4587 17.5714 19.4587 17.9166C19.4587 18.2618 19.1788 18.5416 18.8337 18.5416H2.16699C1.82181 18.5416 1.54199 18.2618 1.54199 17.9166Z" fill="#005795"/>
<path fill-rule="evenodd" clip-rule="evenodd" d="M4.66699 11.8749C4.55193 11.8749 4.45866 11.9682 4.45866 12.0833V17.0833C4.45866 17.1983 4.55193 17.2916 4.66699 17.2916H6.33366C6.44872 17.2916 6.54199 17.1983 6.54199 17.0833V12.0833C6.54199 11.9682 6.44872 11.8749 6.33366 11.8749H4.66699ZM3.20866 12.0833C3.20866 11.2778 3.86158 10.6249 4.66699 10.6249H6.33366C7.13907 10.6249 7.79199 11.2778 7.79199 12.0833V17.0833C7.79199 17.8887 7.13907 18.5416 6.33366 18.5416H4.66699C3.86158 18.5416 3.20866 17.8887 3.20866 17.0833V12.0833Z" fill="#005795"/>
<path fill-rule="evenodd" clip-rule="evenodd" d="M4.87533 14.5833C4.87533 14.2381 5.15515 13.9583 5.50033 13.9583H5.91699C6.26217 13.9583 6.54199 14.2381 6.54199 14.5833C6.54199 14.9284 6.26217 15.2083 5.91699 15.2083H5.50033C5.15515 15.2083 4.87533 14.9284 4.87533 14.5833Z" fill="#005795"/>
<path fill-rule="evenodd" clip-rule="evenodd" d="M8.00033 2.70825C7.88527 2.70825 7.79199 2.80153 7.79199 2.91659V17.0833C7.79199 17.1983 7.88527 17.2916 8.00033 17.2916H16.3337C16.4487 17.2916 16.542 17.1983 16.542 17.0833V2.91659C16.542 2.80153 16.4487 2.70825 16.3337 2.70825H8.00033ZM6.54199 2.91659C6.54199 2.11117 7.19491 1.45825 8.00033 1.45825H16.3337C17.1391 1.45825 17.792 2.11117 17.792 2.91659V17.0833C17.792 17.8887 17.1391 18.5416 16.3337 18.5416H8.00033C7.19491 18.5416 6.54199 17.8887 6.54199 17.0833V2.91659Z" fill="#005795"/>
<path d="M11.3337 4.58325H9.66699V6.24992H11.3337V4.58325Z" fill="#005795"/>
<path d="M14.667 4.58325H13.0003V6.24992H14.667V4.58325Z" fill="#005795"/>
<path d="M11.3337 7.49992H9.66699V9.16659H11.3337V7.49992Z" fill="#005795"/>
<path d="M14.667 7.49992H13.0003V9.16659H14.667V7.49992Z" fill="#005795"/>
<path d="M14.667 10.4166H13.0003V12.0833H14.667V10.4166Z" fill="#005795"/>
<path d="M14.667 13.3333H13.0003V14.9999H14.667V13.3333Z" fill="#005795"/>
</svg>
