<svg width="20" height="20" viewBox="0 0 20 20" fill="none" xmlns="http://www.w3.org/2000/svg">
<g clip-path="url(#clip0_96_567)">
<path d="M10 20L3.86473 12.8935C3.77948 12.7868 3.69511 12.6795 3.61164 12.5714C2.56416 11.2153 1.99805 9.55932 2.00001 7.85711C2.00001 5.77327 2.84286 3.77477 4.34315 2.30127C5.84344 0.827773 7.87827 -3.05176e-05 10 -3.05176e-05C12.1217 -3.05176e-05 14.1566 0.827773 15.6569 2.30127C17.1571 3.77477 18 5.77327 18 7.85711C18.0017 9.55851 17.4359 11.2136 16.3891 12.5693L16.3884 12.5714C16.3884 12.5714 16.1702 12.8528 16.1375 12.8907L10 20ZM4.77309 11.7107C4.77309 11.7107 4.94255 11.9307 4.98109 11.9778L10 17.7914L15.0255 11.97C15.0575 11.9307 15.2284 11.7085 15.2284 11.7085C16.0845 10.6008 16.5472 9.24786 16.5455 7.85711C16.5455 6.15215 15.8558 4.51702 14.6283 3.31143C13.4008 2.10583 11.736 1.42854 10 1.42854C8.26404 1.42854 6.59918 2.10583 5.37167 3.31143C4.14416 4.51702 3.45455 6.15215 3.45455 7.85711C3.45276 9.24876 3.91596 10.6025 4.77309 11.7107Z" fill="#005795"/>
<path d="M10 11.4285C9.28079 11.4285 8.57774 11.2191 7.97974 10.8266C7.38174 10.4342 6.91566 9.87643 6.64043 9.22384C6.36521 8.57125 6.2932 7.85315 6.43351 7.16036C6.57381 6.46757 6.92015 5.8312 7.4287 5.33173C7.93725 4.83226 8.58519 4.49211 9.29058 4.35431C9.99596 4.2165 10.7271 4.28723 11.3916 4.55754C12.056 4.82786 12.624 5.28561 13.0235 5.87293C13.4231 6.46025 13.6364 7.15075 13.6364 7.85711C13.6352 8.80397 13.2517 9.71172 12.57 10.3812C11.8883 11.0508 10.9641 11.4274 10 11.4285ZM10 5.71425C9.56847 5.71425 9.14664 5.83993 8.78784 6.07539C8.42904 6.31085 8.1494 6.64552 7.98426 7.03708C7.81912 7.42863 7.77592 7.85949 7.8601 8.27516C7.94429 8.69084 8.15208 9.07266 8.45722 9.37234C8.76235 9.67203 9.15111 9.87611 9.57434 9.9588C9.99758 10.0415 10.4363 9.99904 10.8349 9.83685C11.2336 9.67467 11.5744 9.40001 11.8141 9.04762C12.0539 8.69523 12.1818 8.28093 12.1818 7.85711C12.1812 7.28897 11.9512 6.74425 11.5421 6.34251C11.1331 5.94077 10.5785 5.71482 10 5.71425Z" fill="#005795"/>
</g>
<defs>
<clipPath id="clip0_96_567">
<rect width="20" height="20" fill="white"/>
</clipPath>
</defs>
</svg>
