<svg width="20" height="20" viewBox="0 0 20 20" fill="none" xmlns="http://www.w3.org/2000/svg">
<path d="M11.9828 6.68444V4.01777C11.9828 3.84096 12.053 3.67139 12.178 3.54637C12.3031 3.42135 12.4726 3.35111 12.6495 3.35111C12.8263 3.35111 12.9958 3.42135 13.1209 3.54637C13.2459 3.67139 13.3161 3.84096 13.3161 4.01777V5.75844C13.7361 5.33577 16.4501 2.60777 16.8448 2.21311C16.9063 2.14943 16.9798 2.09865 17.0612 2.06371C17.1425 2.02877 17.23 2.01038 17.3185 2.00961C17.407 2.00884 17.4948 2.02571 17.5768 2.05923C17.6587 2.09275 17.7331 2.14225 17.7957 2.20484C17.8583 2.26744 17.9078 2.34187 17.9413 2.42381C17.9749 2.50574 17.9917 2.59352 17.991 2.68204C17.9902 2.77056 17.9718 2.85804 17.9369 2.93938C17.9019 3.02071 17.8511 3.09428 17.7875 3.15577C17.3928 3.55044 14.6928 6.26577 14.2755 6.68444H15.9828C16.1596 6.68444 16.3292 6.75468 16.4542 6.8797C16.5792 7.00473 16.6495 7.1743 16.6495 7.35111C16.6495 7.52792 16.5792 7.69749 16.4542 7.82251C16.3292 7.94754 16.1596 8.01777 15.9828 8.01777H13.3161C12.9625 8.01777 12.6234 7.8773 12.3733 7.62725C12.1233 7.3772 11.9828 7.03806 11.9828 6.68444ZM17.3795 13.1771C17.7658 13.5645 17.9827 14.0893 17.9827 14.6364C17.9827 15.1836 17.7658 15.7084 17.3795 16.0958L16.7715 16.7958C11.3108 22.0211 -1.97455 8.73977 3.17145 3.26244L3.93812 2.59577C4.32588 2.22014 4.84594 2.01227 5.38578 2.01713C5.92563 2.022 6.44186 2.23921 6.82279 2.62177C6.84345 2.64177 8.07812 4.24711 8.07812 4.24711C8.4434 4.6328 8.64664 5.14403 8.6459 5.67524C8.64516 6.20645 8.44048 6.71711 8.07412 7.10178L7.30212 8.07244C7.72945 9.11046 8.35762 10.0538 9.15058 10.8484C9.94353 11.6429 10.8856 12.273 11.9228 12.7024L12.8995 11.9258C13.2834 11.5584 13.794 11.3531 14.3253 11.3523C14.8566 11.3516 15.3679 11.5555 15.7528 11.9218C15.7528 11.9218 17.3588 13.1571 17.3795 13.1771ZM16.4628 14.1464C16.4628 14.1464 14.8675 12.9184 14.8468 12.8984C14.7094 12.7623 14.5239 12.6859 14.3305 12.6859C14.137 12.6859 13.9515 12.7623 13.8141 12.8984C13.7961 12.9158 12.4515 13.9878 12.4515 13.9878C12.3608 14.0599 12.253 14.1072 12.1385 14.1249C12.0241 14.1427 11.907 14.1304 11.7988 14.0891C10.4544 13.5889 9.23327 12.8055 8.21818 11.7921C7.20309 10.7786 6.41777 9.5587 5.91545 8.21511C5.87092 8.10541 5.8564 7.98583 5.87339 7.86867C5.89038 7.7515 5.93826 7.64097 6.01212 7.54844C6.01212 7.54844 7.08412 6.20577 7.10212 6.18844C7.2383 6.0511 7.3147 5.86552 7.3147 5.67211C7.3147 5.4787 7.2383 5.29312 7.10212 5.15577C7.08212 5.13577 5.85412 3.53911 5.85412 3.53911C5.71472 3.41411 5.53279 3.34717 5.34562 3.35201C5.15845 3.35684 4.98021 3.43308 4.84745 3.56511L4.08079 4.23177C0.319452 8.75377 11.8341 19.6298 15.7961 15.8871L16.4041 15.1864C16.5475 15.0549 16.6338 14.8726 16.6448 14.6784C16.6557 14.4841 16.5904 14.2933 16.4628 14.1464Z" fill="#005795"/>
</svg>
