<svg width="20" height="20" viewBox="0 0 20 20" fill="none" xmlns="http://www.w3.org/2000/svg">
<path d="M2.73573 5.85475L2.97338 6.45974L2.97347 6.45971L2.73573 5.85475ZM10 3L10.2377 2.39504C10.0849 2.33499 9.91506 2.33499 9.76226 2.39504L10 3ZM17.2643 5.85475L17.0265 6.45971L17.0266 6.45973L17.2643 5.85475ZM10.65 9.26316C10.65 8.90417 10.359 8.61316 10 8.61316C9.64102 8.61316 9.35 8.90417 9.35 9.26316H10.65ZM9.35 12.9474C9.35 13.3064 9.64102 13.5974 10 13.5974C10.359 13.5974 10.65 13.3064 10.65 12.9474H9.35ZM12.9 9.26316C12.9 8.90417 12.609 8.61316 12.25 8.61316C11.891 8.61316 11.6 8.90417 11.6 9.26316H12.9ZM11.6 12.9474C11.6 13.3064 11.891 13.5974 12.25 13.5974C12.609 13.5974 12.9 13.3064 12.9 12.9474H11.6ZM5.5 8.61316C5.14101 8.61316 4.85 8.90417 4.85 9.26316C4.85 9.62214 5.14101 9.91316 5.5 9.91316V8.61316ZM7.75173 9.26316L8.30633 9.60215C8.42896 9.40152 8.43367 9.15031 8.31867 8.94523C8.20366 8.74014 7.98686 8.61316 7.75173 8.61316V9.26316ZM5.5 12.9471L4.94539 12.6081C4.82277 12.8087 4.81805 13.06 4.93306 13.265C5.04807 13.4701 5.26487 13.5971 5.5 13.5971V12.9471ZM7.75173 13.5971C8.11071 13.5971 8.40173 13.3061 8.40173 12.9471C8.40173 12.5881 8.11071 12.2971 7.75173 12.2971V13.5971ZM2.97347 6.45971L10.2377 3.60496L9.76226 2.39504L2.49799 5.24979L2.97347 6.45971ZM9.76226 3.60496L17.0265 6.45971L17.502 5.24979L10.2377 2.39504L9.76226 3.60496ZM17.0266 6.45973C16.9253 6.41994 16.85 6.31884 16.85 6.19679H18.15C18.15 5.77344 17.8879 5.4014 17.502 5.24976L17.0266 6.45973ZM16.85 6.19679V16.6316H18.15V6.19679H16.85ZM16.85 16.6316C16.85 16.4653 16.984 16.35 17.125 16.35V17.65C17.6802 17.65 18.15 17.2048 18.15 16.6316H16.85ZM17.125 16.35H2.875V17.65H17.125V16.35ZM2.875 16.35C3.01598 16.35 3.15 16.4653 3.15 16.6316H1.85C1.85 17.2048 2.31981 17.65 2.875 17.65V16.35ZM3.15 16.6316V6.19679H1.85V16.6316H3.15ZM3.15 6.19679C3.15 6.3188 3.0747 6.41995 2.97338 6.45974L2.49808 5.24975C2.11201 5.4014 1.85 5.77348 1.85 6.19679H3.15ZM9.35 9.26316V12.9474H10.65V9.26316H9.35ZM13.375 11.7553C14.2277 11.7553 15.15 11.1674 15.15 10.1842H13.85C13.85 10.2118 13.838 10.2676 13.7587 10.3326C13.6781 10.3986 13.5446 10.4553 13.375 10.4553V11.7553ZM15.15 10.1842C15.15 9.20103 14.2277 8.61316 13.375 8.61316V9.91316C13.5446 9.91316 13.6781 9.96985 13.7587 10.0359C13.838 10.1008 13.85 10.1566 13.85 10.1842H15.15ZM13.375 8.61316C13.3743 8.61316 13.3737 8.61316 13.373 8.61316C13.3724 8.61316 13.3717 8.61316 13.371 8.61316C13.3704 8.61316 13.3697 8.61316 13.3691 8.61316C13.3684 8.61316 13.3677 8.61316 13.3671 8.61316C13.3664 8.61316 13.3658 8.61316 13.3651 8.61316C13.3645 8.61316 13.3638 8.61316 13.3631 8.61316C13.3625 8.61316 13.3618 8.61316 13.3612 8.61316C13.3605 8.61316 13.3598 8.61316 13.3592 8.61316C13.3585 8.61316 13.3579 8.61316 13.3572 8.61316C13.3565 8.61316 13.3559 8.61316 13.3552 8.61316C13.3546 8.61316 13.3539 8.61316 13.3532 8.61316C13.3526 8.61316 13.3519 8.61316 13.3513 8.61316C13.3506 8.61316 13.35 8.61316 13.3493 8.61316C13.3486 8.61316 13.348 8.61316 13.3473 8.61316C13.3467 8.61316 13.346 8.61316 13.3453 8.61316C13.3447 8.61316 13.344 8.61316 13.3434 8.61316C13.3427 8.61316 13.342 8.61316 13.3414 8.61316C13.3407 8.61316 13.3401 8.61316 13.3394 8.61316C13.3387 8.61316 13.3381 8.61316 13.3374 8.61316C13.3368 8.61316 13.3361 8.61316 13.3354 8.61316C13.3348 8.61316 13.3341 8.61316 13.3335 8.61316C13.3328 8.61316 13.3322 8.61316 13.3315 8.61316C13.3308 8.61316 13.3302 8.61316 13.3295 8.61316C13.3289 8.61316 13.3282 8.61316 13.3275 8.61316C13.3269 8.61316 13.3262 8.61316 13.3256 8.61316C13.3249 8.61316 13.3242 8.61316 13.3236 8.61316C13.3229 8.61316 13.3223 8.61316 13.3216 8.61316C13.3209 8.61316 13.3203 8.61316 13.3196 8.61316C13.319 8.61316 13.3183 8.61316 13.3177 8.61316C13.317 8.61316 13.3163 8.61316 13.3157 8.61316C13.315 8.61316 13.3144 8.61316 13.3137 8.61316C13.313 8.61316 13.3124 8.61316 13.3117 8.61316C13.3111 8.61316 13.3104 8.61316 13.3097 8.61316C13.3091 8.61316 13.3084 8.61316 13.3078 8.61316C13.3071 8.61316 13.3064 8.61316 13.3058 8.61316C13.3051 8.61316 13.3045 8.61316 13.3038 8.61316C13.3031 8.61316 13.3025 8.61316 13.3018 8.61316C13.3012 8.61316 13.3005 8.61316 13.2999 8.61316C13.2992 8.61316 13.2985 8.61316 13.2979 8.61316C13.2972 8.61316 13.2966 8.61316 13.2959 8.61316C13.2952 8.61316 13.2946 8.61316 13.2939 8.61316C13.2933 8.61316 13.2926 8.61316 13.2919 8.61316C13.2913 8.61316 13.2906 8.61316 13.29 8.61316C13.2893 8.61316 13.2886 8.61316 13.288 8.61316C13.2873 8.61316 13.2867 8.61316 13.286 8.61316C13.2854 8.61316 13.2847 8.61316 13.284 8.61316C13.2834 8.61316 13.2827 8.61316 13.2821 8.61316C13.2814 8.61316 13.2807 8.61316 13.2801 8.61316C13.2794 8.61316 13.2788 8.61316 13.2781 8.61316C13.2774 8.61316 13.2768 8.61316 13.2761 8.61316C13.2755 8.61316 13.2748 8.61316 13.2741 8.61316C13.2735 8.61316 13.2728 8.61316 13.2722 8.61316C13.2715 8.61316 13.2708 8.61316 13.2702 8.61316C13.2695 8.61316 13.2689 8.61316 13.2682 8.61316C13.2676 8.61316 13.2669 8.61316 13.2662 8.61316C13.2656 8.61316 13.2649 8.61316 13.2643 8.61316C13.2636 8.61316 13.2629 8.61316 13.2623 8.61316C13.2616 8.61316 13.261 8.61316 13.2603 8.61316C13.2596 8.61316 13.259 8.61316 13.2583 8.61316C13.2577 8.61316 13.257 8.61316 13.2563 8.61316C13.2557 8.61316 13.255 8.61316 13.2544 8.61316C13.2537 8.61316 13.2531 8.61316 13.2524 8.61316C13.2517 8.61316 13.2511 8.61316 13.2504 8.61316C13.2498 8.61316 13.2491 8.61316 13.2484 8.61316C13.2478 8.61316 13.2471 8.61316 13.2465 8.61316C13.2458 8.61316 13.2451 8.61316 13.2445 8.61316C13.2438 8.61316 13.2432 8.61316 13.2425 8.61316C13.2418 8.61316 13.2412 8.61316 13.2405 8.61316C13.2399 8.61316 13.2392 8.61316 13.2386 8.61316C13.2379 8.61316 13.2372 8.61316 13.2366 8.61316C13.2359 8.61316 13.2353 8.61316 13.2346 8.61316C13.2339 8.61316 13.2333 8.61316 13.2326 8.61316C13.232 8.61316 13.2313 8.61316 13.2306 8.61316C13.23 8.61316 13.2293 8.61316 13.2287 8.61316C13.228 8.61316 13.2273 8.61316 13.2267 8.61316C13.226 8.61316 13.2254 8.61316 13.2247 8.61316C13.224 8.61316 13.2234 8.61316 13.2227 8.61316C13.2221 8.61316 13.2214 8.61316 13.2208 8.61316C13.2201 8.61316 13.2194 8.61316 13.2188 8.61316C13.2181 8.61316 13.2175 8.61316 13.2168 8.61316C13.2161 8.61316 13.2155 8.61316 13.2148 8.61316C13.2142 8.61316 13.2135 8.61316 13.2128 8.61316C13.2122 8.61316 13.2115 8.61316 13.2109 8.61316C13.2102 8.61316 13.2095 8.61316 13.2089 8.61316C13.2082 8.61316 13.2076 8.61316 13.2069 8.61316C13.2063 8.61316 13.2056 8.61316 13.2049 8.61316C13.2043 8.61316 13.2036 8.61316 13.203 8.61316C13.2023 8.61316 13.2016 8.61316 13.201 8.61316C13.2003 8.61316 13.1997 8.61316 13.199 8.61316C13.1983 8.61316 13.1977 8.61316 13.197 8.61316C13.1964 8.61316 13.1957 8.61316 13.195 8.61316C13.1944 8.61316 13.1937 8.61316 13.1931 8.61316C13.1924 8.61316 13.1917 8.61316 13.1911 8.61316C13.1904 8.61316 13.1898 8.61316 13.1891 8.61316C13.1885 8.61316 13.1878 8.61316 13.1871 8.61316C13.1865 8.61316 13.1858 8.61316 13.1852 8.61316C13.1845 8.61316 13.1838 8.61316 13.1832 8.61316C13.1825 8.61316 13.1819 8.61316 13.1812 8.61316C13.1805 8.61316 13.1799 8.61316 13.1792 8.61316C13.1786 8.61316 13.1779 8.61316 13.1772 8.61316C13.1766 8.61316 13.1759 8.61316 13.1753 8.61316C13.1746 8.61316 13.174 8.61316 13.1733 8.61316C13.1726 8.61316 13.172 8.61316 13.1713 8.61316C13.1707 8.61316 13.17 8.61316 13.1693 8.61316C13.1687 8.61316 13.168 8.61316 13.1674 8.61316C13.1667 8.61316 13.166 8.61316 13.1654 8.61316C13.1647 8.61316 13.1641 8.61316 13.1634 8.61316C13.1627 8.61316 13.1621 8.61316 13.1614 8.61316C13.1608 8.61316 13.1601 8.61316 13.1594 8.61316C13.1588 8.61316 13.1581 8.61316 13.1575 8.61316C13.1568 8.61316 13.1562 8.61316 13.1555 8.61316C13.1548 8.61316 13.1542 8.61316 13.1535 8.61316C13.1529 8.61316 13.1522 8.61316 13.1515 8.61316C13.1509 8.61316 13.1502 8.61316 13.1496 8.61316C13.1489 8.61316 13.1482 8.61316 13.1476 8.61316C13.1469 8.61316 13.1463 8.61316 13.1456 8.61316C13.1449 8.61316 13.1443 8.61316 13.1436 8.61316C13.143 8.61316 13.1423 8.61316 13.1417 8.61316C13.141 8.61316 13.1403 8.61316 13.1397 8.61316C13.139 8.61316 13.1384 8.61316 13.1377 8.61316C13.137 8.61316 13.1364 8.61316 13.1357 8.61316C13.1351 8.61316 13.1344 8.61316 13.1337 8.61316C13.1331 8.61316 13.1324 8.61316 13.1318 8.61316C13.1311 8.61316 13.1304 8.61316 13.1298 8.61316C13.1291 8.61316 13.1285 8.61316 13.1278 8.61316C13.1271 8.61316 13.1265 8.61316 13.1258 8.61316C13.1252 8.61316 13.1245 8.61316 13.1239 8.61316C13.1232 8.61316 13.1225 8.61316 13.1219 8.61316C13.1212 8.61316 13.1206 8.61316 13.1199 8.61316C13.1192 8.61316 13.1186 8.61316 13.1179 8.61316C13.1173 8.61316 13.1166 8.61316 13.1159 8.61316C13.1153 8.61316 13.1146 8.61316 13.114 8.61316C13.1133 8.61316 13.1126 8.61316 13.112 8.61316C13.1113 8.61316 13.1107 8.61316 13.11 8.61316C13.1094 8.61316 13.1087 8.61316 13.108 8.61316C13.1074 8.61316 13.1067 8.61316 13.1061 8.61316C13.1054 8.61316 13.1047 8.61316 13.1041 8.61316C13.1034 8.61316 13.1028 8.61316 13.1021 8.61316C13.1014 8.61316 13.1008 8.61316 13.1001 8.61316C13.0995 8.61316 13.0988 8.61316 13.0981 8.61316C13.0975 8.61316 13.0968 8.61316 13.0962 8.61316C13.0955 8.61316 13.0948 8.61316 13.0942 8.61316C13.0935 8.61316 13.0929 8.61316 13.0922 8.61316C13.0916 8.61316 13.0909 8.61316 13.0902 8.61316C13.0896 8.61316 13.0889 8.61316 13.0883 8.61316C13.0876 8.61316 13.0869 8.61316 13.0863 8.61316C13.0856 8.61316 13.085 8.61316 13.0843 8.61316C13.0836 8.61316 13.083 8.61316 13.0823 8.61316C13.0817 8.61316 13.081 8.61316 13.0803 8.61316C13.0797 8.61316 13.079 8.61316 13.0784 8.61316C13.0777 8.61316 13.0771 8.61316 13.0764 8.61316C13.0757 8.61316 13.0751 8.61316 13.0744 8.61316C13.0738 8.61316 13.0731 8.61316 13.0724 8.61316C13.0718 8.61316 13.0711 8.61316 13.0705 8.61316C13.0698 8.61316 13.0691 8.61316 13.0685 8.61316C13.0678 8.61316 13.0672 8.61316 13.0665 8.61316C13.0658 8.61316 13.0652 8.61316 13.0645 8.61316C13.0639 8.61316 13.0632 8.61316 13.0625 8.61316C13.0619 8.61316 13.0612 8.61316 13.0606 8.61316C13.0599 8.61316 13.0593 8.61316 13.0586 8.61316C13.0579 8.61316 13.0573 8.61316 13.0566 8.61316C13.056 8.61316 13.0553 8.61316 13.0546 8.61316C13.054 8.61316 13.0533 8.61316 13.0527 8.61316C13.052 8.61316 13.0513 8.61316 13.0507 8.61316C13.05 8.61316 13.0494 8.61316 13.0487 8.61316C13.048 8.61316 13.0474 8.61316 13.0467 8.61316C13.0461 8.61316 13.0454 8.61316 13.0448 8.61316C13.0441 8.61316 13.0434 8.61316 13.0428 8.61316C13.0421 8.61316 13.0415 8.61316 13.0408 8.61316C13.0401 8.61316 13.0395 8.61316 13.0388 8.61316C13.0382 8.61316 13.0375 8.61316 13.0368 8.61316C13.0362 8.61316 13.0355 8.61316 13.0349 8.61316C13.0342 8.61316 13.0335 8.61316 13.0329 8.61316C13.0322 8.61316 13.0316 8.61316 13.0309 8.61316C13.0302 8.61316 13.0296 8.61316 13.0289 8.61316C13.0283 8.61316 13.0276 8.61316 13.027 8.61316C13.0263 8.61316 13.0256 8.61316 13.025 8.61316C13.0243 8.61316 13.0237 8.61316 13.023 8.61316C13.0223 8.61316 13.0217 8.61316 13.021 8.61316C13.0204 8.61316 13.0197 8.61316 13.019 8.61316C13.0184 8.61316 13.0177 8.61316 13.0171 8.61316C13.0164 8.61316 13.0157 8.61316 13.0151 8.61316C13.0144 8.61316 13.0138 8.61316 13.0131 8.61316C13.0125 8.61316 13.0118 8.61316 13.0111 8.61316C13.0105 8.61316 13.0098 8.61316 13.0092 8.61316C13.0085 8.61316 13.0078 8.61316 13.0072 8.61316C13.0065 8.61316 13.0059 8.61316 13.0052 8.61316C13.0045 8.61316 13.0039 8.61316 13.0032 8.61316C13.0026 8.61316 13.0019 8.61316 13.0012 8.61316C13.0006 8.61316 12.9999 8.61316 12.9993 8.61316C12.9986 8.61316 12.9979 8.61316 12.9973 8.61316C12.9966 8.61316 12.996 8.61316 12.9953 8.61316C12.9947 8.61316 12.994 8.61316 12.9933 8.61316C12.9927 8.61316 12.992 8.61316 12.9914 8.61316C12.9907 8.61316 12.99 8.61316 12.9894 8.61316C12.9887 8.61316 12.9881 8.61316 12.9874 8.61316C12.9867 8.61316 12.9861 8.61316 12.9854 8.61316C12.9848 8.61316 12.9841 8.61316 12.9834 8.61316C12.9828 8.61316 12.9821 8.61316 12.9815 8.61316C12.9808 8.61316 12.9802 8.61316 12.9795 8.61316C12.9788 8.61316 12.9782 8.61316 12.9775 8.61316C12.9769 8.61316 12.9762 8.61316 12.9755 8.61316C12.9749 8.61316 12.9742 8.61316 12.9736 8.61316C12.9729 8.61316 12.9722 8.61316 12.9716 8.61316C12.9709 8.61316 12.9703 8.61316 12.9696 8.61316C12.9689 8.61316 12.9683 8.61316 12.9676 8.61316C12.967 8.61316 12.9663 8.61316 12.9656 8.61316C12.965 8.61316 12.9643 8.61316 12.9637 8.61316C12.963 8.61316 12.9624 8.61316 12.9617 8.61316C12.961 8.61316 12.9604 8.61316 12.9597 8.61316C12.9591 8.61316 12.9584 8.61316 12.9577 8.61316C12.9571 8.61316 12.9564 8.61316 12.9558 8.61316C12.9551 8.61316 12.9544 8.61316 12.9538 8.61316C12.9531 8.61316 12.9525 8.61316 12.9518 8.61316C12.9511 8.61316 12.9505 8.61316 12.9498 8.61316C12.9492 8.61316 12.9485 8.61316 12.9479 8.61316C12.9472 8.61316 12.9465 8.61316 12.9459 8.61316C12.9452 8.61316 12.9446 8.61316 12.9439 8.61316C12.9432 8.61316 12.9426 8.61316 12.9419 8.61316C12.9413 8.61316 12.9406 8.61316 12.9399 8.61316C12.9393 8.61316 12.9386 8.61316 12.938 8.61316C12.9373 8.61316 12.9366 8.61316 12.936 8.61316C12.9353 8.61316 12.9347 8.61316 12.934 8.61316C12.9333 8.61316 12.9327 8.61316 12.932 8.61316C12.9314 8.61316 12.9307 8.61316 12.9301 8.61316C12.9294 8.61316 12.9287 8.61316 12.9281 8.61316C12.9274 8.61316 12.9268 8.61316 12.9261 8.61316C12.9254 8.61316 12.9248 8.61316 12.9241 8.61316C12.9235 8.61316 12.9228 8.61316 12.9221 8.61316C12.9215 8.61316 12.9208 8.61316 12.9202 8.61316C12.9195 8.61316 12.9188 8.61316 12.9182 8.61316C12.9175 8.61316 12.9169 8.61316 12.9162 8.61316C12.9156 8.61316 12.9149 8.61316 12.9142 8.61316C12.9136 8.61316 12.9129 8.61316 12.9123 8.61316C12.9116 8.61316 12.9109 8.61316 12.9103 8.61316C12.9096 8.61316 12.909 8.61316 12.9083 8.61316C12.9076 8.61316 12.907 8.61316 12.9063 8.61316C12.9057 8.61316 12.905 8.61316 12.9043 8.61316C12.9037 8.61316 12.903 8.61316 12.9024 8.61316C12.9017 8.61316 12.901 8.61316 12.9004 8.61316C12.8997 8.61316 12.8991 8.61316 12.8984 8.61316C12.8978 8.61316 12.8971 8.61316 12.8964 8.61316C12.8958 8.61316 12.8951 8.61316 12.8945 8.61316C12.8938 8.61316 12.8931 8.61316 12.8925 8.61316C12.8918 8.61316 12.8912 8.61316 12.8905 8.61316C12.8898 8.61316 12.8892 8.61316 12.8885 8.61316C12.8879 8.61316 12.8872 8.61316 12.8865 8.61316C12.8859 8.61316 12.8852 8.61316 12.8846 8.61316C12.8839 8.61316 12.8833 8.61316 12.8826 8.61316C12.8819 8.61316 12.8813 8.61316 12.8806 8.61316C12.88 8.61316 12.8793 8.61316 12.8786 8.61316C12.878 8.61316 12.8773 8.61316 12.8767 8.61316C12.876 8.61316 12.8753 8.61316 12.8747 8.61316C12.874 8.61316 12.8734 8.61316 12.8727 8.61316C12.872 8.61316 12.8714 8.61316 12.8707 8.61316C12.8701 8.61316 12.8694 8.61316 12.8687 8.61316C12.8681 8.61316 12.8674 8.61316 12.8668 8.61316C12.8661 8.61316 12.8655 8.61316 12.8648 8.61316C12.8641 8.61316 12.8635 8.61316 12.8628 8.61316C12.8622 8.61316 12.8615 8.61316 12.8608 8.61316C12.8602 8.61316 12.8595 8.61316 12.8589 8.61316C12.8582 8.61316 12.8575 8.61316 12.8569 8.61316C12.8562 8.61316 12.8556 8.61316 12.8549 8.61316C12.8542 8.61316 12.8536 8.61316 12.8529 8.61316C12.8523 8.61316 12.8516 8.61316 12.851 8.61316C12.8503 8.61316 12.8496 8.61316 12.849 8.61316C12.8483 8.61316 12.8477 8.61316 12.847 8.61316C12.8463 8.61316 12.8457 8.61316 12.845 8.61316C12.8444 8.61316 12.8437 8.61316 12.843 8.61316C12.8424 8.61316 12.8417 8.61316 12.8411 8.61316C12.8404 8.61316 12.8397 8.61316 12.8391 8.61316C12.8384 8.61316 12.8378 8.61316 12.8371 8.61316C12.8364 8.61316 12.8358 8.61316 12.8351 8.61316C12.8345 8.61316 12.8338 8.61316 12.8332 8.61316C12.8325 8.61316 12.8318 8.61316 12.8312 8.61316C12.8305 8.61316 12.8299 8.61316 12.8292 8.61316C12.8285 8.61316 12.8279 8.61316 12.8272 8.61316C12.8266 8.61316 12.8259 8.61316 12.8252 8.61316C12.8246 8.61316 12.8239 8.61316 12.8233 8.61316C12.8226 8.61316 12.8219 8.61316 12.8213 8.61316C12.8206 8.61316 12.82 8.61316 12.8193 8.61316C12.8187 8.61316 12.818 8.61316 12.8173 8.61316C12.8167 8.61316 12.816 8.61316 12.8154 8.61316C12.8147 8.61316 12.814 8.61316 12.8134 8.61316C12.8127 8.61316 12.8121 8.61316 12.8114 8.61316C12.8107 8.61316 12.8101 8.61316 12.8094 8.61316C12.8088 8.61316 12.8081 8.61316 12.8074 8.61316C12.8068 8.61316 12.8061 8.61316 12.8055 8.61316C12.8048 8.61316 12.8042 8.61316 12.8035 8.61316C12.8028 8.61316 12.8022 8.61316 12.8015 8.61316C12.8009 8.61316 12.8002 8.61316 12.7995 8.61316C12.7989 8.61316 12.7982 8.61316 12.7976 8.61316C12.7969 8.61316 12.7962 8.61316 12.7956 8.61316C12.7949 8.61316 12.7943 8.61316 12.7936 8.61316C12.7929 8.61316 12.7923 8.61316 12.7916 8.61316C12.791 8.61316 12.7903 8.61316 12.7896 8.61316C12.789 8.61316 12.7883 8.61316 12.7877 8.61316C12.787 8.61316 12.7864 8.61316 12.7857 8.61316C12.785 8.61316 12.7844 8.61316 12.7837 8.61316C12.7831 8.61316 12.7824 8.61316 12.7817 8.61316C12.7811 8.61316 12.7804 8.61316 12.7798 8.61316C12.7791 8.61316 12.7784 8.61316 12.7778 8.61316C12.7771 8.61316 12.7765 8.61316 12.7758 8.61316C12.7751 8.61316 12.7745 8.61316 12.7738 8.61316C12.7732 8.61316 12.7725 8.61316 12.7719 8.61316C12.7712 8.61316 12.7705 8.61316 12.7699 8.61316C12.7692 8.61316 12.7686 8.61316 12.7679 8.61316C12.7672 8.61316 12.7666 8.61316 12.7659 8.61316C12.7653 8.61316 12.7646 8.61316 12.7639 8.61316C12.7633 8.61316 12.7626 8.61316 12.762 8.61316C12.7613 8.61316 12.7606 8.61316 12.76 8.61316C12.7593 8.61316 12.7587 8.61316 12.758 8.61316C12.7573 8.61316 12.7567 8.61316 12.756 8.61316C12.7554 8.61316 12.7547 8.61316 12.7541 8.61316C12.7534 8.61316 12.7527 8.61316 12.7521 8.61316C12.7514 8.61316 12.7508 8.61316 12.7501 8.61316C12.7494 8.61316 12.7488 8.61316 12.7481 8.61316C12.7475 8.61316 12.7468 8.61316 12.7461 8.61316C12.7455 8.61316 12.7448 8.61316 12.7442 8.61316C12.7435 8.61316 12.7428 8.61316 12.7422 8.61316C12.7415 8.61316 12.7409 8.61316 12.7402 8.61316C12.7396 8.61316 12.7389 8.61316 12.7382 8.61316C12.7376 8.61316 12.7369 8.61316 12.7363 8.61316C12.7356 8.61316 12.7349 8.61316 12.7343 8.61316C12.7336 8.61316 12.733 8.61316 12.7323 8.61316C12.7316 8.61316 12.731 8.61316 12.7303 8.61316C12.7297 8.61316 12.729 8.61316 12.7283 8.61316C12.7277 8.61316 12.727 8.61316 12.7264 8.61316C12.7257 8.61316 12.725 8.61316 12.7244 8.61316C12.7237 8.61316 12.7231 8.61316 12.7224 8.61316C12.7218 8.61316 12.7211 8.61316 12.7204 8.61316C12.7198 8.61316 12.7191 8.61316 12.7185 8.61316C12.7178 8.61316 12.7171 8.61316 12.7165 8.61316C12.7158 8.61316 12.7152 8.61316 12.7145 8.61316C12.7138 8.61316 12.7132 8.61316 12.7125 8.61316C12.7119 8.61316 12.7112 8.61316 12.7105 8.61316C12.7099 8.61316 12.7092 8.61316 12.7086 8.61316C12.7079 8.61316 12.7073 8.61316 12.7066 8.61316C12.7059 8.61316 12.7053 8.61316 12.7046 8.61316C12.704 8.61316 12.7033 8.61316 12.7026 8.61316C12.702 8.61316 12.7013 8.61316 12.7007 8.61316C12.7 8.61316 12.6993 8.61316 12.6987 8.61316C12.698 8.61316 12.6974 8.61316 12.6967 8.61316C12.696 8.61316 12.6954 8.61316 12.6947 8.61316C12.6941 8.61316 12.6934 8.61316 12.6927 8.61316C12.6921 8.61316 12.6914 8.61316 12.6908 8.61316C12.6901 8.61316 12.6895 8.61316 12.6888 8.61316C12.6881 8.61316 12.6875 8.61316 12.6868 8.61316C12.6862 8.61316 12.6855 8.61316 12.6848 8.61316C12.6842 8.61316 12.6835 8.61316 12.6829 8.61316C12.6822 8.61316 12.6815 8.61316 12.6809 8.61316C12.6802 8.61316 12.6796 8.61316 12.6789 8.61316C12.6782 8.61316 12.6776 8.61316 12.6769 8.61316C12.6763 8.61316 12.6756 8.61316 12.675 8.61316C12.6743 8.61316 12.6736 8.61316 12.673 8.61316C12.6723 8.61316 12.6717 8.61316 12.671 8.61316C12.6703 8.61316 12.6697 8.61316 12.669 8.61316C12.6684 8.61316 12.6677 8.61316 12.667 8.61316C12.6664 8.61316 12.6657 8.61316 12.6651 8.61316C12.6644 8.61316 12.6637 8.61316 12.6631 8.61316C12.6624 8.61316 12.6618 8.61316 12.6611 8.61316C12.6604 8.61316 12.6598 8.61316 12.6591 8.61316C12.6585 8.61316 12.6578 8.61316 12.6572 8.61316C12.6565 8.61316 12.6558 8.61316 12.6552 8.61316C12.6545 8.61316 12.6539 8.61316 12.6532 8.61316C12.6525 8.61316 12.6519 8.61316 12.6512 8.61316C12.6506 8.61316 12.6499 8.61316 12.6492 8.61316C12.6486 8.61316 12.6479 8.61316 12.6473 8.61316C12.6466 8.61316 12.6459 8.61316 12.6453 8.61316C12.6446 8.61316 12.644 8.61316 12.6433 8.61316C12.6427 8.61316 12.642 8.61316 12.6413 8.61316C12.6407 8.61316 12.64 8.61316 12.6394 8.61316C12.6387 8.61316 12.638 8.61316 12.6374 8.61316C12.6367 8.61316 12.6361 8.61316 12.6354 8.61316C12.6347 8.61316 12.6341 8.61316 12.6334 8.61316C12.6328 8.61316 12.6321 8.61316 12.6314 8.61316C12.6308 8.61316 12.6301 8.61316 12.6295 8.61316C12.6288 8.61316 12.6281 8.61316 12.6275 8.61316C12.6268 8.61316 12.6262 8.61316 12.6255 8.61316C12.6249 8.61316 12.6242 8.61316 12.6235 8.61316C12.6229 8.61316 12.6222 8.61316 12.6216 8.61316C12.6209 8.61316 12.6202 8.61316 12.6196 8.61316C12.6189 8.61316 12.6183 8.61316 12.6176 8.61316C12.6169 8.61316 12.6163 8.61316 12.6156 8.61316C12.615 8.61316 12.6143 8.61316 12.6136 8.61316C12.613 8.61316 12.6123 8.61316 12.6117 8.61316C12.611 8.61316 12.6104 8.61316 12.6097 8.61316C12.609 8.61316 12.6084 8.61316 12.6077 8.61316C12.6071 8.61316 12.6064 8.61316 12.6057 8.61316C12.6051 8.61316 12.6044 8.61316 12.6038 8.61316C12.6031 8.61316 12.6024 8.61316 12.6018 8.61316C12.6011 8.61316 12.6005 8.61316 12.5998 8.61316C12.5991 8.61316 12.5985 8.61316 12.5978 8.61316C12.5972 8.61316 12.5965 8.61316 12.5958 8.61316C12.5952 8.61316 12.5945 8.61316 12.5939 8.61316C12.5932 8.61316 12.5926 8.61316 12.5919 8.61316C12.5912 8.61316 12.5906 8.61316 12.5899 8.61316C12.5893 8.61316 12.5886 8.61316 12.5879 8.61316C12.5873 8.61316 12.5866 8.61316 12.586 8.61316C12.5853 8.61316 12.5846 8.61316 12.584 8.61316C12.5833 8.61316 12.5827 8.61316 12.582 8.61316C12.5813 8.61316 12.5807 8.61316 12.58 8.61316C12.5794 8.61316 12.5787 8.61316 12.5781 8.61316C12.5774 8.61316 12.5767 8.61316 12.5761 8.61316C12.5754 8.61316 12.5748 8.61316 12.5741 8.61316C12.5734 8.61316 12.5728 8.61316 12.5721 8.61316C12.5715 8.61316 12.5708 8.61316 12.5701 8.61316C12.5695 8.61316 12.5688 8.61316 12.5682 8.61316C12.5675 8.61316 12.5668 8.61316 12.5662 8.61316C12.5655 8.61316 12.5649 8.61316 12.5642 8.61316C12.5635 8.61316 12.5629 8.61316 12.5622 8.61316C12.5616 8.61316 12.5609 8.61316 12.5603 8.61316C12.5596 8.61316 12.5589 8.61316 12.5583 8.61316C12.5576 8.61316 12.557 8.61316 12.5563 8.61316C12.5556 8.61316 12.555 8.61316 12.5543 8.61316C12.5537 8.61316 12.553 8.61316 12.5523 8.61316C12.5517 8.61316 12.551 8.61316 12.5504 8.61316C12.5497 8.61316 12.549 8.61316 12.5484 8.61316C12.5477 8.61316 12.5471 8.61316 12.5464 8.61316C12.5458 8.61316 12.5451 8.61316 12.5444 8.61316C12.5438 8.61316 12.5431 8.61316 12.5425 8.61316C12.5418 8.61316 12.5411 8.61316 12.5405 8.61316C12.5398 8.61316 12.5392 8.61316 12.5385 8.61316C12.5378 8.61316 12.5372 8.61316 12.5365 8.61316C12.5359 8.61316 12.5352 8.61316 12.5345 8.61316C12.5339 8.61316 12.5332 8.61316 12.5326 8.61316C12.5319 8.61316 12.5312 8.61316 12.5306 8.61316C12.5299 8.61316 12.5293 8.61316 12.5286 8.61316C12.528 8.61316 12.5273 8.61316 12.5266 8.61316C12.526 8.61316 12.5253 8.61316 12.5247 8.61316C12.524 8.61316 12.5233 8.61316 12.5227 8.61316C12.522 8.61316 12.5214 8.61316 12.5207 8.61316C12.52 8.61316 12.5194 8.61316 12.5187 8.61316C12.5181 8.61316 12.5174 8.61316 12.5167 8.61316C12.5161 8.61316 12.5154 8.61316 12.5148 8.61316C12.5141 8.61316 12.5135 8.61316 12.5128 8.61316C12.5121 8.61316 12.5115 8.61316 12.5108 8.61316C12.5102 8.61316 12.5095 8.61316 12.5088 8.61316C12.5082 8.61316 12.5075 8.61316 12.5069 8.61316C12.5062 8.61316 12.5055 8.61316 12.5049 8.61316C12.5042 8.61316 12.5036 8.61316 12.5029 8.61316C12.5022 8.61316 12.5016 8.61316 12.5009 8.61316C12.5003 8.61316 12.4996 8.61316 12.499 8.61316C12.4983 8.61316 12.4976 8.61316 12.497 8.61316C12.4963 8.61316 12.4957 8.61316 12.495 8.61316C12.4943 8.61316 12.4937 8.61316 12.493 8.61316C12.4924 8.61316 12.4917 8.61316 12.491 8.61316C12.4904 8.61316 12.4897 8.61316 12.4891 8.61316C12.4884 8.61316 12.4877 8.61316 12.4871 8.61316C12.4864 8.61316 12.4858 8.61316 12.4851 8.61316C12.4844 8.61316 12.4838 8.61316 12.4831 8.61316C12.4825 8.61316 12.4818 8.61316 12.4812 8.61316C12.4805 8.61316 12.4798 8.61316 12.4792 8.61316C12.4785 8.61316 12.4779 8.61316 12.4772 8.61316C12.4765 8.61316 12.4759 8.61316 12.4752 8.61316C12.4746 8.61316 12.4739 8.61316 12.4732 8.61316C12.4726 8.61316 12.4719 8.61316 12.4713 8.61316C12.4706 8.61316 12.4699 8.61316 12.4693 8.61316C12.4686 8.61316 12.468 8.61316 12.4673 8.61316C12.4667 8.61316 12.466 8.61316 12.4653 8.61316C12.4647 8.61316 12.464 8.61316 12.4634 8.61316C12.4627 8.61316 12.462 8.61316 12.4614 8.61316C12.4607 8.61316 12.4601 8.61316 12.4594 8.61316C12.4587 8.61316 12.4581 8.61316 12.4574 8.61316C12.4568 8.61316 12.4561 8.61316 12.4554 8.61316C12.4548 8.61316 12.4541 8.61316 12.4535 8.61316C12.4528 8.61316 12.4521 8.61316 12.4515 8.61316C12.4508 8.61316 12.4502 8.61316 12.4495 8.61316C12.4489 8.61316 12.4482 8.61316 12.4475 8.61316C12.4469 8.61316 12.4462 8.61316 12.4456 8.61316C12.4449 8.61316 12.4442 8.61316 12.4436 8.61316C12.4429 8.61316 12.4423 8.61316 12.4416 8.61316C12.4409 8.61316 12.4403 8.61316 12.4396 8.61316C12.439 8.61316 12.4383 8.61316 12.4376 8.61316C12.437 8.61316 12.4363 8.61316 12.4357 8.61316C12.435 8.61316 12.4344 8.61316 12.4337 8.61316C12.433 8.61316 12.4324 8.61316 12.4317 8.61316C12.4311 8.61316 12.4304 8.61316 12.4297 8.61316C12.4291 8.61316 12.4284 8.61316 12.4278 8.61316C12.4271 8.61316 12.4264 8.61316 12.4258 8.61316C12.4251 8.61316 12.4245 8.61316 12.4238 8.61316C12.4231 8.61316 12.4225 8.61316 12.4218 8.61316C12.4212 8.61316 12.4205 8.61316 12.4198 8.61316C12.4192 8.61316 12.4185 8.61316 12.4179 8.61316C12.4172 8.61316 12.4166 8.61316 12.4159 8.61316C12.4152 8.61316 12.4146 8.61316 12.4139 8.61316C12.4133 8.61316 12.4126 8.61316 12.4119 8.61316C12.4113 8.61316 12.4106 8.61316 12.41 8.61316C12.4093 8.61316 12.4086 8.61316 12.408 8.61316C12.4073 8.61316 12.4067 8.61316 12.406 8.61316C12.4053 8.61316 12.4047 8.61316 12.404 8.61316C12.4034 8.61316 12.4027 8.61316 12.4021 8.61316C12.4014 8.61316 12.4007 8.61316 12.4001 8.61316C12.3994 8.61316 12.3988 8.61316 12.3981 8.61316C12.3974 8.61316 12.3968 8.61316 12.3961 8.61316C12.3955 8.61316 12.3948 8.61316 12.3941 8.61316C12.3935 8.61316 12.3928 8.61316 12.3922 8.61316C12.3915 8.61316 12.3908 8.61316 12.3902 8.61316C12.3895 8.61316 12.3889 8.61316 12.3882 8.61316C12.3875 8.61316 12.3869 8.61316 12.3862 8.61316C12.3856 8.61316 12.3849 8.61316 12.3843 8.61316C12.3836 8.61316 12.3829 8.61316 12.3823 8.61316C12.3816 8.61316 12.381 8.61316 12.3803 8.61316C12.3796 8.61316 12.379 8.61316 12.3783 8.61316C12.3777 8.61316 12.377 8.61316 12.3763 8.61316C12.3757 8.61316 12.375 8.61316 12.3744 8.61316C12.3737 8.61316 12.373 8.61316 12.3724 8.61316C12.3717 8.61316 12.3711 8.61316 12.3704 8.61316C12.3698 8.61316 12.3691 8.61316 12.3684 8.61316C12.3678 8.61316 12.3671 8.61316 12.3665 8.61316C12.3658 8.61316 12.3651 8.61316 12.3645 8.61316C12.3638 8.61316 12.3632 8.61316 12.3625 8.61316V9.91316C12.3632 9.91316 12.3638 9.91316 12.3645 9.91316C12.3651 9.91316 12.3658 9.91316 12.3665 9.91316C12.3671 9.91316 12.3678 9.91316 12.3684 9.91316C12.3691 9.91316 12.3698 9.91316 12.3704 9.91316C12.3711 9.91316 12.3717 9.91316 12.3724 9.91316C12.373 9.91316 12.3737 9.91316 12.3744 9.91316C12.375 9.91316 12.3757 9.91316 12.3763 9.91316C12.377 9.91316 12.3777 9.91316 12.3783 9.91316C12.379 9.91316 12.3796 9.91316 12.3803 9.91316C12.381 9.91316 12.3816 9.91316 12.3823 9.91316C12.3829 9.91316 12.3836 9.91316 12.3843 9.91316C12.3849 9.91316 12.3856 9.91316 12.3862 9.91316C12.3869 9.91316 12.3875 9.91316 12.3882 9.91316C12.3889 9.91316 12.3895 9.91316 12.3902 9.91316C12.3908 9.91316 12.3915 9.91316 12.3922 9.91316C12.3928 9.91316 12.3935 9.91316 12.3941 9.91316C12.3948 9.91316 12.3955 9.91316 12.3961 9.91316C12.3968 9.91316 12.3974 9.91316 12.3981 9.91316C12.3988 9.91316 12.3994 9.91316 12.4001 9.91316C12.4007 9.91316 12.4014 9.91316 12.4021 9.91316C12.4027 9.91316 12.4034 9.91316 12.404 9.91316C12.4047 9.91316 12.4053 9.91316 12.406 9.91316C12.4067 9.91316 12.4073 9.91316 12.408 9.91316C12.4086 9.91316 12.4093 9.91316 12.41 9.91316C12.4106 9.91316 12.4113 9.91316 12.4119 9.91316C12.4126 9.91316 12.4133 9.91316 12.4139 9.91316C12.4146 9.91316 12.4152 9.91316 12.4159 9.91316C12.4166 9.91316 12.4172 9.91316 12.4179 9.91316C12.4185 9.91316 12.4192 9.91316 12.4198 9.91316C12.4205 9.91316 12.4212 9.91316 12.4218 9.91316C12.4225 9.91316 12.4231 9.91316 12.4238 9.91316C12.4245 9.91316 12.4251 9.91316 12.4258 9.91316C12.4264 9.91316 12.4271 9.91316 12.4278 9.91316C12.4284 9.91316 12.4291 9.91316 12.4297 9.91316C12.4304 9.91316 12.4311 9.91316 12.4317 9.91316C12.4324 9.91316 12.433 9.91316 12.4337 9.91316C12.4344 9.91316 12.435 9.91316 12.4357 9.91316C12.4363 9.91316 12.437 9.91316 12.4376 9.91316C12.4383 9.91316 12.439 9.91316 12.4396 9.91316C12.4403 9.91316 12.4409 9.91316 12.4416 9.91316C12.4423 9.91316 12.4429 9.91316 12.4436 9.91316C12.4442 9.91316 12.4449 9.91316 12.4456 9.91316C12.4462 9.91316 12.4469 9.91316 12.4475 9.91316C12.4482 9.91316 12.4489 9.91316 12.4495 9.91316C12.4502 9.91316 12.4508 9.91316 12.4515 9.91316C12.4521 9.91316 12.4528 9.91316 12.4535 9.91316C12.4541 9.91316 12.4548 9.91316 12.4554 9.91316C12.4561 9.91316 12.4568 9.91316 12.4574 9.91316C12.4581 9.91316 12.4587 9.91316 12.4594 9.91316C12.4601 9.91316 12.4607 9.91316 12.4614 9.91316C12.462 9.91316 12.4627 9.91316 12.4634 9.91316C12.464 9.91316 12.4647 9.91316 12.4653 9.91316C12.466 9.91316 12.4667 9.91316 12.4673 9.91316C12.468 9.91316 12.4686 9.91316 12.4693 9.91316C12.4699 9.91316 12.4706 9.91316 12.4713 9.91316C12.4719 9.91316 12.4726 9.91316 12.4732 9.91316C12.4739 9.91316 12.4746 9.91316 12.4752 9.91316C12.4759 9.91316 12.4765 9.91316 12.4772 9.91316C12.4779 9.91316 12.4785 9.91316 12.4792 9.91316C12.4798 9.91316 12.4805 9.91316 12.4812 9.91316C12.4818 9.91316 12.4825 9.91316 12.4831 9.91316C12.4838 9.91316 12.4844 9.91316 12.4851 9.91316C12.4858 9.91316 12.4864 9.91316 12.4871 9.91316C12.4877 9.91316 12.4884 9.91316 12.4891 9.91316C12.4897 9.91316 12.4904 9.91316 12.491 9.91316C12.4917 9.91316 12.4924 9.91316 12.493 9.91316C12.4937 9.91316 12.4943 9.91316 12.495 9.91316C12.4957 9.91316 12.4963 9.91316 12.497 9.91316C12.4976 9.91316 12.4983 9.91316 12.499 9.91316C12.4996 9.91316 12.5003 9.91316 12.5009 9.91316C12.5016 9.91316 12.5022 9.91316 12.5029 9.91316C12.5036 9.91316 12.5042 9.91316 12.5049 9.91316C12.5055 9.91316 12.5062 9.91316 12.5069 9.91316C12.5075 9.91316 12.5082 9.91316 12.5088 9.91316C12.5095 9.91316 12.5102 9.91316 12.5108 9.91316C12.5115 9.91316 12.5121 9.91316 12.5128 9.91316C12.5135 9.91316 12.5141 9.91316 12.5148 9.91316C12.5154 9.91316 12.5161 9.91316 12.5167 9.91316C12.5174 9.91316 12.5181 9.91316 12.5187 9.91316C12.5194 9.91316 12.52 9.91316 12.5207 9.91316C12.5214 9.91316 12.522 9.91316 12.5227 9.91316C12.5233 9.91316 12.524 9.91316 12.5247 9.91316C12.5253 9.91316 12.526 9.91316 12.5266 9.91316C12.5273 9.91316 12.528 9.91316 12.5286 9.91316C12.5293 9.91316 12.5299 9.91316 12.5306 9.91316C12.5312 9.91316 12.5319 9.91316 12.5326 9.91316C12.5332 9.91316 12.5339 9.91316 12.5345 9.91316C12.5352 9.91316 12.5359 9.91316 12.5365 9.91316C12.5372 9.91316 12.5378 9.91316 12.5385 9.91316C12.5392 9.91316 12.5398 9.91316 12.5405 9.91316C12.5411 9.91316 12.5418 9.91316 12.5425 9.91316C12.5431 9.91316 12.5438 9.91316 12.5444 9.91316C12.5451 9.91316 12.5458 9.91316 12.5464 9.91316C12.5471 9.91316 12.5477 9.91316 12.5484 9.91316C12.549 9.91316 12.5497 9.91316 12.5504 9.91316C12.551 9.91316 12.5517 9.91316 12.5523 9.91316C12.553 9.91316 12.5537 9.91316 12.5543 9.91316C12.555 9.91316 12.5556 9.91316 12.5563 9.91316C12.557 9.91316 12.5576 9.91316 12.5583 9.91316C12.5589 9.91316 12.5596 9.91316 12.5603 9.91316C12.5609 9.91316 12.5616 9.91316 12.5622 9.91316C12.5629 9.91316 12.5635 9.91316 12.5642 9.91316C12.5649 9.91316 12.5655 9.91316 12.5662 9.91316C12.5668 9.91316 12.5675 9.91316 12.5682 9.91316C12.5688 9.91316 12.5695 9.91316 12.5701 9.91316C12.5708 9.91316 12.5715 9.91316 12.5721 9.91316C12.5728 9.91316 12.5734 9.91316 12.5741 9.91316C12.5748 9.91316 12.5754 9.91316 12.5761 9.91316C12.5767 9.91316 12.5774 9.91316 12.5781 9.91316C12.5787 9.91316 12.5794 9.91316 12.58 9.91316C12.5807 9.91316 12.5813 9.91316 12.582 9.91316C12.5827 9.91316 12.5833 9.91316 12.584 9.91316C12.5846 9.91316 12.5853 9.91316 12.586 9.91316C12.5866 9.91316 12.5873 9.91316 12.5879 9.91316C12.5886 9.91316 12.5893 9.91316 12.5899 9.91316C12.5906 9.91316 12.5912 9.91316 12.5919 9.91316C12.5926 9.91316 12.5932 9.91316 12.5939 9.91316C12.5945 9.91316 12.5952 9.91316 12.5958 9.91316C12.5965 9.91316 12.5972 9.91316 12.5978 9.91316C12.5985 9.91316 12.5991 9.91316 12.5998 9.91316C12.6005 9.91316 12.6011 9.91316 12.6018 9.91316C12.6024 9.91316 12.6031 9.91316 12.6038 9.91316C12.6044 9.91316 12.6051 9.91316 12.6057 9.91316C12.6064 9.91316 12.6071 9.91316 12.6077 9.91316C12.6084 9.91316 12.609 9.91316 12.6097 9.91316C12.6104 9.91316 12.611 9.91316 12.6117 9.91316C12.6123 9.91316 12.613 9.91316 12.6136 9.91316C12.6143 9.91316 12.615 9.91316 12.6156 9.91316C12.6163 9.91316 12.6169 9.91316 12.6176 9.91316C12.6183 9.91316 12.6189 9.91316 12.6196 9.91316C12.6202 9.91316 12.6209 9.91316 12.6216 9.91316C12.6222 9.91316 12.6229 9.91316 12.6235 9.91316C12.6242 9.91316 12.6249 9.91316 12.6255 9.91316C12.6262 9.91316 12.6268 9.91316 12.6275 9.91316C12.6281 9.91316 12.6288 9.91316 12.6295 9.91316C12.6301 9.91316 12.6308 9.91316 12.6314 9.91316C12.6321 9.91316 12.6328 9.91316 12.6334 9.91316C12.6341 9.91316 12.6347 9.91316 12.6354 9.91316C12.6361 9.91316 12.6367 9.91316 12.6374 9.91316C12.638 9.91316 12.6387 9.91316 12.6394 9.91316C12.64 9.91316 12.6407 9.91316 12.6413 9.91316C12.642 9.91316 12.6427 9.91316 12.6433 9.91316C12.644 9.91316 12.6446 9.91316 12.6453 9.91316C12.6459 9.91316 12.6466 9.91316 12.6473 9.91316C12.6479 9.91316 12.6486 9.91316 12.6492 9.91316C12.6499 9.91316 12.6506 9.91316 12.6512 9.91316C12.6519 9.91316 12.6525 9.91316 12.6532 9.91316C12.6539 9.91316 12.6545 9.91316 12.6552 9.91316C12.6558 9.91316 12.6565 9.91316 12.6572 9.91316C12.6578 9.91316 12.6585 9.91316 12.6591 9.91316C12.6598 9.91316 12.6604 9.91316 12.6611 9.91316C12.6618 9.91316 12.6624 9.91316 12.6631 9.91316C12.6637 9.91316 12.6644 9.91316 12.6651 9.91316C12.6657 9.91316 12.6664 9.91316 12.667 9.91316C12.6677 9.91316 12.6684 9.91316 12.669 9.91316C12.6697 9.91316 12.6703 9.91316 12.671 9.91316C12.6717 9.91316 12.6723 9.91316 12.673 9.91316C12.6736 9.91316 12.6743 9.91316 12.675 9.91316C12.6756 9.91316 12.6763 9.91316 12.6769 9.91316C12.6776 9.91316 12.6782 9.91316 12.6789 9.91316C12.6796 9.91316 12.6802 9.91316 12.6809 9.91316C12.6815 9.91316 12.6822 9.91316 12.6829 9.91316C12.6835 9.91316 12.6842 9.91316 12.6848 9.91316C12.6855 9.91316 12.6862 9.91316 12.6868 9.91316C12.6875 9.91316 12.6881 9.91316 12.6888 9.91316C12.6895 9.91316 12.6901 9.91316 12.6908 9.91316C12.6914 9.91316 12.6921 9.91316 12.6927 9.91316C12.6934 9.91316 12.6941 9.91316 12.6947 9.91316C12.6954 9.91316 12.696 9.91316 12.6967 9.91316C12.6974 9.91316 12.698 9.91316 12.6987 9.91316C12.6993 9.91316 12.7 9.91316 12.7007 9.91316C12.7013 9.91316 12.702 9.91316 12.7026 9.91316C12.7033 9.91316 12.704 9.91316 12.7046 9.91316C12.7053 9.91316 12.7059 9.91316 12.7066 9.91316C12.7073 9.91316 12.7079 9.91316 12.7086 9.91316C12.7092 9.91316 12.7099 9.91316 12.7105 9.91316C12.7112 9.91316 12.7119 9.91316 12.7125 9.91316C12.7132 9.91316 12.7138 9.91316 12.7145 9.91316C12.7152 9.91316 12.7158 9.91316 12.7165 9.91316C12.7171 9.91316 12.7178 9.91316 12.7185 9.91316C12.7191 9.91316 12.7198 9.91316 12.7204 9.91316C12.7211 9.91316 12.7218 9.91316 12.7224 9.91316C12.7231 9.91316 12.7237 9.91316 12.7244 9.91316C12.725 9.91316 12.7257 9.91316 12.7264 9.91316C12.727 9.91316 12.7277 9.91316 12.7283 9.91316C12.729 9.91316 12.7297 9.91316 12.7303 9.91316C12.731 9.91316 12.7316 9.91316 12.7323 9.91316C12.733 9.91316 12.7336 9.91316 12.7343 9.91316C12.7349 9.91316 12.7356 9.91316 12.7363 9.91316C12.7369 9.91316 12.7376 9.91316 12.7382 9.91316C12.7389 9.91316 12.7396 9.91316 12.7402 9.91316C12.7409 9.91316 12.7415 9.91316 12.7422 9.91316C12.7428 9.91316 12.7435 9.91316 12.7442 9.91316C12.7448 9.91316 12.7455 9.91316 12.7461 9.91316C12.7468 9.91316 12.7475 9.91316 12.7481 9.91316C12.7488 9.91316 12.7494 9.91316 12.7501 9.91316C12.7508 9.91316 12.7514 9.91316 12.7521 9.91316C12.7527 9.91316 12.7534 9.91316 12.7541 9.91316C12.7547 9.91316 12.7554 9.91316 12.756 9.91316C12.7567 9.91316 12.7573 9.91316 12.758 9.91316C12.7587 9.91316 12.7593 9.91316 12.76 9.91316C12.7606 9.91316 12.7613 9.91316 12.762 9.91316C12.7626 9.91316 12.7633 9.91316 12.7639 9.91316C12.7646 9.91316 12.7653 9.91316 12.7659 9.91316C12.7666 9.91316 12.7672 9.91316 12.7679 9.91316C12.7686 9.91316 12.7692 9.91316 12.7699 9.91316C12.7705 9.91316 12.7712 9.91316 12.7719 9.91316C12.7725 9.91316 12.7732 9.91316 12.7738 9.91316C12.7745 9.91316 12.7751 9.91316 12.7758 9.91316C12.7765 9.91316 12.7771 9.91316 12.7778 9.91316C12.7784 9.91316 12.7791 9.91316 12.7798 9.91316C12.7804 9.91316 12.7811 9.91316 12.7817 9.91316C12.7824 9.91316 12.7831 9.91316 12.7837 9.91316C12.7844 9.91316 12.785 9.91316 12.7857 9.91316C12.7864 9.91316 12.787 9.91316 12.7877 9.91316C12.7883 9.91316 12.789 9.91316 12.7896 9.91316C12.7903 9.91316 12.791 9.91316 12.7916 9.91316C12.7923 9.91316 12.7929 9.91316 12.7936 9.91316C12.7943 9.91316 12.7949 9.91316 12.7956 9.91316C12.7962 9.91316 12.7969 9.91316 12.7976 9.91316C12.7982 9.91316 12.7989 9.91316 12.7995 9.91316C12.8002 9.91316 12.8009 9.91316 12.8015 9.91316C12.8022 9.91316 12.8028 9.91316 12.8035 9.91316C12.8042 9.91316 12.8048 9.91316 12.8055 9.91316C12.8061 9.91316 12.8068 9.91316 12.8074 9.91316C12.8081 9.91316 12.8088 9.91316 12.8094 9.91316C12.8101 9.91316 12.8107 9.91316 12.8114 9.91316C12.8121 9.91316 12.8127 9.91316 12.8134 9.91316C12.814 9.91316 12.8147 9.91316 12.8154 9.91316C12.816 9.91316 12.8167 9.91316 12.8173 9.91316C12.818 9.91316 12.8187 9.91316 12.8193 9.91316C12.82 9.91316 12.8206 9.91316 12.8213 9.91316C12.8219 9.91316 12.8226 9.91316 12.8233 9.91316C12.8239 9.91316 12.8246 9.91316 12.8252 9.91316C12.8259 9.91316 12.8266 9.91316 12.8272 9.91316C12.8279 9.91316 12.8285 9.91316 12.8292 9.91316C12.8299 9.91316 12.8305 9.91316 12.8312 9.91316C12.8318 9.91316 12.8325 9.91316 12.8332 9.91316C12.8338 9.91316 12.8345 9.91316 12.8351 9.91316C12.8358 9.91316 12.8364 9.91316 12.8371 9.91316C12.8378 9.91316 12.8384 9.91316 12.8391 9.91316C12.8397 9.91316 12.8404 9.91316 12.8411 9.91316C12.8417 9.91316 12.8424 9.91316 12.843 9.91316C12.8437 9.91316 12.8444 9.91316 12.845 9.91316C12.8457 9.91316 12.8463 9.91316 12.847 9.91316C12.8477 9.91316 12.8483 9.91316 12.849 9.91316C12.8496 9.91316 12.8503 9.91316 12.851 9.91316C12.8516 9.91316 12.8523 9.91316 12.8529 9.91316C12.8536 9.91316 12.8542 9.91316 12.8549 9.91316C12.8556 9.91316 12.8562 9.91316 12.8569 9.91316C12.8575 9.91316 12.8582 9.91316 12.8589 9.91316C12.8595 9.91316 12.8602 9.91316 12.8608 9.91316C12.8615 9.91316 12.8622 9.91316 12.8628 9.91316C12.8635 9.91316 12.8641 9.91316 12.8648 9.91316C12.8655 9.91316 12.8661 9.91316 12.8668 9.91316C12.8674 9.91316 12.8681 9.91316 12.8687 9.91316C12.8694 9.91316 12.8701 9.91316 12.8707 9.91316C12.8714 9.91316 12.872 9.91316 12.8727 9.91316C12.8734 9.91316 12.874 9.91316 12.8747 9.91316C12.8753 9.91316 12.876 9.91316 12.8767 9.91316C12.8773 9.91316 12.878 9.91316 12.8786 9.91316C12.8793 9.91316 12.88 9.91316 12.8806 9.91316C12.8813 9.91316 12.8819 9.91316 12.8826 9.91316C12.8833 9.91316 12.8839 9.91316 12.8846 9.91316C12.8852 9.91316 12.8859 9.91316 12.8865 9.91316C12.8872 9.91316 12.8879 9.91316 12.8885 9.91316C12.8892 9.91316 12.8898 9.91316 12.8905 9.91316C12.8912 9.91316 12.8918 9.91316 12.8925 9.91316C12.8931 9.91316 12.8938 9.91316 12.8945 9.91316C12.8951 9.91316 12.8958 9.91316 12.8964 9.91316C12.8971 9.91316 12.8978 9.91316 12.8984 9.91316C12.8991 9.91316 12.8997 9.91316 12.9004 9.91316C12.901 9.91316 12.9017 9.91316 12.9024 9.91316C12.903 9.91316 12.9037 9.91316 12.9043 9.91316C12.905 9.91316 12.9057 9.91316 12.9063 9.91316C12.907 9.91316 12.9076 9.91316 12.9083 9.91316C12.909 9.91316 12.9096 9.91316 12.9103 9.91316C12.9109 9.91316 12.9116 9.91316 12.9123 9.91316C12.9129 9.91316 12.9136 9.91316 12.9142 9.91316C12.9149 9.91316 12.9156 9.91316 12.9162 9.91316C12.9169 9.91316 12.9175 9.91316 12.9182 9.91316C12.9188 9.91316 12.9195 9.91316 12.9202 9.91316C12.9208 9.91316 12.9215 9.91316 12.9221 9.91316C12.9228 9.91316 12.9235 9.91316 12.9241 9.91316C12.9248 9.91316 12.9254 9.91316 12.9261 9.91316C12.9268 9.91316 12.9274 9.91316 12.9281 9.91316C12.9287 9.91316 12.9294 9.91316 12.9301 9.91316C12.9307 9.91316 12.9314 9.91316 12.932 9.91316C12.9327 9.91316 12.9333 9.91316 12.934 9.91316C12.9347 9.91316 12.9353 9.91316 12.936 9.91316C12.9366 9.91316 12.9373 9.91316 12.938 9.91316C12.9386 9.91316 12.9393 9.91316 12.9399 9.91316C12.9406 9.91316 12.9413 9.91316 12.9419 9.91316C12.9426 9.91316 12.9432 9.91316 12.9439 9.91316C12.9446 9.91316 12.9452 9.91316 12.9459 9.91316C12.9465 9.91316 12.9472 9.91316 12.9479 9.91316C12.9485 9.91316 12.9492 9.91316 12.9498 9.91316C12.9505 9.91316 12.9511 9.91316 12.9518 9.91316C12.9525 9.91316 12.9531 9.91316 12.9538 9.91316C12.9544 9.91316 12.9551 9.91316 12.9558 9.91316C12.9564 9.91316 12.9571 9.91316 12.9577 9.91316C12.9584 9.91316 12.9591 9.91316 12.9597 9.91316C12.9604 9.91316 12.961 9.91316 12.9617 9.91316C12.9624 9.91316 12.963 9.91316 12.9637 9.91316C12.9643 9.91316 12.965 9.91316 12.9656 9.91316C12.9663 9.91316 12.967 9.91316 12.9676 9.91316C12.9683 9.91316 12.9689 9.91316 12.9696 9.91316C12.9703 9.91316 12.9709 9.91316 12.9716 9.91316C12.9722 9.91316 12.9729 9.91316 12.9736 9.91316C12.9742 9.91316 12.9749 9.91316 12.9755 9.91316C12.9762 9.91316 12.9769 9.91316 12.9775 9.91316C12.9782 9.91316 12.9788 9.91316 12.9795 9.91316C12.9802 9.91316 12.9808 9.91316 12.9815 9.91316C12.9821 9.91316 12.9828 9.91316 12.9834 9.91316C12.9841 9.91316 12.9848 9.91316 12.9854 9.91316C12.9861 9.91316 12.9867 9.91316 12.9874 9.91316C12.9881 9.91316 12.9887 9.91316 12.9894 9.91316C12.99 9.91316 12.9907 9.91316 12.9914 9.91316C12.992 9.91316 12.9927 9.91316 12.9933 9.91316C12.994 9.91316 12.9947 9.91316 12.9953 9.91316C12.996 9.91316 12.9966 9.91316 12.9973 9.91316C12.9979 9.91316 12.9986 9.91316 12.9993 9.91316C12.9999 9.91316 13.0006 9.91316 13.0012 9.91316C13.0019 9.91316 13.0026 9.91316 13.0032 9.91316C13.0039 9.91316 13.0045 9.91316 13.0052 9.91316C13.0059 9.91316 13.0065 9.91316 13.0072 9.91316C13.0078 9.91316 13.0085 9.91316 13.0092 9.91316C13.0098 9.91316 13.0105 9.91316 13.0111 9.91316C13.0118 9.91316 13.0125 9.91316 13.0131 9.91316C13.0138 9.91316 13.0144 9.91316 13.0151 9.91316C13.0157 9.91316 13.0164 9.91316 13.0171 9.91316C13.0177 9.91316 13.0184 9.91316 13.019 9.91316C13.0197 9.91316 13.0204 9.91316 13.021 9.91316C13.0217 9.91316 13.0223 9.91316 13.023 9.91316C13.0237 9.91316 13.0243 9.91316 13.025 9.91316C13.0256 9.91316 13.0263 9.91316 13.027 9.91316C13.0276 9.91316 13.0283 9.91316 13.0289 9.91316C13.0296 9.91316 13.0302 9.91316 13.0309 9.91316C13.0316 9.91316 13.0322 9.91316 13.0329 9.91316C13.0335 9.91316 13.0342 9.91316 13.0349 9.91316C13.0355 9.91316 13.0362 9.91316 13.0368 9.91316C13.0375 9.91316 13.0382 9.91316 13.0388 9.91316C13.0395 9.91316 13.0401 9.91316 13.0408 9.91316C13.0415 9.91316 13.0421 9.91316 13.0428 9.91316C13.0434 9.91316 13.0441 9.91316 13.0448 9.91316C13.0454 9.91316 13.0461 9.91316 13.0467 9.91316C13.0474 9.91316 13.048 9.91316 13.0487 9.91316C13.0494 9.91316 13.05 9.91316 13.0507 9.91316C13.0513 9.91316 13.052 9.91316 13.0527 9.91316C13.0533 9.91316 13.054 9.91316 13.0546 9.91316C13.0553 9.91316 13.056 9.91316 13.0566 9.91316C13.0573 9.91316 13.0579 9.91316 13.0586 9.91316C13.0593 9.91316 13.0599 9.91316 13.0606 9.91316C13.0612 9.91316 13.0619 9.91316 13.0625 9.91316C13.0632 9.91316 13.0639 9.91316 13.0645 9.91316C13.0652 9.91316 13.0658 9.91316 13.0665 9.91316C13.0672 9.91316 13.0678 9.91316 13.0685 9.91316C13.0691 9.91316 13.0698 9.91316 13.0705 9.91316C13.0711 9.91316 13.0718 9.91316 13.0724 9.91316C13.0731 9.91316 13.0738 9.91316 13.0744 9.91316C13.0751 9.91316 13.0757 9.91316 13.0764 9.91316C13.0771 9.91316 13.0777 9.91316 13.0784 9.91316C13.079 9.91316 13.0797 9.91316 13.0803 9.91316C13.081 9.91316 13.0817 9.91316 13.0823 9.91316C13.083 9.91316 13.0836 9.91316 13.0843 9.91316C13.085 9.91316 13.0856 9.91316 13.0863 9.91316C13.0869 9.91316 13.0876 9.91316 13.0883 9.91316C13.0889 9.91316 13.0896 9.91316 13.0902 9.91316C13.0909 9.91316 13.0916 9.91316 13.0922 9.91316C13.0929 9.91316 13.0935 9.91316 13.0942 9.91316C13.0948 9.91316 13.0955 9.91316 13.0962 9.91316C13.0968 9.91316 13.0975 9.91316 13.0981 9.91316C13.0988 9.91316 13.0995 9.91316 13.1001 9.91316C13.1008 9.91316 13.1014 9.91316 13.1021 9.91316C13.1028 9.91316 13.1034 9.91316 13.1041 9.91316C13.1047 9.91316 13.1054 9.91316 13.1061 9.91316C13.1067 9.91316 13.1074 9.91316 13.108 9.91316C13.1087 9.91316 13.1094 9.91316 13.11 9.91316C13.1107 9.91316 13.1113 9.91316 13.112 9.91316C13.1126 9.91316 13.1133 9.91316 13.114 9.91316C13.1146 9.91316 13.1153 9.91316 13.1159 9.91316C13.1166 9.91316 13.1173 9.91316 13.1179 9.91316C13.1186 9.91316 13.1192 9.91316 13.1199 9.91316C13.1206 9.91316 13.1212 9.91316 13.1219 9.91316C13.1225 9.91316 13.1232 9.91316 13.1239 9.91316C13.1245 9.91316 13.1252 9.91316 13.1258 9.91316C13.1265 9.91316 13.1271 9.91316 13.1278 9.91316C13.1285 9.91316 13.1291 9.91316 13.1298 9.91316C13.1304 9.91316 13.1311 9.91316 13.1318 9.91316C13.1324 9.91316 13.1331 9.91316 13.1337 9.91316C13.1344 9.91316 13.1351 9.91316 13.1357 9.91316C13.1364 9.91316 13.137 9.91316 13.1377 9.91316C13.1384 9.91316 13.139 9.91316 13.1397 9.91316C13.1403 9.91316 13.141 9.91316 13.1417 9.91316C13.1423 9.91316 13.143 9.91316 13.1436 9.91316C13.1443 9.91316 13.1449 9.91316 13.1456 9.91316C13.1463 9.91316 13.1469 9.91316 13.1476 9.91316C13.1482 9.91316 13.1489 9.91316 13.1496 9.91316C13.1502 9.91316 13.1509 9.91316 13.1515 9.91316C13.1522 9.91316 13.1529 9.91316 13.1535 9.91316C13.1542 9.91316 13.1548 9.91316 13.1555 9.91316C13.1562 9.91316 13.1568 9.91316 13.1575 9.91316C13.1581 9.91316 13.1588 9.91316 13.1594 9.91316C13.1601 9.91316 13.1608 9.91316 13.1614 9.91316C13.1621 9.91316 13.1627 9.91316 13.1634 9.91316C13.1641 9.91316 13.1647 9.91316 13.1654 9.91316C13.166 9.91316 13.1667 9.91316 13.1674 9.91316C13.168 9.91316 13.1687 9.91316 13.1693 9.91316C13.17 9.91316 13.1707 9.91316 13.1713 9.91316C13.172 9.91316 13.1726 9.91316 13.1733 9.91316C13.174 9.91316 13.1746 9.91316 13.1753 9.91316C13.1759 9.91316 13.1766 9.91316 13.1772 9.91316C13.1779 9.91316 13.1786 9.91316 13.1792 9.91316C13.1799 9.91316 13.1805 9.91316 13.1812 9.91316C13.1819 9.91316 13.1825 9.91316 13.1832 9.91316C13.1838 9.91316 13.1845 9.91316 13.1852 9.91316C13.1858 9.91316 13.1865 9.91316 13.1871 9.91316C13.1878 9.91316 13.1885 9.91316 13.1891 9.91316C13.1898 9.91316 13.1904 9.91316 13.1911 9.91316C13.1917 9.91316 13.1924 9.91316 13.1931 9.91316C13.1937 9.91316 13.1944 9.91316 13.195 9.91316C13.1957 9.91316 13.1964 9.91316 13.197 9.91316C13.1977 9.91316 13.1983 9.91316 13.199 9.91316C13.1997 9.91316 13.2003 9.91316 13.201 9.91316C13.2016 9.91316 13.2023 9.91316 13.203 9.91316C13.2036 9.91316 13.2043 9.91316 13.2049 9.91316C13.2056 9.91316 13.2063 9.91316 13.2069 9.91316C13.2076 9.91316 13.2082 9.91316 13.2089 9.91316C13.2095 9.91316 13.2102 9.91316 13.2109 9.91316C13.2115 9.91316 13.2122 9.91316 13.2128 9.91316C13.2135 9.91316 13.2142 9.91316 13.2148 9.91316C13.2155 9.91316 13.2161 9.91316 13.2168 9.91316C13.2175 9.91316 13.2181 9.91316 13.2188 9.91316C13.2194 9.91316 13.2201 9.91316 13.2208 9.91316C13.2214 9.91316 13.2221 9.91316 13.2227 9.91316C13.2234 9.91316 13.224 9.91316 13.2247 9.91316C13.2254 9.91316 13.226 9.91316 13.2267 9.91316C13.2273 9.91316 13.228 9.91316 13.2287 9.91316C13.2293 9.91316 13.23 9.91316 13.2306 9.91316C13.2313 9.91316 13.232 9.91316 13.2326 9.91316C13.2333 9.91316 13.2339 9.91316 13.2346 9.91316C13.2353 9.91316 13.2359 9.91316 13.2366 9.91316C13.2372 9.91316 13.2379 9.91316 13.2386 9.91316C13.2392 9.91316 13.2399 9.91316 13.2405 9.91316C13.2412 9.91316 13.2418 9.91316 13.2425 9.91316C13.2432 9.91316 13.2438 9.91316 13.2445 9.91316C13.2451 9.91316 13.2458 9.91316 13.2465 9.91316C13.2471 9.91316 13.2478 9.91316 13.2484 9.91316C13.2491 9.91316 13.2498 9.91316 13.2504 9.91316C13.2511 9.91316 13.2517 9.91316 13.2524 9.91316C13.2531 9.91316 13.2537 9.91316 13.2544 9.91316C13.255 9.91316 13.2557 9.91316 13.2563 9.91316C13.257 9.91316 13.2577 9.91316 13.2583 9.91316C13.259 9.91316 13.2596 9.91316 13.2603 9.91316C13.261 9.91316 13.2616 9.91316 13.2623 9.91316C13.2629 9.91316 13.2636 9.91316 13.2643 9.91316C13.2649 9.91316 13.2656 9.91316 13.2662 9.91316C13.2669 9.91316 13.2676 9.91316 13.2682 9.91316C13.2689 9.91316 13.2695 9.91316 13.2702 9.91316C13.2708 9.91316 13.2715 9.91316 13.2722 9.91316C13.2728 9.91316 13.2735 9.91316 13.2741 9.91316C13.2748 9.91316 13.2755 9.91316 13.2761 9.91316C13.2768 9.91316 13.2774 9.91316 13.2781 9.91316C13.2788 9.91316 13.2794 9.91316 13.2801 9.91316C13.2807 9.91316 13.2814 9.91316 13.2821 9.91316C13.2827 9.91316 13.2834 9.91316 13.284 9.91316C13.2847 9.91316 13.2854 9.91316 13.286 9.91316C13.2867 9.91316 13.2873 9.91316 13.288 9.91316C13.2886 9.91316 13.2893 9.91316 13.29 9.91316C13.2906 9.91316 13.2913 9.91316 13.2919 9.91316C13.2926 9.91316 13.2933 9.91316 13.2939 9.91316C13.2946 9.91316 13.2952 9.91316 13.2959 9.91316C13.2966 9.91316 13.2972 9.91316 13.2979 9.91316C13.2985 9.91316 13.2992 9.91316 13.2999 9.91316C13.3005 9.91316 13.3012 9.91316 13.3018 9.91316C13.3025 9.91316 13.3031 9.91316 13.3038 9.91316C13.3045 9.91316 13.3051 9.91316 13.3058 9.91316C13.3064 9.91316 13.3071 9.91316 13.3078 9.91316C13.3084 9.91316 13.3091 9.91316 13.3097 9.91316C13.3104 9.91316 13.3111 9.91316 13.3117 9.91316C13.3124 9.91316 13.313 9.91316 13.3137 9.91316C13.3144 9.91316 13.315 9.91316 13.3157 9.91316C13.3163 9.91316 13.317 9.91316 13.3177 9.91316C13.3183 9.91316 13.319 9.91316 13.3196 9.91316C13.3203 9.91316 13.3209 9.91316 13.3216 9.91316C13.3223 9.91316 13.3229 9.91316 13.3236 9.91316C13.3242 9.91316 13.3249 9.91316 13.3256 9.91316C13.3262 9.91316 13.3269 9.91316 13.3275 9.91316C13.3282 9.91316 13.3289 9.91316 13.3295 9.91316C13.3302 9.91316 13.3308 9.91316 13.3315 9.91316C13.3322 9.91316 13.3328 9.91316 13.3335 9.91316C13.3341 9.91316 13.3348 9.91316 13.3354 9.91316C13.3361 9.91316 13.3368 9.91316 13.3374 9.91316C13.3381 9.91316 13.3387 9.91316 13.3394 9.91316C13.3401 9.91316 13.3407 9.91316 13.3414 9.91316C13.342 9.91316 13.3427 9.91316 13.3434 9.91316C13.344 9.91316 13.3447 9.91316 13.3453 9.91316C13.346 9.91316 13.3467 9.91316 13.3473 9.91316C13.348 9.91316 13.3486 9.91316 13.3493 9.91316C13.35 9.91316 13.3506 9.91316 13.3513 9.91316C13.3519 9.91316 13.3526 9.91316 13.3532 9.91316C13.3539 9.91316 13.3546 9.91316 13.3552 9.91316C13.3559 9.91316 13.3565 9.91316 13.3572 9.91316C13.3579 9.91316 13.3585 9.91316 13.3592 9.91316C13.3598 9.91316 13.3605 9.91316 13.3612 9.91316C13.3618 9.91316 13.3625 9.91316 13.3631 9.91316C13.3638 9.91316 13.3645 9.91316 13.3651 9.91316C13.3658 9.91316 13.3664 9.91316 13.3671 9.91316C13.3677 9.91316 13.3684 9.91316 13.3691 9.91316C13.3697 9.91316 13.3704 9.91316 13.371 9.91316C13.3717 9.91316 13.3724 9.91316 13.373 9.91316C13.3737 9.91316 13.3743 9.91316 13.375 9.91316V8.61316ZM12.3625 8.61316C11.9523 8.61316 11.6 8.94285 11.6 9.37368H12.9C12.9 9.68242 12.6485 9.91316 12.3625 9.91316V8.61316ZM11.6 9.37368C11.6 9.37421 11.6 9.37474 11.6 9.37527C11.6 9.37579 11.6 9.37632 11.6 9.37685C11.6 9.37738 11.6 9.37791 11.6 9.37843C11.6 9.37896 11.6 9.37949 11.6 9.38002C11.6 9.38054 11.6 9.38107 11.6 9.3816C11.6 9.38213 11.6 9.38265 11.6 9.38318C11.6 9.38371 11.6 9.38424 11.6 9.38476C11.6 9.38529 11.6 9.38582 11.6 9.38635C11.6 9.38688 11.6 9.3874 11.6 9.38793C11.6 9.38846 11.6 9.38899 11.6 9.38951C11.6 9.39004 11.6 9.39057 11.6 9.3911C11.6 9.39162 11.6 9.39215 11.6 9.39268C11.6 9.39321 11.6 9.39373 11.6 9.39426C11.6 9.39479 11.6 9.39532 11.6 9.39585C11.6 9.39637 11.6 9.3969 11.6 9.39743C11.6 9.39796 11.6 9.39848 11.6 9.39901C11.6 9.39954 11.6 9.40007 11.6 9.40059C11.6 9.40112 11.6 9.40165 11.6 9.40218C11.6 9.40271 11.6 9.40323 11.6 9.40376C11.6 9.40429 11.6 9.40482 11.6 9.40534C11.6 9.40587 11.6 9.4064 11.6 9.40693C11.6 9.40745 11.6 9.40798 11.6 9.40851C11.6 9.40904 11.6 9.40956 11.6 9.41009C11.6 9.41062 11.6 9.41115 11.6 9.41168C11.6 9.4122 11.6 9.41273 11.6 9.41326C11.6 9.41379 11.6 9.41431 11.6 9.41484C11.6 9.41537 11.6 9.4159 11.6 9.41642C11.6 9.41695 11.6 9.41748 11.6 9.41801C11.6 9.41854 11.6 9.41906 11.6 9.41959C11.6 9.42012 11.6 9.42065 11.6 9.42117C11.6 9.4217 11.6 9.42223 11.6 9.42276C11.6 9.42328 11.6 9.42381 11.6 9.42434C11.6 9.42487 11.6 9.4254 11.6 9.42592C11.6 9.42645 11.6 9.42698 11.6 9.42751C11.6 9.42803 11.6 9.42856 11.6 9.42909C11.6 9.42962 11.6 9.43014 11.6 9.43067C11.6 9.4312 11.6 9.43173 11.6 9.43225C11.6 9.43278 11.6 9.43331 11.6 9.43384C11.6 9.43437 11.6 9.43489 11.6 9.43542C11.6 9.43595 11.6 9.43648 11.6 9.437C11.6 9.43753 11.6 9.43806 11.6 9.43859C11.6 9.43911 11.6 9.43964 11.6 9.44017C11.6 9.4407 11.6 9.44123 11.6 9.44175C11.6 9.44228 11.6 9.44281 11.6 9.44334C11.6 9.44386 11.6 9.44439 11.6 9.44492C11.6 9.44545 11.6 9.44597 11.6 9.4465C11.6 9.44703 11.6 9.44756 11.6 9.44809C11.6 9.44861 11.6 9.44914 11.6 9.44967C11.6 9.4502 11.6 9.45072 11.6 9.45125C11.6 9.45178 11.6 9.45231 11.6 9.45283C11.6 9.45336 11.6 9.45389 11.6 9.45442C11.6 9.45495 11.6 9.45547 11.6 9.456C11.6 9.45653 11.6 9.45706 11.6 9.45758C11.6 9.45811 11.6 9.45864 11.6 9.45917C11.6 9.45969 11.6 9.46022 11.6 9.46075C11.6 9.46128 11.6 9.4618 11.6 9.46233C11.6 9.46286 11.6 9.46339 11.6 9.46392C11.6 9.46444 11.6 9.46497 11.6 9.4655C11.6 9.46603 11.6 9.46655 11.6 9.46708C11.6 9.46761 11.6 9.46814 11.6 9.46866C11.6 9.46919 11.6 9.46972 11.6 9.47025C11.6 9.47078 11.6 9.4713 11.6 9.47183C11.6 9.47236 11.6 9.47289 11.6 9.47341C11.6 9.47394 11.6 9.47447 11.6 9.475C11.6 9.47552 11.6 9.47605 11.6 9.47658C11.6 9.47711 11.6 9.47763 11.6 9.47816C11.6 9.47869 11.6 9.47922 11.6 9.47975C11.6 9.48027 11.6 9.4808 11.6 9.48133C11.6 9.48186 11.6 9.48238 11.6 9.48291C11.6 9.48344 11.6 9.48397 11.6 9.48449C11.6 9.48502 11.6 9.48555 11.6 9.48608C11.6 9.48661 11.6 9.48713 11.6 9.48766C11.6 9.48819 11.6 9.48872 11.6 9.48924C11.6 9.48977 11.6 9.4903 11.6 9.49083C11.6 9.49135 11.6 9.49188 11.6 9.49241C11.6 9.49294 11.6 9.49347 11.6 9.49399C11.6 9.49452 11.6 9.49505 11.6 9.49558C11.6 9.4961 11.6 9.49663 11.6 9.49716C11.6 9.49769 11.6 9.49821 11.6 9.49874C11.6 9.49927 11.6 9.4998 11.6 9.50033C11.6 9.50085 11.6 9.50138 11.6 9.50191C11.6 9.50244 11.6 9.50296 11.6 9.50349C11.6 9.50402 11.6 9.50455 11.6 9.50507C11.6 9.5056 11.6 9.50613 11.6 9.50666C11.6 9.50718 11.6 9.50771 11.6 9.50824C11.6 9.50877 11.6 9.5093 11.6 9.50982C11.6 9.51035 11.6 9.51088 11.6 9.51141C11.6 9.51193 11.6 9.51246 11.6 9.51299C11.6 9.51352 11.6 9.51405 11.6 9.51457C11.6 9.5151 11.6 9.51563 11.6 9.51616C11.6 9.51668 11.6 9.51721 11.6 9.51774C11.6 9.51827 11.6 9.51879 11.6 9.51932C11.6 9.51985 11.6 9.52038 11.6 9.52091C11.6 9.52143 11.6 9.52196 11.6 9.52249C11.6 9.52302 11.6 9.52354 11.6 9.52407C11.6 9.5246 11.6 9.52513 11.6 9.52565C11.6 9.52618 11.6 9.52671 11.6 9.52724C11.6 9.52776 11.6 9.52829 11.6 9.52882C11.6 9.52935 11.6 9.52988 11.6 9.5304C11.6 9.53093 11.6 9.53146 11.6 9.53199C11.6 9.53251 11.6 9.53304 11.6 9.53357C11.6 9.5341 11.6 9.53462 11.6 9.53515C11.6 9.53568 11.6 9.53621 11.6 9.53674C11.6 9.53726 11.6 9.53779 11.6 9.53832C11.6 9.53885 11.6 9.53937 11.6 9.5399C11.6 9.54043 11.6 9.54096 11.6 9.54148C11.6 9.54201 11.6 9.54254 11.6 9.54307C11.6 9.5436 11.6 9.54412 11.6 9.54465C11.6 9.54518 11.6 9.54571 11.6 9.54623C11.6 9.54676 11.6 9.54729 11.6 9.54782C11.6 9.54834 11.6 9.54887 11.6 9.5494C11.6 9.54993 11.6 9.55046 11.6 9.55098C11.6 9.55151 11.6 9.55204 11.6 9.55257C11.6 9.55309 11.6 9.55362 11.6 9.55415C11.6 9.55468 11.6 9.5552 11.6 9.55573C11.6 9.55626 11.6 9.55679 11.6 9.55732C11.6 9.55784 11.6 9.55837 11.6 9.5589C11.6 9.55943 11.6 9.55995 11.6 9.56048C11.6 9.56101 11.6 9.56154 11.6 9.56206C11.6 9.56259 11.6 9.56312 11.6 9.56365C11.6 9.56418 11.6 9.5647 11.6 9.56523C11.6 9.56576 11.6 9.56629 11.6 9.56681C11.6 9.56734 11.6 9.56787 11.6 9.5684C11.6 9.56892 11.6 9.56945 11.6 9.56998C11.6 9.57051 11.6 9.57103 11.6 9.57156C11.6 9.57209 11.6 9.57262 11.6 9.57315C11.6 9.57367 11.6 9.5742 11.6 9.57473C11.6 9.57526 11.6 9.57578 11.6 9.57631C11.6 9.57684 11.6 9.57737 11.6 9.5779C11.6 9.57842 11.6 9.57895 11.6 9.57948C11.6 9.58001 11.6 9.58053 11.6 9.58106C11.6 9.58159 11.6 9.58212 11.6 9.58264C11.6 9.58317 11.6 9.5837 11.6 9.58423C11.6 9.58475 11.6 9.58528 11.6 9.58581C11.6 9.58634 11.6 9.58687 11.6 9.58739C11.6 9.58792 11.6 9.58845 11.6 9.58898C11.6 9.5895 11.6 9.59003 11.6 9.59056C11.6 9.59109 11.6 9.59162 11.6 9.59214C11.6 9.59267 11.6 9.5932 11.6 9.59373C11.6 9.59425 11.6 9.59478 11.6 9.59531C11.6 9.59584 11.6 9.59636 11.6 9.59689C11.6 9.59742 11.6 9.59795 11.6 9.59847C11.6 9.599 11.6 9.59953 11.6 9.60006C11.6 9.60059 11.6 9.60111 11.6 9.60164C11.6 9.60217 11.6 9.6027 11.6 9.60322C11.6 9.60375 11.6 9.60428 11.6 9.60481C11.6 9.60534 11.6 9.60586 11.6 9.60639C11.6 9.60692 11.6 9.60745 11.6 9.60797C11.6 9.6085 11.6 9.60903 11.6 9.60956C11.6 9.61008 11.6 9.61061 11.6 9.61114C11.6 9.61167 11.6 9.6122 11.6 9.61272C11.6 9.61325 11.6 9.61378 11.6 9.61431C11.6 9.61483 11.6 9.61536 11.6 9.61589C11.6 9.61642 11.6 9.61694 11.6 9.61747C11.6 9.618 11.6 9.61853 11.6 9.61905C11.6 9.61958 11.6 9.62011 11.6 9.62064C11.6 9.62117 11.6 9.62169 11.6 9.62222C11.6 9.62275 11.6 9.62328 11.6 9.6238C11.6 9.62433 11.6 9.62486 11.6 9.62539C11.6 9.62592 11.6 9.62644 11.6 9.62697C11.6 9.6275 11.6 9.62803 11.6 9.62855C11.6 9.62908 11.6 9.62961 11.6 9.63014C11.6 9.63066 11.6 9.63119 11.6 9.63172C11.6 9.63225 11.6 9.63277 11.6 9.6333C11.6 9.63383 11.6 9.63436 11.6 9.63489C11.6 9.63541 11.6 9.63594 11.6 9.63647C11.6 9.637 11.6 9.63752 11.6 9.63805C11.6 9.63858 11.6 9.63911 11.6 9.63964C11.6 9.64016 11.6 9.64069 11.6 9.64122C11.6 9.64175 11.6 9.64227 11.6 9.6428C11.6 9.64333 11.6 9.64386 11.6 9.64438C11.6 9.64491 11.6 9.64544 11.6 9.64597C11.6 9.64649 11.6 9.64702 11.6 9.64755C11.6 9.64808 11.6 9.64861 11.6 9.64913C11.6 9.64966 11.6 9.65019 11.6 9.65072C11.6 9.65124 11.6 9.65177 11.6 9.6523C11.6 9.65283 11.6 9.65336 11.6 9.65388C11.6 9.65441 11.6 9.65494 11.6 9.65547C11.6 9.65599 11.6 9.65652 11.6 9.65705C11.6 9.65758 11.6 9.6581 11.6 9.65863C11.6 9.65916 11.6 9.65969 11.6 9.66022C11.6 9.66074 11.6 9.66127 11.6 9.6618C11.6 9.66233 11.6 9.66285 11.6 9.66338C11.6 9.66391 11.6 9.66444 11.6 9.66496C11.6 9.66549 11.6 9.66602 11.6 9.66655C11.6 9.66708 11.6 9.6676 11.6 9.66813C11.6 9.66866 11.6 9.66919 11.6 9.66971C11.6 9.67024 11.6 9.67077 11.6 9.6713C11.6 9.67182 11.6 9.67235 11.6 9.67288C11.6 9.67341 11.6 9.67394 11.6 9.67446C11.6 9.67499 11.6 9.67552 11.6 9.67605C11.6 9.67657 11.6 9.6771 11.6 9.67763C11.6 9.67816 11.6 9.67868 11.6 9.67921C11.6 9.67974 11.6 9.68027 11.6 9.6808C11.6 9.68132 11.6 9.68185 11.6 9.68238C11.6 9.68291 11.6 9.68343 11.6 9.68396C11.6 9.68449 11.6 9.68502 11.6 9.68554C11.6 9.68607 11.6 9.6866 11.6 9.68713C11.6 9.68766 11.6 9.68818 11.6 9.68871C11.6 9.68924 11.6 9.68977 11.6 9.69029C11.6 9.69082 11.6 9.69135 11.6 9.69188C11.6 9.6924 11.6 9.69293 11.6 9.69346C11.6 9.69399 11.6 9.69452 11.6 9.69504C11.6 9.69557 11.6 9.6961 11.6 9.69663C11.6 9.69715 11.6 9.69768 11.6 9.69821C11.6 9.69874 11.6 9.69926 11.6 9.69979C11.6 9.70032 11.6 9.70085 11.6 9.70138C11.6 9.7019 11.6 9.70243 11.6 9.70296C11.6 9.70349 11.6 9.70401 11.6 9.70454C11.6 9.70507 11.6 9.7056 11.6 9.70612C11.6 9.70665 11.6 9.70718 11.6 9.70771C11.6 9.70824 11.6 9.70876 11.6 9.70929C11.6 9.70982 11.6 9.71035 11.6 9.71087C11.6 9.7114 11.6 9.71193 11.6 9.71246C11.6 9.71299 11.6 9.71351 11.6 9.71404C11.6 9.71457 11.6 9.7151 11.6 9.71562C11.6 9.71615 11.6 9.71668 11.6 9.71721C11.6 9.71773 11.6 9.71826 11.6 9.71879C11.6 9.71932 11.6 9.71984 11.6 9.72037C11.6 9.7209 11.6 9.72143 11.6 9.72196C11.6 9.72248 11.6 9.72301 11.6 9.72354C11.6 9.72407 11.6 9.72459 11.6 9.72512C11.6 9.72565 11.6 9.72618 11.6 9.72671C11.6 9.72723 11.6 9.72776 11.6 9.72829C11.6 9.72882 11.6 9.72934 11.6 9.72987C11.6 9.7304 11.6 9.73093 11.6 9.73145C11.6 9.73198 11.6 9.73251 11.6 9.73304C11.6 9.73356 11.6 9.73409 11.6 9.73462C11.6 9.73515 11.6 9.73568 11.6 9.7362C11.6 9.73673 11.6 9.73726 11.6 9.73779C11.6 9.73831 11.6 9.73884 11.6 9.73937C11.6 9.7399 11.6 9.74043 11.6 9.74095C11.6 9.74148 11.6 9.74201 11.6 9.74254C11.6 9.74306 11.6 9.74359 11.6 9.74412C11.6 9.74465 11.6 9.74517 11.6 9.7457C11.6 9.74623 11.6 9.74676 11.6 9.74729C11.6 9.74781 11.6 9.74834 11.6 9.74887C11.6 9.7494 11.6 9.74992 11.6 9.75045C11.6 9.75098 11.6 9.75151 11.6 9.75203C11.6 9.75256 11.6 9.75309 11.6 9.75362C11.6 9.75415 11.6 9.75467 11.6 9.7552C11.6 9.75573 11.6 9.75626 11.6 9.75678C11.6 9.75731 11.6 9.75784 11.6 9.75837C11.6 9.75889 11.6 9.75942 11.6 9.75995C11.6 9.76048 11.6 9.76101 11.6 9.76153C11.6 9.76206 11.6 9.76259 11.6 9.76312C11.6 9.76364 11.6 9.76417 11.6 9.7647C11.6 9.76523 11.6 9.76575 11.6 9.76628C11.6 9.76681 11.6 9.76734 11.6 9.76787C11.6 9.76839 11.6 9.76892 11.6 9.76945C11.6 9.76998 11.6 9.7705 11.6 9.77103C11.6 9.77156 11.6 9.77209 11.6 9.77261C11.6 9.77314 11.6 9.77367 11.6 9.7742C11.6 9.77473 11.6 9.77525 11.6 9.77578C11.6 9.77631 11.6 9.77684 11.6 9.77736C11.6 9.77789 11.6 9.77842 11.6 9.77895C11.6 9.77947 11.6 9.78 11.6 9.78053C11.6 9.78106 11.6 9.78159 11.6 9.78211C11.6 9.78264 11.6 9.78317 11.6 9.7837C11.6 9.78422 11.6 9.78475 11.6 9.78528C11.6 9.78581 11.6 9.78633 11.6 9.78686C11.6 9.78739 11.6 9.78792 11.6 9.78845C11.6 9.78897 11.6 9.7895 11.6 9.79003C11.6 9.79056 11.6 9.79108 11.6 9.79161C11.6 9.79214 11.6 9.79267 11.6 9.79319C11.6 9.79372 11.6 9.79425 11.6 9.79478C11.6 9.79531 11.6 9.79583 11.6 9.79636C11.6 9.79689 11.6 9.79742 11.6 9.79794C11.6 9.79847 11.6 9.799 11.6 9.79953C11.6 9.80006 11.6 9.80058 11.6 9.80111C11.6 9.80164 11.6 9.80217 11.6 9.80269C11.6 9.80322 11.6 9.80375 11.6 9.80428C11.6 9.8048 11.6 9.80533 11.6 9.80586C11.6 9.80639 11.6 9.80692 11.6 9.80744C11.6 9.80797 11.6 9.8085 11.6 9.80903C11.6 9.80955 11.6 9.81008 11.6 9.81061C11.6 9.81114 11.6 9.81166 11.6 9.81219C11.6 9.81272 11.6 9.81325 11.6 9.81378C11.6 9.8143 11.6 9.81483 11.6 9.81536C11.6 9.81589 11.6 9.81641 11.6 9.81694C11.6 9.81747 11.6 9.818 11.6 9.81852C11.6 9.81905 11.6 9.81958 11.6 9.82011C11.6 9.82064 11.6 9.82116 11.6 9.82169C11.6 9.82222 11.6 9.82275 11.6 9.82327C11.6 9.8238 11.6 9.82433 11.6 9.82486C11.6 9.82538 11.6 9.82591 11.6 9.82644C11.6 9.82697 11.6 9.8275 11.6 9.82802C11.6 9.82855 11.6 9.82908 11.6 9.82961C11.6 9.83013 11.6 9.83066 11.6 9.83119C11.6 9.83172 11.6 9.83224 11.6 9.83277C11.6 9.8333 11.6 9.83383 11.6 9.83436C11.6 9.83488 11.6 9.83541 11.6 9.83594C11.6 9.83647 11.6 9.83699 11.6 9.83752C11.6 9.83805 11.6 9.83858 11.6 9.8391C11.6 9.83963 11.6 9.84016 11.6 9.84069C11.6 9.84122 11.6 9.84174 11.6 9.84227C11.6 9.8428 11.6 9.84333 11.6 9.84385C11.6 9.84438 11.6 9.84491 11.6 9.84544C11.6 9.84596 11.6 9.84649 11.6 9.84702C11.6 9.84755 11.6 9.84808 11.6 9.8486C11.6 9.84913 11.6 9.84966 11.6 9.85019C11.6 9.85071 11.6 9.85124 11.6 9.85177C11.6 9.8523 11.6 9.85282 11.6 9.85335C11.6 9.85388 11.6 9.85441 11.6 9.85494C11.6 9.85546 11.6 9.85599 11.6 9.85652C11.6 9.85705 11.6 9.85757 11.6 9.8581C11.6 9.85863 11.6 9.85916 11.6 9.85968C11.6 9.86021 11.6 9.86074 11.6 9.86127C11.6 9.8618 11.6 9.86232 11.6 9.86285C11.6 9.86338 11.6 9.86391 11.6 9.86443C11.6 9.86496 11.6 9.86549 11.6 9.86602C11.6 9.86655 11.6 9.86707 11.6 9.8676C11.6 9.86813 11.6 9.86866 11.6 9.86918C11.6 9.86971 11.6 9.87024 11.6 9.87077C11.6 9.87129 11.6 9.87182 11.6 9.87235C11.6 9.87288 11.6 9.8734 11.6 9.87393C11.6 9.87446 11.6 9.87499 11.6 9.87552C11.6 9.87604 11.6 9.87657 11.6 9.8771C11.6 9.87763 11.6 9.87815 11.6 9.87868C11.6 9.87921 11.6 9.87974 11.6 9.88027C11.6 9.88079 11.6 9.88132 11.6 9.88185C11.6 9.88238 11.6 9.8829 11.6 9.88343C11.6 9.88396 11.6 9.88449 11.6 9.88501C11.6 9.88554 11.6 9.88607 11.6 9.8866C11.6 9.88713 11.6 9.88765 11.6 9.88818C11.6 9.88871 11.6 9.88924 11.6 9.88976C11.6 9.89029 11.6 9.89082 11.6 9.89135C11.6 9.89187 11.6 9.8924 11.6 9.89293C11.6 9.89346 11.6 9.89399 11.6 9.89451C11.6 9.89504 11.6 9.89557 11.6 9.8961C11.6 9.89662 11.6 9.89715 11.6 9.89768C11.6 9.89821 11.6 9.89873 11.6 9.89926C11.6 9.89979 11.6 9.90032 11.6 9.90085C11.6 9.90137 11.6 9.9019 11.6 9.90243C11.6 9.90296 11.6 9.90348 11.6 9.90401C11.6 9.90454 11.6 9.90507 11.6 9.90559C11.6 9.90612 11.6 9.90665 11.6 9.90718C11.6 9.90771 11.6 9.90823 11.6 9.90876C11.6 9.90929 11.6 9.90982 11.6 9.91034C11.6 9.91087 11.6 9.9114 11.6 9.91193C11.6 9.91245 11.6 9.91298 11.6 9.91351C11.6 9.91404 11.6 9.91457 11.6 9.91509C11.6 9.91562 11.6 9.91615 11.6 9.91668C11.6 9.9172 11.6 9.91773 11.6 9.91826C11.6 9.91879 11.6 9.91931 11.6 9.91984C11.6 9.92037 11.6 9.9209 11.6 9.92143C11.6 9.92195 11.6 9.92248 11.6 9.92301C11.6 9.92354 11.6 9.92406 11.6 9.92459C11.6 9.92512 11.6 9.92565 11.6 9.92617C11.6 9.9267 11.6 9.92723 11.6 9.92776C11.6 9.92829 11.6 9.92881 11.6 9.92934C11.6 9.92987 11.6 9.9304 11.6 9.93092C11.6 9.93145 11.6 9.93198 11.6 9.93251C11.6 9.93303 11.6 9.93356 11.6 9.93409C11.6 9.93462 11.6 9.93515 11.6 9.93567C11.6 9.9362 11.6 9.93673 11.6 9.93726C11.6 9.93778 11.6 9.93831 11.6 9.93884C11.6 9.93937 11.6 9.93989 11.6 9.94042C11.6 9.94095 11.6 9.94148 11.6 9.94201C11.6 9.94253 11.6 9.94306 11.6 9.94359C11.6 9.94412 11.6 9.94464 11.6 9.94517C11.6 9.9457 11.6 9.94623 11.6 9.94675C11.6 9.94728 11.6 9.94781 11.6 9.94834C11.6 9.94887 11.6 9.94939 11.6 9.94992C11.6 9.95045 11.6 9.95098 11.6 9.9515C11.6 9.95203 11.6 9.95256 11.6 9.95309C11.6 9.95361 11.6 9.95414 11.6 9.95467C11.6 9.9552 11.6 9.95573 11.6 9.95625C11.6 9.95678 11.6 9.95731 11.6 9.95784C11.6 9.95836 11.6 9.95889 11.6 9.95942C11.6 9.95995 11.6 9.96047 11.6 9.961C11.6 9.96153 11.6 9.96206 11.6 9.96259C11.6 9.96311 11.6 9.96364 11.6 9.96417C11.6 9.9647 11.6 9.96522 11.6 9.96575C11.6 9.96628 11.6 9.96681 11.6 9.96733C11.6 9.96786 11.6 9.96839 11.6 9.96892C11.6 9.96945 11.6 9.96997 11.6 9.9705C11.6 9.97103 11.6 9.97156 11.6 9.97208C11.6 9.97261 11.6 9.97314 11.6 9.97367C11.6 9.97419 11.6 9.97472 11.6 9.97525C11.6 9.97578 11.6 9.97631 11.6 9.97683C11.6 9.97736 11.6 9.97789 11.6 9.97842C11.6 9.97894 11.6 9.97947 11.6 9.98C11.6 9.98053 11.6 9.98105 11.6 9.98158C11.6 9.98211 11.6 9.98264 11.6 9.98317C11.6 9.98369 11.6 9.98422 11.6 9.98475C11.6 9.98528 11.6 9.9858 11.6 9.98633C11.6 9.98686 11.6 9.98739 11.6 9.98791C11.6 9.98844 11.6 9.98897 11.6 9.9895C11.6 9.99003 11.6 9.99055 11.6 9.99108C11.6 9.99161 11.6 9.99214 11.6 9.99266C11.6 9.99319 11.6 9.99372 11.6 9.99425C11.6 9.99477 11.6 9.9953 11.6 9.99583C11.6 9.99636 11.6 9.99689 11.6 9.99741C11.6 9.99794 11.6 9.99847 11.6 9.999C11.6 9.99952 11.6 10.0001 11.6 10.0006C11.6 10.0011 11.6 10.0016 11.6 10.0022C11.6 10.0027 11.6 10.0032 11.6 10.0037C11.6 10.0043 11.6 10.0048 11.6 10.0053C11.6 10.0059 11.6 10.0064 11.6 10.0069C11.6 10.0074 11.6 10.008 11.6 10.0085C11.6 10.009 11.6 10.0095 11.6 10.0101C11.6 10.0106 11.6 10.0111 11.6 10.0117C11.6 10.0122 11.6 10.0127 11.6 10.0132C11.6 10.0138 11.6 10.0143 11.6 10.0148C11.6 10.0154 11.6 10.0159 11.6 10.0164C11.6 10.0169 11.6 10.0175 11.6 10.018C11.6 10.0185 11.6 10.019 11.6 10.0196C11.6 10.0201 11.6 10.0206 11.6 10.0212C11.6 10.0217 11.6 10.0222 11.6 10.0227C11.6 10.0233 11.6 10.0238 11.6 10.0243C11.6 10.0249 11.6 10.0254 11.6 10.0259C11.6 10.0264 11.6 10.027 11.6 10.0275C11.6 10.028 11.6 10.0285 11.6 10.0291C11.6 10.0296 11.6 10.0301 11.6 10.0307C11.6 10.0312 11.6 10.0317 11.6 10.0322C11.6 10.0328 11.6 10.0333 11.6 10.0338C11.6 10.0344 11.6 10.0349 11.6 10.0354C11.6 10.0359 11.6 10.0365 11.6 10.037C11.6 10.0375 11.6 10.038 11.6 10.0386C11.6 10.0391 11.6 10.0396 11.6 10.0402C11.6 10.0407 11.6 10.0412 11.6 10.0417C11.6 10.0423 11.6 10.0428 11.6 10.0433C11.6 10.0438 11.6 10.0444 11.6 10.0449C11.6 10.0454 11.6 10.046 11.6 10.0465C11.6 10.047 11.6 10.0475 11.6 10.0481C11.6 10.0486 11.6 10.0491 11.6 10.0497C11.6 10.0502 11.6 10.0507 11.6 10.0512C11.6 10.0518 11.6 10.0523 11.6 10.0528C11.6 10.0533 11.6 10.0539 11.6 10.0544C11.6 10.0549 11.6 10.0555 11.6 10.056C11.6 10.0565 11.6 10.057 11.6 10.0576C11.6 10.0581 11.6 10.0586 11.6 10.0592C11.6 10.0597 11.6 10.0602 11.6 10.0607C11.6 10.0613 11.6 10.0618 11.6 10.0623C11.6 10.0628 11.6 10.0634 11.6 10.0639C11.6 10.0644 11.6 10.065 11.6 10.0655C11.6 10.066 11.6 10.0665 11.6 10.0671C11.6 10.0676 11.6 10.0681 11.6 10.0687C11.6 10.0692 11.6 10.0697 11.6 10.0702C11.6 10.0708 11.6 10.0713 11.6 10.0718C11.6 10.0723 11.6 10.0729 11.6 10.0734C11.6 10.0739 11.6 10.0745 11.6 10.075C11.6 10.0755 11.6 10.076 11.6 10.0766C11.6 10.0771 11.6 10.0776 11.6 10.0781C11.6 10.0787 11.6 10.0792 11.6 10.0797C11.6 10.0803 11.6 10.0808 11.6 10.0813C11.6 10.0818 11.6 10.0824 11.6 10.0829C11.6 10.0834 11.6 10.084 11.6 10.0845C11.6 10.085 11.6 10.0855 11.6 10.0861C11.6 10.0866 11.6 10.0871 11.6 10.0876C11.6 10.0882 11.6 10.0887 11.6 10.0892C11.6 10.0898 11.6 10.0903 11.6 10.0908C11.6 10.0913 11.6 10.0919 11.6 10.0924C11.6 10.0929 11.6 10.0935 11.6 10.094C11.6 10.0945 11.6 10.095 11.6 10.0956C11.6 10.0961 11.6 10.0966 11.6 10.0971C11.6 10.0977 11.6 10.0982 11.6 10.0987C11.6 10.0993 11.6 10.0998 11.6 10.1003C11.6 10.1008 11.6 10.1014 11.6 10.1019C11.6 10.1024 11.6 10.1029 11.6 10.1035C11.6 10.104 11.6 10.1045 11.6 10.1051C11.6 10.1056 11.6 10.1061 11.6 10.1066C11.6 10.1072 11.6 10.1077 11.6 10.1082C11.6 10.1088 11.6 10.1093 11.6 10.1098C11.6 10.1103 11.6 10.1109 11.6 10.1114C11.6 10.1119 11.6 10.1124 11.6 10.113C11.6 10.1135 11.6 10.114 11.6 10.1146C11.6 10.1151 11.6 10.1156 11.6 10.1161C11.6 10.1167 11.6 10.1172 11.6 10.1177C11.6 10.1183 11.6 10.1188 11.6 10.1193C11.6 10.1198 11.6 10.1204 11.6 10.1209C11.6 10.1214 11.6 10.1219 11.6 10.1225C11.6 10.123 11.6 10.1235 11.6 10.1241C11.6 10.1246 11.6 10.1251 11.6 10.1256C11.6 10.1262 11.6 10.1267 11.6 10.1272C11.6 10.1277 11.6 10.1283 11.6 10.1288C11.6 10.1293 11.6 10.1299 11.6 10.1304C11.6 10.1309 11.6 10.1314 11.6 10.132C11.6 10.1325 11.6 10.133 11.6 10.1336C11.6 10.1341 11.6 10.1346 11.6 10.1351C11.6 10.1357 11.6 10.1362 11.6 10.1367C11.6 10.1372 11.6 10.1378 11.6 10.1383C11.6 10.1388 11.6 10.1394 11.6 10.1399C11.6 10.1404 11.6 10.1409 11.6 10.1415C11.6 10.142 11.6 10.1425 11.6 10.1431C11.6 10.1436 11.6 10.1441 11.6 10.1446C11.6 10.1452 11.6 10.1457 11.6 10.1462C11.6 10.1467 11.6 10.1473 11.6 10.1478C11.6 10.1483 11.6 10.1489 11.6 10.1494C11.6 10.1499 11.6 10.1504 11.6 10.151C11.6 10.1515 11.6 10.152 11.6 10.1526C11.6 10.1531 11.6 10.1536 11.6 10.1541C11.6 10.1547 11.6 10.1552 11.6 10.1557C11.6 10.1562 11.6 10.1568 11.6 10.1573C11.6 10.1578 11.6 10.1584 11.6 10.1589C11.6 10.1594 11.6 10.1599 11.6 10.1605C11.6 10.161 11.6 10.1615 11.6 10.162C11.6 10.1626 11.6 10.1631 11.6 10.1636C11.6 10.1642 11.6 10.1647 11.6 10.1652C11.6 10.1657 11.6 10.1663 11.6 10.1668C11.6 10.1673 11.6 10.1679 11.6 10.1684C11.6 10.1689 11.6 10.1694 11.6 10.17C11.6 10.1705 11.6 10.171 11.6 10.1715C11.6 10.1721 11.6 10.1726 11.6 10.1731C11.6 10.1737 11.6 10.1742 11.6 10.1747C11.6 10.1752 11.6 10.1758 11.6 10.1763C11.6 10.1768 11.6 10.1774 11.6 10.1779C11.6 10.1784 11.6 10.1789 11.6 10.1795C11.6 10.18 11.6 10.1805 11.6 10.181C11.6 10.1816 11.6 10.1821 11.6 10.1826C11.6 10.1832 11.6 10.1837 11.6 10.1842H12.9C12.9 10.1837 12.9 10.1832 12.9 10.1826C12.9 10.1821 12.9 10.1816 12.9 10.181C12.9 10.1805 12.9 10.18 12.9 10.1795C12.9 10.1789 12.9 10.1784 12.9 10.1779C12.9 10.1774 12.9 10.1768 12.9 10.1763C12.9 10.1758 12.9 10.1752 12.9 10.1747C12.9 10.1742 12.9 10.1737 12.9 10.1731C12.9 10.1726 12.9 10.1721 12.9 10.1715C12.9 10.171 12.9 10.1705 12.9 10.17C12.9 10.1694 12.9 10.1689 12.9 10.1684C12.9 10.1679 12.9 10.1673 12.9 10.1668C12.9 10.1663 12.9 10.1657 12.9 10.1652C12.9 10.1647 12.9 10.1642 12.9 10.1636C12.9 10.1631 12.9 10.1626 12.9 10.162C12.9 10.1615 12.9 10.161 12.9 10.1605C12.9 10.1599 12.9 10.1594 12.9 10.1589C12.9 10.1584 12.9 10.1578 12.9 10.1573C12.9 10.1568 12.9 10.1562 12.9 10.1557C12.9 10.1552 12.9 10.1547 12.9 10.1541C12.9 10.1536 12.9 10.1531 12.9 10.1526C12.9 10.152 12.9 10.1515 12.9 10.151C12.9 10.1504 12.9 10.1499 12.9 10.1494C12.9 10.1489 12.9 10.1483 12.9 10.1478C12.9 10.1473 12.9 10.1467 12.9 10.1462C12.9 10.1457 12.9 10.1452 12.9 10.1446C12.9 10.1441 12.9 10.1436 12.9 10.1431C12.9 10.1425 12.9 10.142 12.9 10.1415C12.9 10.1409 12.9 10.1404 12.9 10.1399C12.9 10.1394 12.9 10.1388 12.9 10.1383C12.9 10.1378 12.9 10.1372 12.9 10.1367C12.9 10.1362 12.9 10.1357 12.9 10.1351C12.9 10.1346 12.9 10.1341 12.9 10.1336C12.9 10.133 12.9 10.1325 12.9 10.132C12.9 10.1314 12.9 10.1309 12.9 10.1304C12.9 10.1299 12.9 10.1293 12.9 10.1288C12.9 10.1283 12.9 10.1277 12.9 10.1272C12.9 10.1267 12.9 10.1262 12.9 10.1256C12.9 10.1251 12.9 10.1246 12.9 10.1241C12.9 10.1235 12.9 10.123 12.9 10.1225C12.9 10.1219 12.9 10.1214 12.9 10.1209C12.9 10.1204 12.9 10.1198 12.9 10.1193C12.9 10.1188 12.9 10.1183 12.9 10.1177C12.9 10.1172 12.9 10.1167 12.9 10.1161C12.9 10.1156 12.9 10.1151 12.9 10.1146C12.9 10.114 12.9 10.1135 12.9 10.113C12.9 10.1124 12.9 10.1119 12.9 10.1114C12.9 10.1109 12.9 10.1103 12.9 10.1098C12.9 10.1093 12.9 10.1088 12.9 10.1082C12.9 10.1077 12.9 10.1072 12.9 10.1066C12.9 10.1061 12.9 10.1056 12.9 10.1051C12.9 10.1045 12.9 10.104 12.9 10.1035C12.9 10.1029 12.9 10.1024 12.9 10.1019C12.9 10.1014 12.9 10.1008 12.9 10.1003C12.9 10.0998 12.9 10.0993 12.9 10.0987C12.9 10.0982 12.9 10.0977 12.9 10.0971C12.9 10.0966 12.9 10.0961 12.9 10.0956C12.9 10.095 12.9 10.0945 12.9 10.094C12.9 10.0935 12.9 10.0929 12.9 10.0924C12.9 10.0919 12.9 10.0913 12.9 10.0908C12.9 10.0903 12.9 10.0898 12.9 10.0892C12.9 10.0887 12.9 10.0882 12.9 10.0876C12.9 10.0871 12.9 10.0866 12.9 10.0861C12.9 10.0855 12.9 10.085 12.9 10.0845C12.9 10.084 12.9 10.0834 12.9 10.0829C12.9 10.0824 12.9 10.0818 12.9 10.0813C12.9 10.0808 12.9 10.0803 12.9 10.0797C12.9 10.0792 12.9 10.0787 12.9 10.0781C12.9 10.0776 12.9 10.0771 12.9 10.0766C12.9 10.076 12.9 10.0755 12.9 10.075C12.9 10.0745 12.9 10.0739 12.9 10.0734C12.9 10.0729 12.9 10.0723 12.9 10.0718C12.9 10.0713 12.9 10.0708 12.9 10.0702C12.9 10.0697 12.9 10.0692 12.9 10.0687C12.9 10.0681 12.9 10.0676 12.9 10.0671C12.9 10.0665 12.9 10.066 12.9 10.0655C12.9 10.065 12.9 10.0644 12.9 10.0639C12.9 10.0634 12.9 10.0628 12.9 10.0623C12.9 10.0618 12.9 10.0613 12.9 10.0607C12.9 10.0602 12.9 10.0597 12.9 10.0592C12.9 10.0586 12.9 10.0581 12.9 10.0576C12.9 10.057 12.9 10.0565 12.9 10.056C12.9 10.0555 12.9 10.0549 12.9 10.0544C12.9 10.0539 12.9 10.0533 12.9 10.0528C12.9 10.0523 12.9 10.0518 12.9 10.0512C12.9 10.0507 12.9 10.0502 12.9 10.0497C12.9 10.0491 12.9 10.0486 12.9 10.0481C12.9 10.0475 12.9 10.047 12.9 10.0465C12.9 10.046 12.9 10.0454 12.9 10.0449C12.9 10.0444 12.9 10.0438 12.9 10.0433C12.9 10.0428 12.9 10.0423 12.9 10.0417C12.9 10.0412 12.9 10.0407 12.9 10.0402C12.9 10.0396 12.9 10.0391 12.9 10.0386C12.9 10.038 12.9 10.0375 12.9 10.037C12.9 10.0365 12.9 10.0359 12.9 10.0354C12.9 10.0349 12.9 10.0344 12.9 10.0338C12.9 10.0333 12.9 10.0328 12.9 10.0322C12.9 10.0317 12.9 10.0312 12.9 10.0307C12.9 10.0301 12.9 10.0296 12.9 10.0291C12.9 10.0285 12.9 10.028 12.9 10.0275C12.9 10.027 12.9 10.0264 12.9 10.0259C12.9 10.0254 12.9 10.0249 12.9 10.0243C12.9 10.0238 12.9 10.0233 12.9 10.0227C12.9 10.0222 12.9 10.0217 12.9 10.0212C12.9 10.0206 12.9 10.0201 12.9 10.0196C12.9 10.019 12.9 10.0185 12.9 10.018C12.9 10.0175 12.9 10.0169 12.9 10.0164C12.9 10.0159 12.9 10.0154 12.9 10.0148C12.9 10.0143 12.9 10.0138 12.9 10.0132C12.9 10.0127 12.9 10.0122 12.9 10.0117C12.9 10.0111 12.9 10.0106 12.9 10.0101C12.9 10.0095 12.9 10.009 12.9 10.0085C12.9 10.008 12.9 10.0074 12.9 10.0069C12.9 10.0064 12.9 10.0059 12.9 10.0053C12.9 10.0048 12.9 10.0043 12.9 10.0037C12.9 10.0032 12.9 10.0027 12.9 10.0022C12.9 10.0016 12.9 10.0011 12.9 10.0006C12.9 10.0001 12.9 9.99952 12.9 9.999C12.9 9.99847 12.9 9.99794 12.9 9.99741C12.9 9.99689 12.9 9.99636 12.9 9.99583C12.9 9.9953 12.9 9.99477 12.9 9.99425C12.9 9.99372 12.9 9.99319 12.9 9.99266C12.9 9.99214 12.9 9.99161 12.9 9.99108C12.9 9.99055 12.9 9.99003 12.9 9.9895C12.9 9.98897 12.9 9.98844 12.9 9.98791C12.9 9.98739 12.9 9.98686 12.9 9.98633C12.9 9.9858 12.9 9.98528 12.9 9.98475C12.9 9.98422 12.9 9.98369 12.9 9.98317C12.9 9.98264 12.9 9.98211 12.9 9.98158C12.9 9.98105 12.9 9.98053 12.9 9.98C12.9 9.97947 12.9 9.97894 12.9 9.97842C12.9 9.97789 12.9 9.97736 12.9 9.97683C12.9 9.97631 12.9 9.97578 12.9 9.97525C12.9 9.97472 12.9 9.97419 12.9 9.97367C12.9 9.97314 12.9 9.97261 12.9 9.97208C12.9 9.97156 12.9 9.97103 12.9 9.9705C12.9 9.96997 12.9 9.96945 12.9 9.96892C12.9 9.96839 12.9 9.96786 12.9 9.96733C12.9 9.96681 12.9 9.96628 12.9 9.96575C12.9 9.96522 12.9 9.9647 12.9 9.96417C12.9 9.96364 12.9 9.96311 12.9 9.96259C12.9 9.96206 12.9 9.96153 12.9 9.961C12.9 9.96047 12.9 9.95995 12.9 9.95942C12.9 9.95889 12.9 9.95836 12.9 9.95784C12.9 9.95731 12.9 9.95678 12.9 9.95625C12.9 9.95573 12.9 9.9552 12.9 9.95467C12.9 9.95414 12.9 9.95361 12.9 9.95309C12.9 9.95256 12.9 9.95203 12.9 9.9515C12.9 9.95098 12.9 9.95045 12.9 9.94992C12.9 9.94939 12.9 9.94887 12.9 9.94834C12.9 9.94781 12.9 9.94728 12.9 9.94675C12.9 9.94623 12.9 9.9457 12.9 9.94517C12.9 9.94464 12.9 9.94412 12.9 9.94359C12.9 9.94306 12.9 9.94253 12.9 9.94201C12.9 9.94148 12.9 9.94095 12.9 9.94042C12.9 9.93989 12.9 9.93937 12.9 9.93884C12.9 9.93831 12.9 9.93778 12.9 9.93726C12.9 9.93673 12.9 9.9362 12.9 9.93567C12.9 9.93515 12.9 9.93462 12.9 9.93409C12.9 9.93356 12.9 9.93303 12.9 9.93251C12.9 9.93198 12.9 9.93145 12.9 9.93092C12.9 9.9304 12.9 9.92987 12.9 9.92934C12.9 9.92881 12.9 9.92829 12.9 9.92776C12.9 9.92723 12.9 9.9267 12.9 9.92617C12.9 9.92565 12.9 9.92512 12.9 9.92459C12.9 9.92406 12.9 9.92354 12.9 9.92301C12.9 9.92248 12.9 9.92195 12.9 9.92143C12.9 9.9209 12.9 9.92037 12.9 9.91984C12.9 9.91931 12.9 9.91879 12.9 9.91826C12.9 9.91773 12.9 9.9172 12.9 9.91668C12.9 9.91615 12.9 9.91562 12.9 9.91509C12.9 9.91457 12.9 9.91404 12.9 9.91351C12.9 9.91298 12.9 9.91245 12.9 9.91193C12.9 9.9114 12.9 9.91087 12.9 9.91034C12.9 9.90982 12.9 9.90929 12.9 9.90876C12.9 9.90823 12.9 9.90771 12.9 9.90718C12.9 9.90665 12.9 9.90612 12.9 9.90559C12.9 9.90507 12.9 9.90454 12.9 9.90401C12.9 9.90348 12.9 9.90296 12.9 9.90243C12.9 9.9019 12.9 9.90137 12.9 9.90085C12.9 9.90032 12.9 9.89979 12.9 9.89926C12.9 9.89873 12.9 9.89821 12.9 9.89768C12.9 9.89715 12.9 9.89662 12.9 9.8961C12.9 9.89557 12.9 9.89504 12.9 9.89451C12.9 9.89399 12.9 9.89346 12.9 9.89293C12.9 9.8924 12.9 9.89187 12.9 9.89135C12.9 9.89082 12.9 9.89029 12.9 9.88976C12.9 9.88924 12.9 9.88871 12.9 9.88818C12.9 9.88765 12.9 9.88713 12.9 9.8866C12.9 9.88607 12.9 9.88554 12.9 9.88501C12.9 9.88449 12.9 9.88396 12.9 9.88343C12.9 9.8829 12.9 9.88238 12.9 9.88185C12.9 9.88132 12.9 9.88079 12.9 9.88027C12.9 9.87974 12.9 9.87921 12.9 9.87868C12.9 9.87815 12.9 9.87763 12.9 9.8771C12.9 9.87657 12.9 9.87604 12.9 9.87552C12.9 9.87499 12.9 9.87446 12.9 9.87393C12.9 9.8734 12.9 9.87288 12.9 9.87235C12.9 9.87182 12.9 9.87129 12.9 9.87077C12.9 9.87024 12.9 9.86971 12.9 9.86918C12.9 9.86866 12.9 9.86813 12.9 9.8676C12.9 9.86707 12.9 9.86655 12.9 9.86602C12.9 9.86549 12.9 9.86496 12.9 9.86443C12.9 9.86391 12.9 9.86338 12.9 9.86285C12.9 9.86232 12.9 9.8618 12.9 9.86127C12.9 9.86074 12.9 9.86021 12.9 9.85968C12.9 9.85916 12.9 9.85863 12.9 9.8581C12.9 9.85757 12.9 9.85705 12.9 9.85652C12.9 9.85599 12.9 9.85546 12.9 9.85494C12.9 9.85441 12.9 9.85388 12.9 9.85335C12.9 9.85282 12.9 9.8523 12.9 9.85177C12.9 9.85124 12.9 9.85071 12.9 9.85019C12.9 9.84966 12.9 9.84913 12.9 9.8486C12.9 9.84808 12.9 9.84755 12.9 9.84702C12.9 9.84649 12.9 9.84596 12.9 9.84544C12.9 9.84491 12.9 9.84438 12.9 9.84385C12.9 9.84333 12.9 9.8428 12.9 9.84227C12.9 9.84174 12.9 9.84122 12.9 9.84069C12.9 9.84016 12.9 9.83963 12.9 9.8391C12.9 9.83858 12.9 9.83805 12.9 9.83752C12.9 9.83699 12.9 9.83647 12.9 9.83594C12.9 9.83541 12.9 9.83488 12.9 9.83436C12.9 9.83383 12.9 9.8333 12.9 9.83277C12.9 9.83224 12.9 9.83172 12.9 9.83119C12.9 9.83066 12.9 9.83013 12.9 9.82961C12.9 9.82908 12.9 9.82855 12.9 9.82802C12.9 9.8275 12.9 9.82697 12.9 9.82644C12.9 9.82591 12.9 9.82538 12.9 9.82486C12.9 9.82433 12.9 9.8238 12.9 9.82327C12.9 9.82275 12.9 9.82222 12.9 9.82169C12.9 9.82116 12.9 9.82064 12.9 9.82011C12.9 9.81958 12.9 9.81905 12.9 9.81852C12.9 9.818 12.9 9.81747 12.9 9.81694C12.9 9.81641 12.9 9.81589 12.9 9.81536C12.9 9.81483 12.9 9.8143 12.9 9.81378C12.9 9.81325 12.9 9.81272 12.9 9.81219C12.9 9.81166 12.9 9.81114 12.9 9.81061C12.9 9.81008 12.9 9.80955 12.9 9.80903C12.9 9.8085 12.9 9.80797 12.9 9.80744C12.9 9.80692 12.9 9.80639 12.9 9.80586C12.9 9.80533 12.9 9.8048 12.9 9.80428C12.9 9.80375 12.9 9.80322 12.9 9.80269C12.9 9.80217 12.9 9.80164 12.9 9.80111C12.9 9.80058 12.9 9.80006 12.9 9.79953C12.9 9.799 12.9 9.79847 12.9 9.79794C12.9 9.79742 12.9 9.79689 12.9 9.79636C12.9 9.79583 12.9 9.79531 12.9 9.79478C12.9 9.79425 12.9 9.79372 12.9 9.79319C12.9 9.79267 12.9 9.79214 12.9 9.79161C12.9 9.79108 12.9 9.79056 12.9 9.79003C12.9 9.7895 12.9 9.78897 12.9 9.78845C12.9 9.78792 12.9 9.78739 12.9 9.78686C12.9 9.78633 12.9 9.78581 12.9 9.78528C12.9 9.78475 12.9 9.78422 12.9 9.7837C12.9 9.78317 12.9 9.78264 12.9 9.78211C12.9 9.78159 12.9 9.78106 12.9 9.78053C12.9 9.78 12.9 9.77947 12.9 9.77895C12.9 9.77842 12.9 9.77789 12.9 9.77736C12.9 9.77684 12.9 9.77631 12.9 9.77578C12.9 9.77525 12.9 9.77473 12.9 9.7742C12.9 9.77367 12.9 9.77314 12.9 9.77261C12.9 9.77209 12.9 9.77156 12.9 9.77103C12.9 9.7705 12.9 9.76998 12.9 9.76945C12.9 9.76892 12.9 9.76839 12.9 9.76787C12.9 9.76734 12.9 9.76681 12.9 9.76628C12.9 9.76575 12.9 9.76523 12.9 9.7647C12.9 9.76417 12.9 9.76364 12.9 9.76312C12.9 9.76259 12.9 9.76206 12.9 9.76153C12.9 9.76101 12.9 9.76048 12.9 9.75995C12.9 9.75942 12.9 9.75889 12.9 9.75837C12.9 9.75784 12.9 9.75731 12.9 9.75678C12.9 9.75626 12.9 9.75573 12.9 9.7552C12.9 9.75467 12.9 9.75415 12.9 9.75362C12.9 9.75309 12.9 9.75256 12.9 9.75203C12.9 9.75151 12.9 9.75098 12.9 9.75045C12.9 9.74992 12.9 9.7494 12.9 9.74887C12.9 9.74834 12.9 9.74781 12.9 9.74729C12.9 9.74676 12.9 9.74623 12.9 9.7457C12.9 9.74517 12.9 9.74465 12.9 9.74412C12.9 9.74359 12.9 9.74306 12.9 9.74254C12.9 9.74201 12.9 9.74148 12.9 9.74095C12.9 9.74043 12.9 9.7399 12.9 9.73937C12.9 9.73884 12.9 9.73831 12.9 9.73779C12.9 9.73726 12.9 9.73673 12.9 9.7362C12.9 9.73568 12.9 9.73515 12.9 9.73462C12.9 9.73409 12.9 9.73356 12.9 9.73304C12.9 9.73251 12.9 9.73198 12.9 9.73145C12.9 9.73093 12.9 9.7304 12.9 9.72987C12.9 9.72934 12.9 9.72882 12.9 9.72829C12.9 9.72776 12.9 9.72723 12.9 9.72671C12.9 9.72618 12.9 9.72565 12.9 9.72512C12.9 9.72459 12.9 9.72407 12.9 9.72354C12.9 9.72301 12.9 9.72248 12.9 9.72196C12.9 9.72143 12.9 9.7209 12.9 9.72037C12.9 9.71984 12.9 9.71932 12.9 9.71879C12.9 9.71826 12.9 9.71773 12.9 9.71721C12.9 9.71668 12.9 9.71615 12.9 9.71562C12.9 9.7151 12.9 9.71457 12.9 9.71404C12.9 9.71351 12.9 9.71299 12.9 9.71246C12.9 9.71193 12.9 9.7114 12.9 9.71087C12.9 9.71035 12.9 9.70982 12.9 9.70929C12.9 9.70876 12.9 9.70824 12.9 9.70771C12.9 9.70718 12.9 9.70665 12.9 9.70612C12.9 9.7056 12.9 9.70507 12.9 9.70454C12.9 9.70401 12.9 9.70349 12.9 9.70296C12.9 9.70243 12.9 9.7019 12.9 9.70138C12.9 9.70085 12.9 9.70032 12.9 9.69979C12.9 9.69926 12.9 9.69874 12.9 9.69821C12.9 9.69768 12.9 9.69715 12.9 9.69663C12.9 9.6961 12.9 9.69557 12.9 9.69504C12.9 9.69452 12.9 9.69399 12.9 9.69346C12.9 9.69293 12.9 9.6924 12.9 9.69188C12.9 9.69135 12.9 9.69082 12.9 9.69029C12.9 9.68977 12.9 9.68924 12.9 9.68871C12.9 9.68818 12.9 9.68766 12.9 9.68713C12.9 9.6866 12.9 9.68607 12.9 9.68554C12.9 9.68502 12.9 9.68449 12.9 9.68396C12.9 9.68343 12.9 9.68291 12.9 9.68238C12.9 9.68185 12.9 9.68132 12.9 9.6808C12.9 9.68027 12.9 9.67974 12.9 9.67921C12.9 9.67868 12.9 9.67816 12.9 9.67763C12.9 9.6771 12.9 9.67657 12.9 9.67605C12.9 9.67552 12.9 9.67499 12.9 9.67446C12.9 9.67394 12.9 9.67341 12.9 9.67288C12.9 9.67235 12.9 9.67182 12.9 9.6713C12.9 9.67077 12.9 9.67024 12.9 9.66971C12.9 9.66919 12.9 9.66866 12.9 9.66813C12.9 9.6676 12.9 9.66708 12.9 9.66655C12.9 9.66602 12.9 9.66549 12.9 9.66496C12.9 9.66444 12.9 9.66391 12.9 9.66338C12.9 9.66285 12.9 9.66233 12.9 9.6618C12.9 9.66127 12.9 9.66074 12.9 9.66022C12.9 9.65969 12.9 9.65916 12.9 9.65863C12.9 9.6581 12.9 9.65758 12.9 9.65705C12.9 9.65652 12.9 9.65599 12.9 9.65547C12.9 9.65494 12.9 9.65441 12.9 9.65388C12.9 9.65336 12.9 9.65283 12.9 9.6523C12.9 9.65177 12.9 9.65124 12.9 9.65072C12.9 9.65019 12.9 9.64966 12.9 9.64913C12.9 9.64861 12.9 9.64808 12.9 9.64755C12.9 9.64702 12.9 9.64649 12.9 9.64597C12.9 9.64544 12.9 9.64491 12.9 9.64438C12.9 9.64386 12.9 9.64333 12.9 9.6428C12.9 9.64227 12.9 9.64175 12.9 9.64122C12.9 9.64069 12.9 9.64016 12.9 9.63964C12.9 9.63911 12.9 9.63858 12.9 9.63805C12.9 9.63752 12.9 9.637 12.9 9.63647C12.9 9.63594 12.9 9.63541 12.9 9.63489C12.9 9.63436 12.9 9.63383 12.9 9.6333C12.9 9.63277 12.9 9.63225 12.9 9.63172C12.9 9.63119 12.9 9.63066 12.9 9.63014C12.9 9.62961 12.9 9.62908 12.9 9.62855C12.9 9.62803 12.9 9.6275 12.9 9.62697C12.9 9.62644 12.9 9.62592 12.9 9.62539C12.9 9.62486 12.9 9.62433 12.9 9.6238C12.9 9.62328 12.9 9.62275 12.9 9.62222C12.9 9.62169 12.9 9.62117 12.9 9.62064C12.9 9.62011 12.9 9.61958 12.9 9.61905C12.9 9.61853 12.9 9.618 12.9 9.61747C12.9 9.61694 12.9 9.61642 12.9 9.61589C12.9 9.61536 12.9 9.61483 12.9 9.61431C12.9 9.61378 12.9 9.61325 12.9 9.61272C12.9 9.6122 12.9 9.61167 12.9 9.61114C12.9 9.61061 12.9 9.61008 12.9 9.60956C12.9 9.60903 12.9 9.6085 12.9 9.60797C12.9 9.60745 12.9 9.60692 12.9 9.60639C12.9 9.60586 12.9 9.60534 12.9 9.60481C12.9 9.60428 12.9 9.60375 12.9 9.60322C12.9 9.6027 12.9 9.60217 12.9 9.60164C12.9 9.60111 12.9 9.60059 12.9 9.60006C12.9 9.59953 12.9 9.599 12.9 9.59847C12.9 9.59795 12.9 9.59742 12.9 9.59689C12.9 9.59636 12.9 9.59584 12.9 9.59531C12.9 9.59478 12.9 9.59425 12.9 9.59373C12.9 9.5932 12.9 9.59267 12.9 9.59214C12.9 9.59162 12.9 9.59109 12.9 9.59056C12.9 9.59003 12.9 9.5895 12.9 9.58898C12.9 9.58845 12.9 9.58792 12.9 9.58739C12.9 9.58687 12.9 9.58634 12.9 9.58581C12.9 9.58528 12.9 9.58475 12.9 9.58423C12.9 9.5837 12.9 9.58317 12.9 9.58264C12.9 9.58212 12.9 9.58159 12.9 9.58106C12.9 9.58053 12.9 9.58001 12.9 9.57948C12.9 9.57895 12.9 9.57842 12.9 9.5779C12.9 9.57737 12.9 9.57684 12.9 9.57631C12.9 9.57578 12.9 9.57526 12.9 9.57473C12.9 9.5742 12.9 9.57367 12.9 9.57315C12.9 9.57262 12.9 9.57209 12.9 9.57156C12.9 9.57103 12.9 9.57051 12.9 9.56998C12.9 9.56945 12.9 9.56892 12.9 9.5684C12.9 9.56787 12.9 9.56734 12.9 9.56681C12.9 9.56629 12.9 9.56576 12.9 9.56523C12.9 9.5647 12.9 9.56418 12.9 9.56365C12.9 9.56312 12.9 9.56259 12.9 9.56206C12.9 9.56154 12.9 9.56101 12.9 9.56048C12.9 9.55995 12.9 9.55943 12.9 9.5589C12.9 9.55837 12.9 9.55784 12.9 9.55732C12.9 9.55679 12.9 9.55626 12.9 9.55573C12.9 9.5552 12.9 9.55468 12.9 9.55415C12.9 9.55362 12.9 9.55309 12.9 9.55257C12.9 9.55204 12.9 9.55151 12.9 9.55098C12.9 9.55046 12.9 9.54993 12.9 9.5494C12.9 9.54887 12.9 9.54834 12.9 9.54782C12.9 9.54729 12.9 9.54676 12.9 9.54623C12.9 9.54571 12.9 9.54518 12.9 9.54465C12.9 9.54412 12.9 9.5436 12.9 9.54307C12.9 9.54254 12.9 9.54201 12.9 9.54148C12.9 9.54096 12.9 9.54043 12.9 9.5399C12.9 9.53937 12.9 9.53885 12.9 9.53832C12.9 9.53779 12.9 9.53726 12.9 9.53674C12.9 9.53621 12.9 9.53568 12.9 9.53515C12.9 9.53462 12.9 9.5341 12.9 9.53357C12.9 9.53304 12.9 9.53251 12.9 9.53199C12.9 9.53146 12.9 9.53093 12.9 9.5304C12.9 9.52988 12.9 9.52935 12.9 9.52882C12.9 9.52829 12.9 9.52776 12.9 9.52724C12.9 9.52671 12.9 9.52618 12.9 9.52565C12.9 9.52513 12.9 9.5246 12.9 9.52407C12.9 9.52354 12.9 9.52302 12.9 9.52249C12.9 9.52196 12.9 9.52143 12.9 9.52091C12.9 9.52038 12.9 9.51985 12.9 9.51932C12.9 9.51879 12.9 9.51827 12.9 9.51774C12.9 9.51721 12.9 9.51668 12.9 9.51616C12.9 9.51563 12.9 9.5151 12.9 9.51457C12.9 9.51405 12.9 9.51352 12.9 9.51299C12.9 9.51246 12.9 9.51193 12.9 9.51141C12.9 9.51088 12.9 9.51035 12.9 9.50982C12.9 9.5093 12.9 9.50877 12.9 9.50824C12.9 9.50771 12.9 9.50718 12.9 9.50666C12.9 9.50613 12.9 9.5056 12.9 9.50507C12.9 9.50455 12.9 9.50402 12.9 9.50349C12.9 9.50296 12.9 9.50244 12.9 9.50191C12.9 9.50138 12.9 9.50085 12.9 9.50033C12.9 9.4998 12.9 9.49927 12.9 9.49874C12.9 9.49821 12.9 9.49769 12.9 9.49716C12.9 9.49663 12.9 9.4961 12.9 9.49558C12.9 9.49505 12.9 9.49452 12.9 9.49399C12.9 9.49347 12.9 9.49294 12.9 9.49241C12.9 9.49188 12.9 9.49135 12.9 9.49083C12.9 9.4903 12.9 9.48977 12.9 9.48924C12.9 9.48872 12.9 9.48819 12.9 9.48766C12.9 9.48713 12.9 9.48661 12.9 9.48608C12.9 9.48555 12.9 9.48502 12.9 9.48449C12.9 9.48397 12.9 9.48344 12.9 9.48291C12.9 9.48238 12.9 9.48186 12.9 9.48133C12.9 9.4808 12.9 9.48027 12.9 9.47975C12.9 9.47922 12.9 9.47869 12.9 9.47816C12.9 9.47763 12.9 9.47711 12.9 9.47658C12.9 9.47605 12.9 9.47552 12.9 9.475C12.9 9.47447 12.9 9.47394 12.9 9.47341C12.9 9.47289 12.9 9.47236 12.9 9.47183C12.9 9.4713 12.9 9.47078 12.9 9.47025C12.9 9.46972 12.9 9.46919 12.9 9.46866C12.9 9.46814 12.9 9.46761 12.9 9.46708C12.9 9.46655 12.9 9.46603 12.9 9.4655C12.9 9.46497 12.9 9.46444 12.9 9.46392C12.9 9.46339 12.9 9.46286 12.9 9.46233C12.9 9.4618 12.9 9.46128 12.9 9.46075C12.9 9.46022 12.9 9.45969 12.9 9.45917C12.9 9.45864 12.9 9.45811 12.9 9.45758C12.9 9.45706 12.9 9.45653 12.9 9.456C12.9 9.45547 12.9 9.45495 12.9 9.45442C12.9 9.45389 12.9 9.45336 12.9 9.45283C12.9 9.45231 12.9 9.45178 12.9 9.45125C12.9 9.45072 12.9 9.4502 12.9 9.44967C12.9 9.44914 12.9 9.44861 12.9 9.44809C12.9 9.44756 12.9 9.44703 12.9 9.4465C12.9 9.44597 12.9 9.44545 12.9 9.44492C12.9 9.44439 12.9 9.44386 12.9 9.44334C12.9 9.44281 12.9 9.44228 12.9 9.44175C12.9 9.44123 12.9 9.4407 12.9 9.44017C12.9 9.43964 12.9 9.43911 12.9 9.43859C12.9 9.43806 12.9 9.43753 12.9 9.437C12.9 9.43648 12.9 9.43595 12.9 9.43542C12.9 9.43489 12.9 9.43437 12.9 9.43384C12.9 9.43331 12.9 9.43278 12.9 9.43225C12.9 9.43173 12.9 9.4312 12.9 9.43067C12.9 9.43014 12.9 9.42962 12.9 9.42909C12.9 9.42856 12.9 9.42803 12.9 9.42751C12.9 9.42698 12.9 9.42645 12.9 9.42592C12.9 9.4254 12.9 9.42487 12.9 9.42434C12.9 9.42381 12.9 9.42328 12.9 9.42276C12.9 9.42223 12.9 9.4217 12.9 9.42117C12.9 9.42065 12.9 9.42012 12.9 9.41959C12.9 9.41906 12.9 9.41854 12.9 9.41801C12.9 9.41748 12.9 9.41695 12.9 9.41642C12.9 9.4159 12.9 9.41537 12.9 9.41484C12.9 9.41431 12.9 9.41379 12.9 9.41326C12.9 9.41273 12.9 9.4122 12.9 9.41168C12.9 9.41115 12.9 9.41062 12.9 9.41009C12.9 9.40956 12.9 9.40904 12.9 9.40851C12.9 9.40798 12.9 9.40745 12.9 9.40693C12.9 9.4064 12.9 9.40587 12.9 9.40534C12.9 9.40482 12.9 9.40429 12.9 9.40376C12.9 9.40323 12.9 9.40271 12.9 9.40218C12.9 9.40165 12.9 9.40112 12.9 9.40059C12.9 9.40007 12.9 9.39954 12.9 9.39901C12.9 9.39848 12.9 9.39796 12.9 9.39743C12.9 9.3969 12.9 9.39637 12.9 9.39585C12.9 9.39532 12.9 9.39479 12.9 9.39426C12.9 9.39373 12.9 9.39321 12.9 9.39268C12.9 9.39215 12.9 9.39162 12.9 9.3911C12.9 9.39057 12.9 9.39004 12.9 9.38951C12.9 9.38899 12.9 9.38846 12.9 9.38793C12.9 9.3874 12.9 9.38688 12.9 9.38635C12.9 9.38582 12.9 9.38529 12.9 9.38476C12.9 9.38424 12.9 9.38371 12.9 9.38318C12.9 9.38265 12.9 9.38213 12.9 9.3816C12.9 9.38107 12.9 9.38054 12.9 9.38002C12.9 9.37949 12.9 9.37896 12.9 9.37843C12.9 9.37791 12.9 9.37738 12.9 9.37685C12.9 9.37632 12.9 9.37579 12.9 9.37527C12.9 9.37474 12.9 9.37421 12.9 9.37368H11.6ZM11.6 10.1842C11.6 11.1674 12.5223 11.7553 13.375 11.7553V10.4553C13.2054 10.4553 13.0719 10.3986 12.9913 10.3326C12.912 10.2676 12.9 10.2118 12.9 10.1842H11.6ZM11.6 9.26316V12.9474H12.9V9.26316H11.6ZM5.5 9.91316H7.75173V8.61316H5.5V9.91316ZM7.19712 8.92417L4.94539 12.6081L6.05461 13.2861L8.30633 9.60215L7.19712 8.92417ZM5.5 13.5971H7.75173V12.2971H5.5V13.5971Z" fill="#005795"/>
</svg>
