<svg width="684" height="465" viewBox="0 0 684 465" fill="none" xmlns="http://www.w3.org/2000/svg">
<path opacity="0.2" d="M252.724 140.859L253.375 121.77L241.721 117.935C241.22 111.466 240.175 105.051 238.597 98.7584L248.488 91.4946L241.778 73.5676L229.546 74.5555C226.645 68.7796 223.259 63.2632 219.424 58.0667L225.757 47.447L212.743 33.486L201.812 39.1082C196.896 34.8866 191.644 31.0773 186.109 27.7186L187.873 15.5154L170.521 7.61244L162.569 16.9682C156.433 14.9964 150.146 13.5386 143.771 12.6099L140.879 0.653735L121.821 -1.06172e-05L118.062 11.7237C111.629 12.2318 105.25 13.2766 98.9896 14.8472L91.6441 4.96842L73.801 11.6656L74.7842 23.956C69.0384 26.9142 63.5487 30.3499 58.3725 34.227L47.7303 27.7186L33.7767 40.7934L39.3726 51.8344C35.1697 56.7483 31.3963 62.0171 28.0941 67.5823L15.9625 65.7518L8.03861 83.1848L17.4084 91.1605C15.4319 97.3208 13.9807 103.639 13.0706 110.046L1.02569 113.083L0.375012 132.172L12.0873 136.007C12.5718 142.472 13.6119 148.884 15.1961 155.169L5.30574 162.433L12.0295 180.374L24.2623 179.386C27.1553 185.166 30.5419 190.683 34.384 195.875L28.0363 206.495L41.0499 220.456L51.9814 214.834C56.8841 219.054 62.1268 222.859 67.6556 226.209L65.8337 238.397L83.1853 246.315L91.1814 236.959C97.3165 238.949 103.603 240.431 109.979 241.39L112.871 253.346L131.929 254L135.688 242.276C142.125 241.762 148.509 240.718 154.775 239.153L162.005 249.032L179.848 242.334L178.922 230.044C184.658 227.067 190.146 223.632 195.334 219.773L205.846 226.136L219.8 213.061L214.204 202.02C218.408 197.107 222.182 191.838 225.482 186.272L237.614 188.103L245.538 170.67L236.168 162.68C238.178 156.524 239.653 150.205 240.578 143.794L252.724 140.859ZM124.337 202.703C109.426 202.197 95 197.259 82.8828 188.514C70.7655 179.769 61.5019 167.61 56.2638 153.575C51.0257 139.54 50.0483 124.259 53.4554 109.666C56.8625 95.0725 64.501 81.8221 75.4045 71.591C86.3081 61.3599 99.9869 54.6076 114.711 52.1883C129.434 49.7689 144.542 51.7913 158.121 57.9995C171.701 64.2077 183.143 74.3228 190.999 87.0654C198.856 99.8079 202.775 114.605 202.26 129.586C201.574 149.662 192.98 168.643 178.367 182.354C163.755 196.066 144.32 203.385 124.337 202.703Z" fill="#FCAF17"/>
<path opacity="0.4" d="M629.853 320.179L634.298 316.024L632.538 312.515C633.88 310.942 635.089 309.26 636.151 307.486L640.045 308.064L642.556 302.498L639.575 299.956C640.217 297.988 640.689 295.968 640.985 293.919L644.812 292.964L645 286.86L641.267 285.649C641.103 283.582 640.771 281.531 640.273 279.518L643.429 277.165L641.28 271.45L637.373 271.759C636.43 269.916 635.339 268.154 634.11 266.489L636.137 263.127L631.961 258.663L628.47 260.451C626.897 259.111 625.217 257.901 623.447 256.834L624.011 252.935L618.466 250.393L615.914 253.392C613.945 252.778 611.928 252.328 609.885 252.047L608.931 248.229L602.835 248L601.613 251.765C599.556 251.922 597.517 252.255 595.516 252.76L593.18 249.6L587.459 251.738L587.782 255.664C585.936 256.599 584.175 257.692 582.518 258.932L579.134 256.901L574.676 261.056L576.408 264.485C575.056 266.053 573.843 267.736 572.782 269.514L568.901 268.936L566.377 274.502L569.371 277.057C568.751 279.023 568.301 281.038 568.029 283.081L564.188 284.036L564 290.14L567.747 291.351C567.899 293.419 568.227 295.47 568.727 297.482L565.558 299.822L567.706 305.536L571.627 305.241C572.57 307.084 573.661 308.846 574.89 310.511L572.863 313.873L577.039 318.337L580.53 316.549C582.1 317.894 583.78 319.104 585.553 320.166L584.975 324.052L590.534 326.593L593.086 323.608C595.057 324.216 597.073 324.665 599.115 324.953L600.069 328.771L606.165 329L607.387 325.235C609.444 325.079 611.484 324.746 613.484 324.24L615.82 327.4L621.541 325.262L621.232 321.336C623.073 320.4 624.829 319.307 626.482 318.068L629.853 320.179ZM598.135 294.457C596.962 293.198 596.189 291.62 595.912 289.922C595.635 288.223 595.868 286.481 596.58 284.915C597.293 283.348 598.453 282.029 599.915 281.123C601.376 280.218 603.073 279.766 604.791 279.827C606.508 279.887 608.17 280.456 609.564 281.462C610.959 282.467 612.024 283.865 612.626 285.477C613.227 287.089 613.337 288.844 612.943 290.519C612.548 292.194 611.666 293.714 610.408 294.887C609.574 295.675 608.591 296.289 607.518 296.695C606.445 297.1 605.302 297.288 604.155 297.248C603.009 297.208 601.882 296.941 600.839 296.462C599.796 295.982 598.859 295.301 598.081 294.457L598.135 294.457Z" fill="#FCAF17"/>
<path opacity="0.2" d="M149.375 401.811L140.807 395.886C139.968 392.8 138.813 389.809 137.36 386.96L139.556 378.342L127.127 365.033L118.378 366.632C115.632 364.987 112.725 363.629 109.702 362.58L104.383 353.622L86.1539 353L80.2378 361.569C77.1564 362.408 74.169 363.561 71.3222 365.008L62.7049 362.812L49.3978 375.243L50.997 383.977C49.3539 386.728 47.9988 389.641 46.9535 392.67L37.9964 397.991L37.375 416.222L45.9509 422.139C46.7767 425.241 47.9294 428.247 49.3895 431.106L47.1689 439.65L59.5977 452.959L68.2896 451.368C71.0552 453.014 73.9814 454.375 77.0228 455.428L82.3341 464.37L100.563 465L106.471 456.431C109.58 455.591 112.595 454.436 115.469 452.984L124.037 455.172L137.352 442.741L135.753 434.006C137.401 431.255 138.756 428.339 139.797 425.305L148.754 419.985L149.375 401.811ZM92.6583 429.482C88.6115 429.343 84.6966 428.008 81.4086 425.644C78.1205 423.281 75.607 419.995 74.1859 416.203C72.7647 412.411 72.4997 408.283 73.4243 404.34C74.349 400.397 76.4217 396.817 79.3806 394.053C82.3394 391.288 86.0514 389.463 90.0473 388.808C94.0432 388.153 98.1434 388.698 101.83 390.374C105.516 392.05 108.623 394.781 110.757 398.222C112.891 401.664 113.957 405.661 113.82 409.709C113.63 415.137 111.294 420.268 107.325 423.975C103.356 427.682 98.0778 429.663 92.65 429.482L92.6583 429.482Z" fill="#005795"/>
<path opacity="0.1" d="M544.572 201L544.474 201L520.093 200.17C519.599 200.161 519.116 200.027 518.687 199.782C518.259 199.536 517.9 199.185 517.644 198.763L511.07 187.722C507.527 186.426 504.099 184.836 500.822 182.967L490.307 184.782C489.817 184.871 489.313 184.836 488.84 184.678C488.368 184.521 487.943 184.247 487.604 183.881L470.952 166.074C470.602 165.705 470.354 165.252 470.231 164.759C470.107 164.267 470.113 163.75 470.248 163.26L472.909 152.837C471.26 149.46 469.913 145.944 468.883 142.33L458.283 135.016C457.872 134.734 457.539 134.352 457.315 133.907C457.091 133.462 456.983 132.967 457.002 132.47L457.833 108.107C457.849 107.615 457.986 107.135 458.231 106.708C458.477 106.281 458.823 105.921 459.24 105.659L470.318 99.0905C471.596 95.5581 473.183 92.1455 475.062 88.8925L473.12 78.3007C473.029 77.809 473.064 77.3023 473.221 76.8277C473.379 76.3531 473.654 75.9259 474.021 75.5859L491.841 58.9596C492.21 58.6092 492.662 58.3591 493.155 58.2335C493.648 58.1079 494.165 58.1109 494.657 58.2423L505.13 60.9148C508.501 59.2669 512.01 57.9161 515.617 56.8778L522.936 46.286C523.209 45.8653 523.588 45.5248 524.036 45.2998C524.484 45.0747 524.984 44.9733 525.484 45.006L549.851 45.8499C550.346 45.8604 550.831 45.9946 551.261 46.2403C551.692 46.486 552.053 46.8354 552.314 47.2566L558.888 58.3126C562.406 59.6032 565.806 61.1938 569.051 63.067L579.693 61.1118C580.183 61.0208 580.688 61.0557 581.161 61.2132C581.633 61.3706 582.058 61.6455 582.396 62.012L599.048 79.8198C599.395 80.1901 599.642 80.6429 599.765 81.1352C599.888 81.6274 599.884 82.143 599.752 82.633L597.077 93.0842C598.726 96.4549 600.083 99.9609 601.131 103.564L611.717 110.878C612.128 111.16 612.461 111.541 612.685 111.986C612.909 112.432 613.017 112.926 612.998 113.424L612.167 137.772C612.151 138.266 612.014 138.748 611.768 139.177C611.523 139.606 611.177 139.969 610.76 140.234L599.682 146.803C598.395 150.327 596.808 153.734 594.938 156.987L596.88 167.593C596.971 168.082 596.936 168.587 596.779 169.059C596.621 169.532 596.346 169.956 595.979 170.294L578.046 186.934C577.677 187.283 577.224 187.531 576.731 187.654C576.237 187.778 575.721 187.772 575.231 187.637L564.814 184.979C561.42 186.619 557.893 187.969 554.271 189.016L547.021 199.593C546.76 200.011 546.4 200.358 545.973 200.603C545.546 200.848 545.065 200.985 544.572 201ZM521.923 194.29L543.038 195.008L550.076 184.894C550.466 184.304 551.064 183.882 551.751 183.713C555.712 182.63 559.555 181.155 563.223 179.31C563.863 179.002 564.59 178.927 565.279 179.099L575.132 181.617L590.616 167.199L588.843 157.029C588.706 156.318 588.836 155.582 589.209 154.961C591.299 151.478 593.021 147.787 594.347 143.948C594.57 143.251 595.041 142.661 595.67 142.288L606.269 136.014L606.987 114.915L596.852 107.882C596.318 107.518 595.918 106.989 595.712 106.377C595.712 106.306 595.712 106.222 595.712 106.138C594.627 102.25 593.156 98.4798 591.32 94.8847C590.994 94.2411 590.914 93.5011 591.095 92.8029L593.629 82.844L579.2 67.3712L569.079 69.228C568.372 69.356 567.643 69.2262 567.024 68.8622C563.532 66.7689 559.834 65.0391 555.988 63.6999C555.767 63.6293 555.555 63.535 555.355 63.4186C554.949 63.1656 554.611 62.8181 554.369 62.4059L548.021 51.7859L526.906 51.0544L519.868 61.1962C519.448 61.7907 518.829 62.215 518.122 62.3918C514.202 63.4623 510.401 64.928 506.777 66.7664C506.138 67.0921 505.401 67.1722 504.707 66.9914L494.741 64.4595L479.257 78.8774L481.115 88.9628C481.225 89.599 481.132 90.2537 480.848 90.8336L480.707 91.0728C478.613 94.5691 476.891 98.2746 475.569 102.129C475.336 102.79 474.877 103.347 474.274 103.704L463.674 109.992L462.956 131.091L473.106 138.124C473.684 138.52 474.103 139.108 474.288 139.784C475.343 143.734 476.811 147.562 478.666 151.206C478.766 151.413 478.846 151.63 478.905 151.853C479.011 152.316 479.011 152.796 478.905 153.259L476.371 163.106L490.8 178.579L500.85 176.736C501.553 176.607 502.278 176.737 502.891 177.102C506.411 179.191 510.131 180.92 513.998 182.264C514.695 182.471 515.286 182.94 515.645 183.572L521.923 194.29ZM534.972 167.607C534.451 167.607 533.93 167.607 533.409 167.607C521.708 167.401 510.561 162.585 502.395 154.207C494.23 145.829 489.706 134.567 489.809 122.873C489.912 111.178 494.633 99.9977 502.945 91.7647C511.257 83.5316 522.487 78.9124 534.191 78.9124C545.894 78.9124 557.124 83.5316 565.436 91.7647C573.748 99.9977 578.469 111.178 578.572 122.873C578.675 134.567 574.152 145.829 565.986 154.207C557.82 162.585 546.674 167.401 534.972 167.607ZM534.972 84.4898C524.746 84.666 515.004 88.8715 507.866 96.1909C500.728 103.51 496.773 113.351 496.861 123.57C496.949 133.79 501.074 143.561 508.337 150.756C515.6 157.952 525.413 161.989 535.64 161.989C545.868 161.989 555.681 157.952 562.944 150.756C570.207 143.561 574.332 133.79 574.42 123.57C574.508 113.351 570.553 103.51 563.415 96.1909C556.277 88.8715 546.535 84.666 536.309 84.4898L534.972 84.4898Z" fill="#005795"/>
<path d="M519.537 118.45H124.859C116.521 118.45 109.762 125.209 109.762 133.547V406.827C109.762 415.165 116.521 421.924 124.859 421.924H519.537C527.874 421.924 534.634 415.165 534.634 406.827V133.547C534.634 125.209 527.874 118.45 519.537 118.45Z" fill="#005795"/>
<path d="M93.1523 402.32H553.472V410.433C553.472 415.324 551.528 420.016 548.07 423.475C544.611 426.933 539.919 428.877 535.028 428.877H111.596C106.705 428.877 102.013 426.933 98.5544 423.475C95.0955 420.016 93.1523 415.324 93.1523 410.433V402.32Z" fill="#005795"/>
<path d="M517.044 130.511H126.17C123.408 130.511 121.17 132.75 121.17 135.511V381.787C121.17 384.549 123.409 386.787 126.17 386.787H517.044C519.805 386.787 522.044 384.549 522.044 381.787V135.511C522.044 132.75 519.805 130.511 517.044 130.511Z" fill="#051944"/>
<path d="M280.316 399.48L286.026 409.293H366.402L371.707 399.48H280.316Z" fill="#D5E1EA"/>
<path d="M511.216 139.183H132.806C130.935 139.183 129.418 140.7 129.418 142.572V382.57C129.418 384.441 130.935 385.958 132.806 385.958H511.216C513.087 385.958 514.604 384.441 514.604 382.57V142.572C514.604 140.7 513.087 139.183 511.216 139.183Z" fill="#D5E1EA"/>
<path d="M514.202 386.321H129.016L129.42 157.627H514.202V386.321Z" fill="#EAF1F6"/>
<path d="M161.789 148.716C161.758 149.336 161.547 149.933 161.18 150.434C160.814 150.934 160.309 151.316 159.728 151.533C159.146 151.749 158.514 151.79 157.91 151.651C157.305 151.511 156.755 151.198 156.327 150.749C155.899 150.3 155.612 149.735 155.502 149.125C155.391 148.514 155.463 147.885 155.706 147.314C155.95 146.744 156.356 146.258 156.874 145.916C157.391 145.574 157.998 145.391 158.618 145.39C159.479 145.412 160.297 145.774 160.891 146.398C161.485 147.021 161.808 147.855 161.789 148.716Z" fill="#051944"/>
<path d="M142.556 148.716C142.526 149.336 142.314 149.933 141.948 150.434C141.582 150.934 141.077 151.316 140.495 151.533C139.914 151.749 139.282 151.79 138.677 151.651C138.073 151.511 137.522 151.198 137.094 150.749C136.666 150.3 136.38 149.735 136.269 149.125C136.159 148.514 136.23 147.885 136.474 147.314C136.718 146.744 137.124 146.258 137.641 145.916C138.159 145.574 138.765 145.391 139.386 145.39C140.247 145.412 141.064 145.774 141.659 146.398C142.253 147.021 142.576 147.855 142.556 148.716Z" fill="#051944"/>
<path d="M152.441 148.716C152.411 149.336 152.199 149.933 151.833 150.434C151.466 150.934 150.961 151.316 150.38 151.533C149.799 151.749 149.166 151.79 148.562 151.651C147.958 151.511 147.407 151.198 146.979 150.749C146.551 150.3 146.264 149.735 146.154 149.125C146.044 148.514 146.115 147.885 146.359 147.314C146.603 146.744 147.009 146.258 147.526 145.916C148.044 145.574 148.65 145.391 149.27 145.39C150.132 145.412 150.949 145.774 151.543 146.398C152.138 147.021 152.461 147.855 152.441 148.716Z" fill="#051944"/>
<path d="M530.986 399.48C530.986 399.646 436.695 399.77 320.384 399.77C204.074 399.77 109.762 399.646 109.762 399.48C109.762 399.314 204.053 399.18 320.384 399.18C436.715 399.18 530.986 399.314 530.986 399.48Z" fill="#051944"/>
<path opacity="0.08" d="M280.637 201.468C286.9 197.688 293.639 194.761 300.677 192.764L304.821 172.921L338.331 172.331L343.16 192.018C350.261 193.772 357.097 196.462 363.489 200.017L380.431 188.92L404.542 212.203L394.056 229.538C397.839 235.803 400.766 242.546 402.76 249.588L422.593 253.732L423.183 287.242L403.496 292.071C401.738 299.153 399.045 305.968 395.486 312.338L406.594 329.28L383.311 353.391L365.997 342.895C359.732 346.677 352.988 349.605 345.947 351.599L341.802 371.442L308.282 372.022L303.464 352.335C296.381 350.599 289.562 347.927 283.186 344.387L266.245 355.495L242.133 332.212L252.629 314.898C248.844 308.633 245.913 301.89 243.915 294.848L224.083 290.703L223.492 257.193L243.179 252.365C244.931 245.263 247.621 238.426 251.179 232.035L240.081 215.094L263.364 190.982L280.637 201.468ZM298.501 246.117C293.562 251.233 290.251 257.698 288.986 264.696C287.722 271.694 288.561 278.909 291.397 285.43C294.233 291.951 298.94 297.484 304.921 301.331C310.902 305.177 317.889 307.163 324.999 307.039C332.109 306.914 339.022 304.684 344.864 300.63C350.707 296.577 355.216 290.882 357.822 284.266C360.428 277.649 361.014 270.409 359.505 263.46C357.996 256.511 354.461 250.165 349.346 245.226C345.947 241.947 341.935 239.37 337.541 237.642C333.146 235.914 328.454 235.069 323.732 235.155C319.011 235.24 314.352 236.255 310.023 238.141C305.694 240.028 301.778 242.748 298.501 246.148V246.117Z" fill="#005795"/>
<path opacity="0.08" d="M414.521 214.286C414.98 211.807 415.764 209.4 416.852 207.126L412.707 201.531L420.209 192.744L426.426 195.997C428.5 194.568 430.754 193.422 433.13 192.588L434.166 185.677L445.678 184.776L447.751 191.438C450.231 191.896 452.639 192.684 454.911 193.78L460.506 189.635L469.293 197.148L466.039 203.365C467.473 205.44 468.623 207.698 469.458 210.079L476.359 211.115L477.261 222.637L470.598 224.71C470.143 227.191 469.356 229.599 468.256 231.87L472.401 237.475L464.899 246.252L458.682 242.998C456.607 244.432 454.349 245.582 451.968 246.417L450.932 253.329L439.42 254.23L437.347 247.557C434.868 247.103 432.46 246.319 430.188 245.226L424.582 249.371L415.816 241.775L419.069 235.558C417.637 233.482 416.487 231.224 415.65 228.844L408.749 227.808L407.848 216.286L414.51 214.213L414.521 214.286ZM430.136 217.778C429.89 220.369 430.463 222.972 431.775 225.22C433.087 227.468 435.072 229.248 437.449 230.308C439.826 231.368 442.476 231.656 445.026 231.13C447.575 230.604 449.895 229.292 451.659 227.378C453.422 225.463 454.541 223.044 454.856 220.46C455.172 217.876 454.669 215.259 453.418 212.976C452.167 210.694 450.231 208.861 447.883 207.737C445.535 206.613 442.894 206.255 440.332 206.711C437.656 207.188 435.211 208.529 433.37 210.527C431.528 212.526 430.392 215.072 430.136 217.778Z" fill="#005795"/>
<path opacity="0.08" d="M162.182 329.953C162.266 326.976 162.751 324.024 163.623 321.177L157.748 315.447L164.939 303.862L172.731 306.556C174.907 304.514 177.346 302.772 179.984 301.375L179.922 293.138L193.205 290.029L196.801 297.438C199.778 297.521 202.73 298.005 205.577 298.878L211.37 293.003L222.954 300.194L220.26 307.986C222.302 310.162 224.045 312.602 225.441 315.239L233.678 315.177L236.787 328.451L229.368 332.025C229.276 335.002 228.788 337.953 227.917 340.802L233.792 346.584L226.601 358.178L218.809 355.484C216.635 357.529 214.195 359.271 211.556 360.665L211.618 368.903L198.345 372.011L194.739 364.603C191.77 364.499 188.829 363.997 185.994 363.11L180.212 368.986L168.617 361.795L171.311 354.003C169.269 351.826 167.527 349.387 166.13 346.749L157.841 346.811L154.732 333.538L162.141 329.932L162.182 329.953ZM181.383 333.683C182.048 336.497 183.533 339.051 185.649 341.022C187.766 342.993 190.419 344.293 193.273 344.757C196.127 345.221 199.055 344.829 201.687 343.63C204.319 342.431 206.536 340.478 208.059 338.02C209.582 335.561 210.342 332.707 210.243 329.817C210.144 326.926 209.191 324.13 207.504 321.781C205.817 319.432 203.472 317.636 200.765 316.619C198.058 315.602 195.11 315.411 192.294 316.068C190.416 316.506 188.643 317.31 187.077 318.435C185.512 319.56 184.184 320.983 183.17 322.623C182.156 324.263 181.476 326.087 181.169 327.99C180.863 329.894 180.935 331.839 181.383 333.714V333.683Z" fill="#005795"/>
<path opacity="0.08" d="M186.024 219.269C186.362 217.398 186.955 215.582 187.785 213.871L184.677 209.643L190.334 203.022L194.997 205.478C196.561 204.398 198.261 203.531 200.053 202.898L200.82 197.717L209.503 197.033L211.058 202.058C212.926 202.406 214.742 202.999 216.456 203.82L220.684 200.711L227.294 206.369L224.849 211.032C225.929 212.594 226.793 214.295 227.419 216.088L232.6 216.845L233.283 225.528L228.268 227.04C227.926 228.909 227.337 230.725 226.517 232.439L229.626 236.656L223.968 243.277L219.305 240.822C217.744 241.905 216.043 242.773 214.249 243.402L213.493 248.583L204.809 249.256L203.245 244.231C201.374 243.89 199.558 243.298 197.846 242.469L193.629 245.578L187.008 239.92L189.453 235.257C188.373 233.695 187.509 231.994 186.884 230.201L181.703 229.434L181.029 220.751L186.055 219.197L186.024 219.269ZM197.784 223.486C197.931 225.323 198.618 227.076 199.76 228.522C200.902 229.969 202.447 231.045 204.2 231.614C205.952 232.183 207.834 232.221 209.608 231.721C211.382 231.221 212.968 230.207 214.166 228.807C215.364 227.407 216.121 225.683 216.34 223.853C216.559 222.023 216.231 220.169 215.397 218.526C214.563 216.882 213.261 215.523 211.655 214.619C210.049 213.714 208.212 213.306 206.374 213.446C205.15 213.539 203.956 213.873 202.861 214.428C201.767 214.983 200.792 215.749 199.994 216.682C199.196 217.615 198.59 218.696 198.211 219.864C197.831 221.032 197.687 222.263 197.784 223.486Z" fill="#005795"/>
<path opacity="0.08" d="M414.955 312.784C415.255 311.177 415.763 309.617 416.468 308.142L413.763 304.515L418.623 298.827L422.633 300.899C423.974 299.969 425.435 299.223 426.974 298.682L427.627 294.205L435.088 293.625L436.424 297.946C438.032 298.241 439.593 298.75 441.066 299.459L444.693 296.754L450.382 301.614L448.309 305.614C449.239 306.959 449.985 308.422 450.527 309.965L455.003 310.618L455.583 318.079L451.262 319.415C450.967 321.023 450.459 322.584 449.749 324.057L452.454 327.684L447.594 333.362L443.595 331.29C442.247 332.216 440.784 332.961 439.243 333.507L438.59 337.973L431.129 338.553L429.793 334.243C428.186 333.943 426.626 333.435 425.151 332.73L421.524 335.435L415.815 330.575L417.887 326.575C416.957 325.234 416.212 323.773 415.67 322.234L411.204 321.581L410.613 314.12L414.934 312.784H414.955ZM425.058 316.4C425.18 317.986 425.771 319.499 426.755 320.749C427.738 321.999 429.071 322.928 430.584 323.419C432.097 323.91 433.721 323.941 435.251 323.508C436.782 323.075 438.149 322.197 439.18 320.986C440.21 319.774 440.858 318.284 441.041 316.704C441.224 315.125 440.933 313.526 440.207 312.111C439.48 310.697 438.349 309.53 436.958 308.758C435.567 307.987 433.979 307.646 432.394 307.779C430.279 307.954 428.32 308.959 426.945 310.574C425.57 312.19 424.891 314.285 425.058 316.4Z" fill="#005795"/>
<path d="M322.55 324.717H271.021C267.992 324.709 265.018 323.907 262.397 322.39C259.775 320.873 257.598 318.695 256.082 316.072C254.567 313.45 253.766 310.476 253.76 307.447C253.754 304.418 254.543 301.441 256.048 298.813L281.828 254.164L307.598 209.515C309.118 206.888 311.302 204.708 313.931 203.191C316.559 201.675 319.541 200.877 322.576 200.877C325.611 200.877 328.592 201.675 331.221 203.191C333.85 204.708 336.034 206.888 337.554 209.515L363.334 254.164L389.113 298.813C390.619 301.442 391.408 304.42 391.402 307.45C391.396 310.479 390.594 313.454 389.077 316.077C387.56 318.699 385.381 320.878 382.758 322.394C380.135 323.91 377.16 324.711 374.13 324.717H322.55Z" fill="#FCAF17"/>
<path d="M378.049 303.931C378.049 303.931 378.184 304.19 378.443 304.729C378.885 305.808 379.054 306.98 378.935 308.141C378.815 309.301 378.412 310.414 377.759 311.381C377.246 312.145 376.588 312.8 375.821 313.308C374.93 313.876 373.911 314.21 372.858 314.282C364.071 314.376 351.388 314.355 335.701 314.396L280.597 314.459H272.722C271.317 314.443 269.952 313.993 268.814 313.169C267.677 312.345 266.823 311.188 266.37 309.858C265.89 308.529 265.8 307.091 266.111 305.713C266.194 305.371 266.308 305.029 266.422 304.677C266.536 304.325 266.723 304.024 266.878 303.713L267.914 301.9C269.241 299.465 270.588 297.02 271.935 294.543L288.638 263.883L305.444 233.243C308.145 228.291 310.805 223.431 313.423 218.664C314.086 217.483 314.697 216.292 315.402 215.121C316.102 213.925 317.102 212.932 318.303 212.24C319.48 211.566 320.801 211.182 322.157 211.121C323.512 211.06 324.862 211.323 326.095 211.888C327.319 212.441 328.387 213.289 329.204 214.354C329.911 215.429 330.552 216.547 331.121 217.701C332.333 219.918 333.535 222.105 334.706 224.26C337.068 228.57 339.351 232.753 341.555 236.808C345.979 244.9 350.093 252.444 353.844 259.324C361.346 273.095 367.408 284.244 371.604 291.963L376.412 300.843C376.951 301.879 377.365 302.625 377.645 303.164C377.925 303.703 378.059 303.962 378.059 303.962C378.059 303.962 377.894 303.703 377.603 303.185L376.319 300.895L371.417 292.057C367.19 284.358 361.056 273.25 353.512 259.51L341.172 237.015L334.291 224.488C333.11 222.333 331.919 220.146 330.696 217.929C330.126 216.809 329.493 215.723 328.8 214.675C328.035 213.68 327.039 212.887 325.898 212.365C324.738 211.832 323.466 211.584 322.19 211.641C320.914 211.699 319.67 212.061 318.562 212.696C317.439 213.353 316.504 214.288 315.848 215.411C315.164 216.54 314.542 217.753 313.889 218.934L305.911 233.513C300.502 243.419 294.886 253.666 289.145 264.173L272.37 294.813C271.012 297.289 269.676 299.745 268.339 302.17C267.611 303.312 267.036 304.545 266.629 305.838C266.334 307.129 266.416 308.478 266.868 309.723C267.277 310.957 268.063 312.032 269.115 312.796C270.167 313.56 271.432 313.974 272.732 313.982H280.607L335.711 314.034L372.858 314.086C373.876 314.026 374.862 313.713 375.728 313.174C376.483 312.684 377.134 312.05 377.645 311.309C378.443 310.135 378.869 308.749 378.868 307.33C378.855 306.149 378.575 304.987 378.049 303.931Z" fill="white"/>
<path d="M314.199 294.378C314.199 289.809 317.847 286.4 323.038 286.4C328.229 286.4 331.793 289.809 331.793 294.378C331.793 298.948 328.229 302.512 323.038 302.512C317.847 302.512 314.199 298.885 314.199 294.378ZM314.282 247.574H331.793L328.851 282.058H317.152L314.282 247.574Z" fill="white"/>
<g opacity="0.3">
<path d="M348.412 228.333L268.119 277.8L257.695 295.871L354.08 238.146L348.412 228.333Z" fill="white" fill-opacity="0.5"/>
</g>
<g opacity="0.3">
<path d="M361.054 250.258L254.629 313.03C255.056 314.675 255.845 316.205 256.94 317.506L362.93 253.512L361.054 250.258Z" fill="white" fill-opacity="0.5"/>
</g>
</svg>
