<svg width="20" height="20" viewBox="0 0 20 20" fill="none" xmlns="http://www.w3.org/2000/svg">
<path d="M12.5 3.75V2.08334M12.5 3.75V5.41667M12.5 3.75H8.75M2.5 8.75V16.25C2.5 16.692 2.67559 17.116 2.98816 17.4285C3.30072 17.7411 3.72464 17.9167 4.16667 17.9167H15.8333C16.2754 17.9167 16.6993 17.7411 17.0118 17.4285C17.3244 17.116 17.5 16.692 17.5 16.25V8.75M2.5 8.75H17.5M2.5 8.75V5.41667C2.5 4.97464 2.67559 4.55072 2.98816 4.23816C3.30072 3.9256 3.72464 3.75 4.16667 3.75H5.83333M17.5 8.75V5.41667C17.5 4.97464 17.3244 4.55072 17.0118 4.23816C16.6993 3.9256 16.2754 3.75 15.8333 3.75H15.4167M5.83333 2.08334V5.41667" stroke="#005795" stroke-width="1.3" stroke-linecap="round" stroke-linejoin="round"/>
</svg>
