<svg width="20" height="20" viewBox="0 0 20 20" fill="none" xmlns="http://www.w3.org/2000/svg">
<path d="M14.6667 2.88892H5.33333C4.4496 2.88994 3.60237 3.23082 2.97748 3.83678C2.35259 4.44273 2.00106 5.26429 2 6.12124L2 13.8788C2.00106 14.7358 2.35259 15.5573 2.97748 16.1633C3.60237 16.7692 4.4496 17.1101 5.33333 17.1111H14.6667C15.5504 17.1101 16.3976 16.7692 17.0225 16.1633C17.6474 15.5573 17.9989 14.7358 18 13.8788V6.12124C17.9989 5.26429 17.6474 4.44273 17.0225 3.83678C16.3976 3.23082 15.5504 2.88994 14.6667 2.88892ZM5.33333 4.18185H14.6667C15.0659 4.18261 15.4557 4.29919 15.786 4.51659C16.1163 4.73399 16.3719 5.04226 16.52 5.40172L11.4147 10.353C11.039 10.7159 10.5303 10.9196 10 10.9196C9.46972 10.9196 8.96105 10.7159 8.58533 10.353L3.48 5.40172C3.6281 5.04226 3.88374 4.73399 4.21403 4.51659C4.54432 4.29919 4.93414 4.18261 5.33333 4.18185ZM14.6667 15.8182H5.33333C4.8029 15.8182 4.29419 15.6139 3.91912 15.2502C3.54405 14.8865 3.33333 14.3932 3.33333 13.8788V7.09094L7.64267 11.2671C8.26842 11.8724 9.11617 12.2123 10 12.2123C10.8838 12.2123 11.7316 11.8724 12.3573 11.2671L16.6667 7.09094V13.8788C16.6667 14.3932 16.456 14.8865 16.0809 15.2502C15.7058 15.6139 15.1971 15.8182 14.6667 15.8182Z" fill="#FCAF17"/>
</svg>
