<svg width="20" height="20" viewBox="0 0 20 20" fill="none" xmlns="http://www.w3.org/2000/svg">
<path d="M14.6667 2.88889H5.33333C4.4496 2.88991 3.60237 3.23079 2.97748 3.83674C2.35259 4.4427 2.00106 5.26426 2 6.12121L2 13.8788C2.00106 14.7357 2.35259 15.5573 2.97748 16.1632C3.60237 16.7692 4.4496 17.1101 5.33333 17.1111H14.6667C15.5504 17.1101 16.3976 16.7692 17.0225 16.1632C17.6474 15.5573 17.9989 14.7357 18 13.8788V6.12121C17.9989 5.26426 17.6474 4.4427 17.0225 3.83674C16.3976 3.23079 15.5504 2.88991 14.6667 2.88889ZM5.33333 4.18181H14.6667C15.0659 4.18258 15.4557 4.29916 15.786 4.51656C16.1163 4.73396 16.3719 5.04222 16.52 5.40169L11.4147 10.353C11.039 10.7158 10.5303 10.9196 10 10.9196C9.46972 10.9196 8.96105 10.7158 8.58533 10.353L3.48 5.40169C3.6281 5.04222 3.88374 4.73396 4.21403 4.51656C4.54432 4.29916 4.93414 4.18258 5.33333 4.18181ZM14.6667 15.8182H5.33333C4.8029 15.8182 4.29419 15.6139 3.91912 15.2501C3.54405 14.8864 3.33333 14.3931 3.33333 13.8788V7.09091L7.64267 11.2671C8.26842 11.8723 9.11617 12.2122 10 12.2122C10.8838 12.2122 11.7316 11.8723 12.3573 11.2671L16.6667 7.09091V13.8788C16.6667 14.3931 16.456 14.8864 16.0809 15.2501C15.7058 15.6139 15.1971 15.8182 14.6667 15.8182Z" fill="#005795"/>
</svg>
