<svg width="20" height="20" viewBox="0 0 20 20" fill="none" xmlns="http://www.w3.org/2000/svg">
<path d="M10.3195 6.00012V9.62262L13.2093 11.4285C13.3548 11.5195 13.4597 11.6671 13.5008 11.8387C13.5419 12.0103 13.5159 12.1918 13.4285 12.3435C13.3411 12.4951 13.1994 12.6043 13.0346 12.6471C12.8699 12.6899 12.6956 12.6628 12.55 12.5718L9.34979 10.5718C9.25508 10.5125 9.17671 10.4287 9.12231 10.3285C9.06791 10.2284 9.03934 10.1152 9.03937 10.0001V6.00012C9.03937 5.82331 9.10681 5.65374 9.22684 5.52872C9.34687 5.4037 9.50967 5.33346 9.67942 5.33346C9.84917 5.33346 10.012 5.4037 10.132 5.52872C10.252 5.65374 10.3195 5.82331 10.3195 6.00012ZM17.6048 4.05096C17.4878 4.00043 17.3591 3.98715 17.235 4.01281C17.1108 4.03848 16.9967 4.10192 16.9071 4.19512L15.9199 5.22596C15.6614 4.93346 15.395 4.64262 15.1118 4.34346C14.0444 3.23155 12.6861 2.47192 11.2066 2.1595C9.72708 1.84709 8.19199 1.99572 6.79312 2.58685C5.39426 3.17797 4.19365 4.18537 3.34132 5.48316C2.48899 6.78095 2.02273 8.31159 2.00081 9.88382C1.97889 11.456 2.40227 13.0001 3.21805 14.3232C4.03384 15.6462 5.20585 16.6895 6.58764 17.3227C7.96944 17.9559 9.49974 18.1509 10.9873 17.8834C12.4749 17.6158 13.8538 16.8976 14.9518 15.8185C15.0129 15.7583 15.0621 15.6861 15.0965 15.6061C15.1309 15.5262 15.1498 15.4399 15.1522 15.3523C15.1545 15.2647 15.1403 15.1775 15.1103 15.0956C15.0803 15.0137 15.0352 14.9388 14.9774 14.8751C14.9196 14.8114 14.8503 14.7602 14.7736 14.7244C14.6968 14.6886 14.614 14.6689 14.5299 14.6664C14.4458 14.6639 14.362 14.6787 14.2834 14.71C14.2048 14.7412 14.1329 14.7883 14.0717 14.8485C13.1568 15.7476 12.0079 16.3461 10.7684 16.569C9.52887 16.792 8.25376 16.6296 7.10235 16.1021C5.95093 15.5746 4.97426 14.7055 4.29434 13.6032C3.61442 12.5009 3.26139 11.2144 3.27936 9.90436C3.29733 8.59432 3.6855 7.31883 4.39538 6.23724C5.10526 5.15565 6.10538 4.3159 7.27079 3.82291C8.4362 3.32991 9.71525 3.20552 10.9481 3.46529C12.181 3.72505 13.3131 4.35744 14.2029 5.28346C14.4862 5.58179 14.7526 5.87512 15.0118 6.16929L13.7069 7.52846C13.6173 7.62169 13.5562 7.74053 13.5315 7.86992C13.5068 7.99931 13.5194 8.13343 13.5679 8.25532C13.6164 8.3772 13.6985 8.48136 13.8039 8.5546C13.9092 8.62785 14.0331 8.66689 14.1597 8.66679H17.36C17.5297 8.66679 17.6925 8.59655 17.8125 8.47153C17.9326 8.3465 18 8.17693 18 8.00012V4.66679C18 4.53494 17.9624 4.40605 17.8921 4.29644C17.8217 4.18682 17.7217 4.10139 17.6048 4.05096Z" fill="#005795"/>
</svg>
