<svg width="20" height="21" viewBox="0 0 20 21" fill="none" xmlns="http://www.w3.org/2000/svg">
<path d="M10.3195 6.50012V10.1226L13.2093 11.9285C13.3548 12.0195 13.4597 12.1671 13.5008 12.3387C13.5419 12.5103 13.5159 12.6918 13.4285 12.8435C13.3411 12.9951 13.1994 13.1043 13.0346 13.1471C12.8699 13.1899 12.6956 13.1628 12.55 13.0718L9.34979 11.0718C9.25508 11.0125 9.17671 10.9287 9.12231 10.8285C9.06791 10.7284 9.03934 10.6152 9.03937 10.5001V6.50012C9.03937 6.32331 9.10681 6.15374 9.22684 6.02872C9.34687 5.9037 9.50967 5.83346 9.67942 5.83346C9.84917 5.83346 10.012 5.9037 10.132 6.02872C10.252 6.15374 10.3195 6.32331 10.3195 6.50012ZM17.6048 4.55096C17.4878 4.50043 17.3591 4.48715 17.235 4.51281C17.1108 4.53848 16.9967 4.60192 16.9071 4.69512L15.9199 5.72596C15.6614 5.43346 15.395 5.14262 15.1118 4.84346C14.0444 3.73155 12.6861 2.97192 11.2066 2.6595C9.72708 2.34709 8.19199 2.49572 6.79312 3.08685C5.39426 3.67797 4.19365 4.68537 3.34132 5.98316C2.48899 7.28095 2.02273 8.81159 2.00081 10.3838C1.97889 11.956 2.40227 13.5001 3.21805 14.8232C4.03384 16.1462 5.20585 17.1895 6.58764 17.8227C7.96944 18.4559 9.49974 18.6509 10.9873 18.3834C12.4749 18.1158 13.8538 17.3976 14.9518 16.3185C15.0129 16.2583 15.0621 16.1861 15.0965 16.1061C15.1309 16.0262 15.1498 15.9399 15.1522 15.8523C15.1545 15.7647 15.1403 15.6775 15.1103 15.5956C15.0803 15.5137 15.0352 15.4388 14.9774 15.3751C14.9196 15.3114 14.8503 15.2602 14.7736 15.2244C14.6968 15.1886 14.614 15.1689 14.5299 15.1664C14.4458 15.1639 14.362 15.1787 14.2834 15.21C14.2048 15.2412 14.1329 15.2883 14.0717 15.3485C13.1568 16.2476 12.0079 16.8461 10.7684 17.069C9.52887 17.292 8.25376 17.1296 7.10235 16.6021C5.95093 16.0746 4.97426 15.2055 4.29434 14.1032C3.61442 13.0009 3.26139 11.7144 3.27936 10.4044C3.29733 9.09432 3.6855 7.81883 4.39538 6.73724C5.10526 5.65565 6.10538 4.8159 7.27079 4.32291C8.4362 3.82991 9.71525 3.70552 10.9481 3.96529C12.181 4.22505 13.3131 4.85744 14.2029 5.78346C14.4862 6.08179 14.7526 6.37512 15.0118 6.66929L13.7069 8.02846C13.6173 8.12169 13.5562 8.24053 13.5315 8.36992C13.5068 8.49931 13.5194 8.63343 13.5679 8.75532C13.6164 8.8772 13.6985 8.98136 13.8039 9.0546C13.9092 9.12785 14.0331 9.16689 14.1597 9.16679H17.36C17.5297 9.16679 17.6925 9.09655 17.8125 8.97153C17.9326 8.8465 18 8.67693 18 8.50012V5.16679C18 5.03494 17.9624 4.90605 17.8921 4.79644C17.8217 4.68682 17.7217 4.60139 17.6048 4.55096Z" fill="#FCAF17"/>
</svg>
